<svg xmlns="http://www.w3.org/2000/svg" viewBox="0 0 122.69 71.85"><defs><style>.cls-1{fill:#726658;}.cls-2{fill:#5397d1;}.cls-3{fill:#594a42;}.cls-4{fill:#fdfdfc;}.cls-5{fill:#786c5e;}.cls-6{fill:#766a5c;}.cls-7{fill:#887e70;}</style></defs><title>piratehat</title><g id="Layer_2" data-name="Layer 2"><g id="Layer_1-2" data-name="Layer 1"><path class="cls-1" d="M84.72,67.12c-3.54-5.18-8.57-7.81-14.66-8.72a61,61,0,0,0-25.24,1.3,25.33,25.33,0,0,0-12,7.3,3.72,3.72,0,0,1-3.18.69c-6.73-1.08-13.18-3-18.86-6.88C7.11,58.31,7,56.73,9.64,53.15c2.94-3.9,3.14-6.57.22-10.52C7.67,39.68,7.76,37,9.6,34A58.84,58.84,0,0,1,38.53,9.47c5.71-2.28,7.11-1.38,7.76,4.56C47,20.53,50.51,23.9,57,24.19c4.38.19,8.73.22,12.84-1.8s6.42-5.31,6.44-10.08,1.35-5.81,6-4.17c9.12,3.23,16.77,8.81,23.47,15.68a58.94,58.94,0,0,1,7,8.77c2.49,3.77,2.45,5.08-.22,8.74-3.19,4.38-3.3,7.07-.46,11.67,2.18,3.52,2,5.15-1.42,7.54a42,42,0,0,1-19.53,7.07C89,67.86,86.74,68.92,84.72,67.12Z"/><path class="cls-2" d="M84.72,67.12c8.71-1,17.31-2.26,24.83-7.34,2.62-1.77,4.51-3,1.2-6.33-3.6-3.59-3.06-9.21.94-13.1,2.34-2.28,2.17-3.89.46-6.34-8-11.46-18-20.24-31.34-25-2.27-.81-3.57-1.26-3.21,2.27.81,8.08-5,13.7-14.21,14.33-1.36.09-2.74,0-4.12.09-8.39.47-14.84-3.51-14.45-13.78.09-2.42-.58-3.07-3-2.21-14.05,4.9-24.58,13.94-32,26.73-1,1.69-.65,2.89.52,4.33,4.51,5.55,4.54,9.36-.33,14-2.21,2.11-1.14,3.07.51,4.22C15.77,62.72,21.78,64.75,28,66.1c1.58.35,3.18.6,4.77.9.29,3-1.09,4.27-4,3.73C19,68.9,9.87,65.61,2.59,58.33c-1.7-1.7-2-2.68.49-3.94S7.65,51,7.45,47.59s-2.33-4.76-5.1-5.66c-1.37-.45-1.7-1.11-1-2.44C12.74,18.3,29.09,3.91,53.87,1a12.53,12.53,0,0,1,1.86.13c-2.8,3.48-5.79,6.6-5.68,11.18.26.26.67.5.73.82,1,4.94,3.95,7,9,6.66,4.33-.31,8.41-.84,10.62-5.29a3.86,3.86,0,0,1,1.33-1.27c.52-4.54-2.1-8-4.29-12.16A51,51,0,0,1,87.89,5.31c14.08,6.18,23.87,16.83,31.38,29.91,1.42,2.48,1.51,4.06-1.19,5.78s-4.71,4.58-4.14,8.22,2.61,6.1,7.14,5.81A20.7,20.7,0,0,1,112.87,64a43.75,43.75,0,0,1-23,6.7,11.78,11.78,0,0,1-4.71-1C83.68,69.06,83.65,68.17,84.72,67.12Z"/><path class="cls-2" d="M30,71.85a7.58,7.58,0,0,1-1.37-.14C16.83,69.51,8.32,65.48,1.88,59,1,58.16.08,57.12.28,55.9S1.64,54,2.63,53.49c2.73-1.36,4-3.27,3.82-5.84S5,43.85,2,42.88a2.87,2.87,0,0,1-1.9-1.49A2.94,2.94,0,0,1,.48,39C13.11,15.49,30.54,2.74,53.75,0A5.89,5.89,0,0,1,55,.06c.23,0,.49.06.8.08l1.91.13-1.2,1.49-.86,1.05c-2.42,3-4.52,5.53-4.6,9a2,2,0,0,1,.71,1.08c.88,4.38,3.32,6.19,7.92,5.86,4.37-.31,7.86-.86,9.8-4.74a3.9,3.9,0,0,1,1.26-1.37c.22-3.23-1.3-5.93-3-9-.39-.69-.78-1.39-1.16-2.1L65.74.06l1.68,0A52.05,52.05,0,0,1,88.3,4.4c13,5.69,23.39,15.62,31.83,30.32,1.35,2.34,2.09,4.83-1.52,7.12-2,1.27-4.26,3.55-3.69,7.22s2.5,5.2,6.09,5l1.68-.11L122,55.45a21.35,21.35,0,0,1-8.58,9.36,45,45,0,0,1-23.52,6.85,13.26,13.26,0,0,1-5.1-1.08A2.54,2.54,0,0,1,83,68.81a2.64,2.64,0,0,1,1-2.4l.25-.25.34,0c8.68-1,17.08-2.24,24.38-7.18,1.33-.9,2.45-1.66,2.52-2.4.06-.55-.45-1.38-1.46-2.39a9.13,9.13,0,0,1-2.71-6.54,11.34,11.34,0,0,1,3.65-8c2-1.89,1.79-3,.34-5.05C102.86,22.4,92.77,14.35,80.47,10a6.21,6.21,0,0,0-1.87-.5,5.23,5.23,0,0,0,0,1.73,13,13,0,0,1-2.88,10c-2.67,3.17-7,5.11-12.25,5.47-.75.05-1.5.05-2.23.05s-1.27,0-1.9,0c-5,.29-9.1-1-11.82-3.64s-3.88-6.35-3.69-11.18c0-1.3-.17-1.5-.18-1.5s-.29-.17-1.54.27C28.63,15.37,18,24.22,10.61,37c-.69,1.18-.59,1.93.44,3.19,4.92,6.07,4.8,10.38-.42,15.38-.91.87-1,1.28-.94,1.39,0,.38.88,1,1.33,1.29,4.55,3.15,10,5.35,17.23,6.91,1.07.23,2.15.42,3.23.61L33,66l.74.14.07.74a4.58,4.58,0,0,1-1.13,4A3.76,3.76,0,0,1,30,71.85ZM2,40.66a1.65,1.65,0,0,0,.66.32c2.36.76,5.52,2.28,5.78,6.55.21,3.41-1.44,6-4.91,7.75-1.21.61-1.28.94-1.28.94s0,.36,1,1.4c6.22,6.23,14.15,10,25.72,12.13a2.87,2.87,0,0,0,2.3-.29,2.3,2.3,0,0,0,.53-1.62l-.72-.13c-1.11-.19-2.21-.39-3.31-.63-7.46-1.62-13.16-3.91-17.94-7.22C9,59.25,7.8,58.41,7.69,57.09a3.86,3.86,0,0,1,1.55-3c4.44-4.25,4.5-7.45.26-12.68-1.1-1.34-2-3-.61-5.46C16.55,22.79,27.5,13.64,41.44,8.78c1.07-.37,2.43-.71,3.39,0s1,2,1,3.19c-.16,4.24.88,7.5,3.1,9.68s5.85,3.31,10.3,3.06c.67,0,1.34,0,2,0s1.42,0,2.11-.05c4.67-.32,8.53-2,10.85-4.76A11,11,0,0,0,76.6,11.4c-.13-1.33-.14-2.79.8-3.53s2.26-.31,3.75.22c12.7,4.52,23.11,12.82,31.83,25.35,1.75,2.53,2.32,4.79-.59,7.62a9.38,9.38,0,0,0-3,6.57,7,7,0,0,0,2.12,5.11c1.51,1.51,2.16,2.78,2,4-.16,1.68-1.71,2.73-3.36,3.85-7.6,5.14-16.13,6.5-24.94,7.48a1.16,1.16,0,0,0-.22.36,2.24,2.24,0,0,0,.54.29,10.46,10.46,0,0,0,4.32.94,43.05,43.05,0,0,0,22.49-6.54A20.08,20.08,0,0,0,119.45,56c-3.63-.32-5.87-2.58-6.5-6.64-.58-3.7,1-7,4.59-9.22,2-1.27,2.17-2.14.86-4.43-8.22-14.32-18.33-24-30.91-29.49A49.52,49.52,0,0,0,69.12,2.12c.11.18.21.37.31.55,1.92,3.4,3.73,6.61,3.26,10.68l0,.43-.53.39a2.67,2.67,0,0,0-.84.78c-2.6,5.21-7.71,5.58-11.45,5.85-5.54.4-8.9-2.08-10-7.35l-.18-.16L49.35,13l-.29-.28v-.42C49,8.09,51.3,5,53.7,2,31.32,4.75,14.49,17.15,2.25,40a1.42,1.42,0,0,0-.25.7Z"/><path class="cls-3" d="M71.7,13.24c-.06,3.78-2.32,5.81-5.58,7a20.92,20.92,0,0,1-10.66.78c-3.94-.57-5.57-3.45-5.41-8.75C57.31,11.48,64.58,10.45,71.7,13.24Z"/><path class="cls-4" d="M66,48.35c-1.17,1.38-.5,3.86-2.2,3.11-2.92-1.28-7.18,2.36-9-2.53a3.73,3.73,0,0,0-2.37,2.26c-1.18,3.61-2.57,2.76-4.38.48-.73-.93-2.27-1.44-1.28-3,.86-1.37,1.82-.74,2.83-.05s1.73,0,2.35-.57c1-1-.12-1.48-.63-2.09-2.05-2.5-1.59-5.05-.14-7.63.37-.66,1.57-1.17.4-2.13a1.49,1.49,0,0,0-2.28,0,1.44,1.44,0,0,1-2.49-.25c-.8-1.14,0-1.86.67-2.57,1.86-1.84,3.67-4.39,5.23.36.42,1.28,1.65,1.79,3.38,1.18a9.61,9.61,0,0,1,7,0c3.2,1.46,4.66.06,5.64-2.59.42-1.11,1.18-2.16,2-1.16,1.14,1.43,3.94,2,3.16,4.56-.47,1.53-1.64,1.27-2.63.35s-1.83-.15-2.6.4c-1.26.9-.28,1.69.17,2.52a6.5,6.5,0,0,1,.08,6.42c-.37.72-2,1.32-.54,2.37.82.61,1.67,1.71,2.9.51.85-.83,1.86-.93,2.51.17a2,2,0,0,1-.59,2.66c-1.77,1.45-3.56,4.88-5.13-.22C67.8,50.05,66.87,49.38,66,48.35Z"/><path class="cls-5" d="M63.76,45.2c-2.13-.34-3.14-1.52-3-3.34.08-1.55.79-3.18,2.57-3.09,2.08.11,3.32,1.53,3.28,3.75C66.53,44.5,64.92,44.71,63.76,45.2Z"/><path class="cls-6" d="M59.1,42a2.76,2.76,0,0,1-3.13,3,2.64,2.64,0,0,1-2.64-2.95c0-1.67.67-3.41,2.66-3.34A3.14,3.14,0,0,1,59.1,42Z"/><path class="cls-7" d="M59.59,47.81c-.84.34-1.24-.07-1.15-.81s.36-1.58,1.15-1.73a1.55,1.55,0,0,1,1.62,1.25C61.65,48.06,60,47.22,59.59,47.81Z"/></g></g></svg>