<svg xmlns="http://www.w3.org/2000/svg" viewBox="0 0 120.08 69.85"><defs><style>.cls-1{fill:#726658;}.cls-2{fill:#5397d1;}.cls-3{fill:#594a42;}.cls-4{fill:#fdfdfc;}.cls-5{fill:#786c5e;}.cls-6{fill:#766a5c;}.cls-7{fill:#887e70;}</style></defs><title>Asset 1</title><g id="Layer_2" data-name="Layer 2"><g id="Layer_1-2" data-name="Layer 1"><path class="cls-1" d="M83.72,66.12c-3.53-5.18-8.56-7.81-14.66-8.72a61,61,0,0,0-25.24,1.3,25.33,25.33,0,0,0-12,7.3,3.71,3.71,0,0,1-3.18.69c-6.73-1.08-13.18-3-18.86-6.88C6.11,57.31,6,55.73,8.64,52.15c2.94-3.9,3.14-6.57.22-10.52-2.19-3-2.1-5.63-.25-8.63A58.77,58.77,0,0,1,37.53,8.47c5.71-2.28,7.12-1.38,7.76,4.56C46,19.53,49.51,22.9,56,23.19c4.38.19,8.73.22,12.84-1.8s6.42-5.31,6.44-10.08,1.35-5.81,6-4.17c9.12,3.23,16.78,8.81,23.47,15.68a58.94,58.94,0,0,1,7,8.77c2.49,3.77,2.45,5.08-.22,8.74-3.19,4.38-3.3,7.07-.46,11.66,2.18,3.53,2,5.16-1.41,7.55a42.09,42.09,0,0,1-19.54,7.07C88,66.86,85.74,67.92,83.72,66.12Z"/><path class="cls-2" d="M83.72,66.12c8.71-1,17.31-2.26,24.83-7.34,2.62-1.77,4.51-3,1.2-6.33-3.6-3.59-3.06-9.21.94-13.1,2.34-2.28,2.17-3.89.47-6.34-8-11.46-18-20.24-31.35-25-2.27-.81-3.57-1.26-3.21,2.27.81,8.08-5,13.7-14.2,14.33-1.37.09-2.75,0-4.12.09-8.4.47-14.85-3.51-14.46-13.78.09-2.42-.58-3.07-3-2.21-14.06,4.9-24.58,13.94-32,26.73-1,1.69-.65,2.89.52,4.33,4.51,5.55,4.55,9.36-.33,14C6.73,55.93,7.8,56.89,9.46,58,14.77,61.72,20.78,63.75,27,65.1c1.58.35,3.18.6,4.77.9.29,3-1.08,4.27-4,3.73C18,67.9,8.87,64.61,1.59,57.33c-1.7-1.7-2-2.68.49-3.94S6.65,50,6.45,46.59s-2.33-4.76-5.1-5.66c-1.36-.45-1.7-1.11-1-2.44C11.74,17.3,28.1,2.91,52.87,0a12.53,12.53,0,0,1,1.86.13c-2.8,3.48-5.78,6.6-5.68,11.18.27.26.67.5.73.82,1,4.94,3.95,7,9,6.66,4.34-.31,8.41-.84,10.62-5.29a3.86,3.86,0,0,1,1.33-1.27c.52-4.54-2.09-8-4.29-12.16A51.13,51.13,0,0,1,86.9,4.31c14.07,6.18,23.86,16.83,31.37,29.91,1.42,2.48,1.51,4.06-1.19,5.77s-4.71,4.59-4.14,8.23,2.61,6.1,7.14,5.81A20.7,20.7,0,0,1,111.87,63a43.75,43.75,0,0,1-23,6.7,11.82,11.82,0,0,1-4.71-1C82.68,68.06,82.65,67.17,83.72,66.12Z"/><path class="cls-3" d="M70.7,12.24c-.06,3.78-2.32,5.81-5.58,7a20.88,20.88,0,0,1-10.65.78c-3.95-.57-5.58-3.45-5.42-8.75C56.31,10.48,63.59,9.45,70.7,12.24Z"/><path class="cls-4" d="M65,47.35c-1.18,1.37-.51,3.86-2.21,3.11-2.92-1.28-7.18,2.36-9-2.53a3.73,3.73,0,0,0-2.37,2.26c-1.18,3.61-2.57,2.76-4.37.48-.73-.93-2.28-1.44-1.29-3,.86-1.37,1.82-.74,2.83-.05s1.73,0,2.35-.57c1-1-.12-1.48-.62-2.09-2.06-2.5-1.6-5.05-.15-7.63.37-.66,1.57-1.17.41-2.13a1.5,1.5,0,0,0-2.29,0,1.44,1.44,0,0,1-2.49-.25c-.79-1.14,0-1.86.68-2.57,1.85-1.84,3.66-4.39,5.22.36.42,1.28,1.65,1.79,3.38,1.18a9.61,9.61,0,0,1,7,0c3.21,1.46,4.66.06,5.65-2.59.41-1.11,1.18-2.16,2-1.16,1.14,1.43,3.94,2,3.16,4.56-.47,1.53-1.64,1.27-2.63.35s-1.83-.15-2.6.4c-1.26.9-.28,1.69.17,2.52a6.5,6.5,0,0,1,.08,6.42c-.36.72-2,1.32-.53,2.37.81.61,1.66,1.71,2.89.51.85-.83,1.86-.93,2.51.16a1.94,1.94,0,0,1-.59,2.66c-1.77,1.46-3.56,4.89-5.13-.21C66.81,49.05,65.87,48.38,65,47.35Z"/><path class="cls-5" d="M62.77,44.2c-2.14-.34-3.14-1.52-3.05-3.34.08-1.55.8-3.18,2.57-3.09,2.08.11,3.32,1.53,3.28,3.75C65.53,43.5,63.93,43.71,62.77,44.2Z"/><path class="cls-6" d="M58.1,41a2.75,2.75,0,0,1-3.13,3,2.64,2.64,0,0,1-2.64-2.95c0-1.67.67-3.41,2.67-3.34A3.14,3.14,0,0,1,58.1,41Z"/><path class="cls-7" d="M58.59,46.81c-.83.34-1.24-.07-1.14-.81s.35-1.58,1.14-1.73a1.57,1.57,0,0,1,1.63,1.25C60.66,47.06,59,46.22,58.59,46.81Z"/></g></g></svg>