<svg xmlns="http://www.w3.org/2000/svg" viewBox="0 0 343.47 231.52"><defs><style>.cls-1{fill:#89461c;}.cls-2{fill:#9e5124;}.cls-3{fill:#733c1a;}.cls-4{fill:#f5b12e;}.cls-5{fill:#ca682d;}.cls-6{fill:#fff;}</style></defs><title>Asset 1</title><g id="Layer_2" data-name="Layer 2"><g id="Layer_1-2" data-name="Layer 1"><rect class="cls-1" x="15.62" y="98.01" width="312.23" height="23.44"/><rect class="cls-2" x="15.62" y="74.57" width="312.23" height="23.44"/><path class="cls-3" d="M327.85,74.57H15.62V86.29H143.09c0,.48,0,1,0,1.45,0,15.47,12.84,28,28.69,28s28.69-12.55,28.69-28c0-.49,0-1-.05-1.45H327.85Z"/><path class="cls-2" d="M301.74,15.62h-260A26.15,26.15,0,0,0,15.62,41.74V59H327.85V41.74A26.14,26.14,0,0,0,301.74,15.62Z"/><rect class="cls-2" x="15.62" y="121.44" width="312.23" height="23.44"/><rect class="cls-1" x="15.62" y="144.88" width="312.23" height="23.44"/><rect class="cls-2" x="15.62" y="168.32" width="312.23" height="23.44"/><rect class="cls-1" x="15.62" y="191.75" width="312.23" height="24.15"/><circle class="cls-4" cx="171.74" cy="83.8" r="24.86"/><path class="cls-3" d="M179.48,78.06a8.23,8.23,0,1,0-12,7.3v10a3.79,3.79,0,1,0,7.58,0v-10A8.23,8.23,0,0,0,179.48,78.06Z"/><path class="cls-3" d="M18.15,30.54H325.32a26.15,26.15,0,0,0-23.58-14.92h-260A26.16,26.16,0,0,0,18.15,30.54Z"/><rect class="cls-5" x="15.62" y="50.42" width="312.23" height="8.52"/><path class="cls-4" d="M301.74,0h-260A41.78,41.78,0,0,0,0,41.74V231.52H343.47V41.74A41.78,41.78,0,0,0,301.74,0ZM15.62,41.74A26.15,26.15,0,0,1,41.74,15.62h260a26.14,26.14,0,0,1,26.11,26.12V59H15.62ZM40.87,215.9a25.24,25.24,0,0,0-25.25-25.25V99.82A25.25,25.25,0,0,0,40.87,74.57H302.6a25.26,25.26,0,0,0,25.25,25.25v90.83A25.25,25.25,0,0,0,302.6,215.9Z"/><polygon class="cls-6" points="318.1 19.85 335.63 21.61 318.54 25.88 316.78 43.4 312.51 26.31 294.99 24.55 312.07 20.29 313.84 2.76 318.1 19.85"/></g></g></svg>