<svg xmlns="http://www.w3.org/2000/svg" viewBox="0 0 343.47 343.14"><defs><style>.cls-1{fill:#fff;}.cls-2{fill:#733c1a;}.cls-3{fill:#c68f2c;}.cls-4{fill:#f5b12e;}.cls-5{fill:#89461c;}.cls-6{fill:#9e5124;}.cls-7{fill:#f4a41d;}.cls-8{fill:#b7752a;}</style></defs><title>Asset 2</title><g id="Layer_2" data-name="Layer 2"><g id="Layer_1-2" data-name="Layer 1"><path class="cls-1" d="M150.26,342.31l.11.06.11-.06Z"/><rect class="cls-2" x="18.34" y="28.2" width="306.8" height="134.95"/><path class="cls-3" d="M343.47,170.56H0V38.12A28.11,28.11,0,0,1,28.11,10H315.36a28.1,28.1,0,0,1,28.11,28.11Zm-325.13-7.4h306.8V28.2H18.34Z"/><path class="cls-4" d="M194.33,10H149.15a5,5,0,0,1-5-5h0a5,5,0,0,1,5-5h45.18a5,5,0,0,1,5,5h0A5,5,0,0,1,194.33,10Z"/><path class="cls-5" d="M15.62,233.06H327.85V211.43a25.08,25.08,0,0,1-9.39-1.81H25a25,25,0,0,1-9.39,1.81Z"/><path class="cls-6" d="M25,209.62H318.46a25.25,25.25,0,0,1-15.86-23.44H40.87A25.25,25.25,0,0,1,25,209.62Z"/><path class="cls-2" d="M143.09,197.9c0,.48,0,1,0,1.45,0,15.48,12.84,28,28.69,28s28.69-12.55,28.69-28c0-.48,0-1-.05-1.45H305.49a25.1,25.1,0,0,1-2.89-11.72H40.87A25.21,25.21,0,0,1,38,197.9Z"/><rect class="cls-6" x="15.62" y="233.06" width="312.23" height="23.44"/><rect class="cls-5" x="15.62" y="256.49" width="312.23" height="23.44"/><path class="cls-5" d="M40.87,327.51H302.6a25.26,25.26,0,0,1,17.87-24.14H23A25.25,25.25,0,0,1,40.87,327.51Z"/><path class="cls-4" d="M327.85,170.56H0V343.14H343.47V170.56Zm0,131.71a25.25,25.25,0,0,0-25.25,25.24H40.87a25.24,25.24,0,0,0-25.25-25.24V211.43a25.24,25.24,0,0,0,25.25-25.25H148.66a24.85,24.85,0,1,0,46.16,0H302.6a25.25,25.25,0,0,0,25.25,25.25Z"/><path class="cls-6" d="M15.62,279.93v22.34a25.08,25.08,0,0,1,7.39,1.1H320.47a25,25,0,0,1,7.38-1.1V279.93Z"/><path class="cls-7" d="M295.29,132.72a29.08,29.08,0,0,0-19.67,7.72c-.83-16.61-12.82-29.79-27.5-29.79-9.65,0-18.14,5.71-23.06,14.33a30.22,30.22,0,0,0-22.48-10.25c-15.67,0-28.65,12.39-31,28.57-.93,0-1.84,0-2.75.1-5.37-10.91-17.76-18.75-32.44-19.54-3.35-14.09-14.51-24.45-27.77-24.45-11.94,0-22.19,8.4-26.56,20.35a21.25,21.25,0,0,0-2.26-.14c-7.27,0-13.82,4.15-18.37,10.76a14.31,14.31,0,0,0-2.55-.25,14.62,14.62,0,0,0-12.58,7.51c-10.82.43-20.59,2.68-28,6.12v19.4H325.12C324.78,146.29,311.56,132.72,295.29,132.72Z"/><path class="cls-8" d="M44.44,144.35A19.5,19.5,0,0,1,58,149.83a14.18,14.18,0,0,0-27.14,0A19.5,19.5,0,0,1,44.44,144.35Z"/><path class="cls-8" d="M85.53,155.87a19.57,19.57,0,0,1,13.58,5.48,14.18,14.18,0,0,0-27.15,0A19.56,19.56,0,0,1,85.53,155.87Z"/><path class="cls-8" d="M63.25,139.91A14.34,14.34,0,0,1,68.86,141a8.57,8.57,0,0,0-16.45,3.34c0,.14,0,.28,0,.41A14.41,14.41,0,0,1,63.25,139.91Z"/><path class="cls-8" d="M32.3,150.58a9.31,9.31,0,0,1,9.13,7.49,9.14,9.14,0,0,0,.19-1.82,9.32,9.32,0,1,0-18.63,0,9.13,9.13,0,0,0,.18,1.82A9.31,9.31,0,0,1,32.3,150.58Z"/><path class="cls-8" d="M64.46,151.53A19.55,19.55,0,0,1,78,157a14.18,14.18,0,0,0-27.15,0A19.56,19.56,0,0,1,64.46,151.53Z"/><path class="cls-8" d="M91,124.14a11.29,11.29,0,0,1,10.93,8.52,11.11,11.11,0,0,0,.36-2.79,11.3,11.3,0,0,0-22.59,0,11.11,11.11,0,0,0,.36,2.79A11.3,11.3,0,0,1,91,124.14Z"/><path class="cls-8" d="M110.68,120.65a14.37,14.37,0,0,1,5.61,1.13,8.57,8.57,0,0,0-16.46,3.34c0,.14,0,.27,0,.41A14.45,14.45,0,0,1,110.68,120.65Z"/><path class="cls-8" d="M75.42,135.42a14.57,14.57,0,0,0-5.62,1.13,8.57,8.57,0,0,1,16.46,3.35c0,.13,0,.27,0,.4A14.47,14.47,0,0,0,75.42,135.42Z"/><path class="cls-8" d="M122.23,139.86a19.5,19.5,0,0,1,13.57,5.48,14.18,14.18,0,0,0-27.14,0A19.5,19.5,0,0,1,122.23,139.86Z"/><path class="cls-8" d="M138.25,145.1a18,18,0,0,1,17.88,16.11c.06-.62.1-1.24.1-1.88a18,18,0,0,0-36,0c0,.64,0,1.26.1,1.88A18,18,0,0,1,138.25,145.1Z"/><path class="cls-8" d="M198.75,140.76a18,18,0,0,1,17.88,16.1c.06-.62.1-1.24.1-1.87a18,18,0,1,0-36,0c0,.63,0,1.25.1,1.87A18,18,0,0,1,198.75,140.76Z"/><path class="cls-8" d="M213.37,131.19a11.3,11.3,0,0,1,10.94,8.51,11.57,11.57,0,0,0,.36-2.78,11.3,11.3,0,1,0-22.6,0,11.09,11.09,0,0,0,.36,2.78A11.29,11.29,0,0,1,213.37,131.19Z"/><path class="cls-8" d="M223.22,157.63a19.52,19.52,0,0,1,13.57,5.48,14.18,14.18,0,0,0-27.15,0A19.52,19.52,0,0,1,223.22,157.63Z"/><path class="cls-8" d="M245,149.39a37.31,37.31,0,0,1,20.09,5.47c-2.61-5.82-10.61-10.07-20.09-10.07s-17.48,4.25-20.1,10.07A37.32,37.32,0,0,1,245,149.39Z"/><path class="cls-8" d="M265.07,141.4a9.3,9.3,0,0,1,9.13,7.48,9.14,9.14,0,0,0,.19-1.82,9.32,9.32,0,0,0-18.63,0,9.13,9.13,0,0,0,.18,1.82A9.3,9.3,0,0,1,265.07,141.4Z"/><path class="cls-8" d="M299.87,147.41a14.42,14.42,0,0,1,5.62,1.13A8.57,8.57,0,0,0,289,151.88c0,.14,0,.27,0,.41A14.41,14.41,0,0,1,299.87,147.41Z"/><path class="cls-8" d="M289,153.39A11.29,11.29,0,0,1,300,161.9a11.09,11.09,0,0,0,.36-2.78,11.3,11.3,0,0,0-22.6,0,11.57,11.57,0,0,0,.36,2.78A11.3,11.3,0,0,1,289,153.39Z"/><path class="cls-8" d="M222.05,142.92a14.34,14.34,0,0,0-5.61,1.13,8.57,8.57,0,0,1,16.46,3.34c0,.14,0,.28,0,.41A14.41,14.41,0,0,0,222.05,142.92Z"/><path class="cls-2" d="M180,189.88a8.23,8.23,0,1,0-12,7.3v10a3.79,3.79,0,1,0,7.57,0v-10A8.21,8.21,0,0,0,180,189.88Z"/><polygon class="cls-1" points="268.2 108.23 286.14 111.35 268.2 114.48 265.07 132.42 261.95 114.48 244 111.35 261.95 108.23 265.07 90.28 268.2 108.23"/><polygon class="cls-1" points="94.61 113.44 103.18 125.63 91 117.06 78.81 125.63 87.38 113.44 78.81 101.26 91 109.83 103.18 101.26 94.61 113.44"/><polygon class="cls-1" points="173.37 143.31 181.94 155.5 169.75 146.93 157.56 155.5 166.14 143.31 157.56 131.13 169.75 139.7 181.94 131.13 173.37 143.31"/></g></g></svg>