<svg xmlns="http://www.w3.org/2000/svg" viewBox="0 0 175.76 119.25"><defs><style>.cls-1{fill:#bec0e1;}.cls-2{fill:#9296ca;}.cls-3{fill:#a9abd6;}.cls-4{fill:#6c73b6;}.cls-5{fill:#efb57e;}.cls-6{fill:#fdcea4;}.cls-7{fill:#fedec4;}.cls-8{fill:#c98332;}</style></defs><title>cloth</title><g id="Layer_2" data-name="Layer 2"><g id="Layer_1-2" data-name="Layer 1"><path class="cls-1" d="M175.76,19.88h0C175.76,8.9,168.2,0,158.88,0h-142C7.56,0,0,8.9,0,19.88H0c0,11,7.56,19.87,16.88,19.87C7.56,39.75,0,48.65,0,59.63S7.56,79.5,16.88,79.5C7.56,79.5,0,88.4,0,99.38s7.56,19.87,16.88,19.87h142c9.32,0,16.88-8.9,16.88-19.87S168.2,79.5,158.88,79.5h0c9.32,0,16.88-8.9,16.88-19.87s-7.56-19.88-16.88-19.88C168.2,39.75,175.76,30.85,175.76,19.88Z"/><path class="cls-2" d="M67.56,96.86H16.88a3.16,3.16,0,0,0,0,6.23H67.56a3.16,3.16,0,0,0,0-6.23Z"/><path class="cls-2" d="M67.56,89H16.88a8.66,8.66,0,0,0-6.6,3.22,12.4,12.4,0,0,0,0,15.55,8.66,8.66,0,0,0,6.6,3.22H67.56a8.66,8.66,0,0,0,6.6-3.22,12.4,12.4,0,0,0,0-15.55A8.66,8.66,0,0,0,67.56,89Zm0,16.09H16.88c-2.39,0-4.32-2.28-4.33-5.09s1.94-5.1,4.33-5.1H67.56c2.39,0,4.32,2.28,4.32,5.1S70,105.07,67.56,105.07Z"/><path class="cls-2" d="M84.44,99.38c0-11-7.56-19.88-16.88-19.88H16.88C7.56,79.5,0,88.4,0,99.38s7.56,19.87,16.88,19.87H67.56C76.88,119.25,84.44,110.35,84.44,99.38ZM67.56,113H16.88c-6.08,0-11-5.82-11-13s4.94-13,11-13H67.56c6.08,0,11,5.82,11,13S73.64,113,67.56,113Z"/><path class="cls-3" d="M84.44,99.38c0,11-7.56,19.87-16.88,19.87h91.32c9.32,0,16.88-8.9,16.88-19.87Z"/><path class="cls-4" d="M67.56,87H16.88c-6.08,0-11,5.82-11,13s4.94,13,11,13H67.56c6.08,0,11-5.83,11-13S73.64,87,67.56,87Zm6.6,20.75a8.66,8.66,0,0,1-6.6,3.22H16.88a8.66,8.66,0,0,1-6.6-3.22,12.4,12.4,0,0,1,0-15.55A8.66,8.66,0,0,1,16.88,89H67.56a8.66,8.66,0,0,1,6.6,3.22,12.4,12.4,0,0,1,0,15.55Z"/><path class="cls-4" d="M67.56,94.88H16.88c-2.39,0-4.32,2.28-4.33,5.1s1.94,5.09,4.33,5.09H67.56c2.39,0,4.32-2.28,4.32-5.09S70,94.88,67.56,94.88Zm0,8.21H16.88a3.16,3.16,0,0,1,0-6.23H67.56a3.16,3.16,0,0,1,0,6.23Z"/><path class="cls-5" d="M70.2,60.23a2.92,2.92,0,0,0-2.64-3.12H16.88a3.16,3.16,0,0,0,0,6.23H67.56A2.92,2.92,0,0,0,70.2,60.23Z"/><path class="cls-5" d="M84.44,59.63c0-11-7.56-19.88-16.88-19.88H16.88C7.56,39.75,0,48.65,0,59.63S7.56,79.5,16.88,79.5H67.56C76.88,79.5,84.44,70.6,84.44,59.63ZM16.88,73.2c-6.08,0-11-5.81-11-13s4.94-13,11-13H67.56c6.08,0,11,5.82,11,13s-4.94,13-11,13Z"/><path class="cls-5" d="M74.16,68a12.4,12.4,0,0,0,0-15.55,8.66,8.66,0,0,0-6.6-3.22H16.88a8.66,8.66,0,0,0-6.6,3.22,12.4,12.4,0,0,0,0,15.55,8.66,8.66,0,0,0,6.6,3.22H67.56A8.66,8.66,0,0,0,74.16,68ZM12.55,60.23c0-2.82,1.94-5.1,4.33-5.1H67.56c2.39,0,4.32,2.28,4.32,5.1S70,65.32,67.56,65.32H16.88C14.49,65.32,12.56,63,12.55,60.23Z"/><path class="cls-6" d="M84.44,59.63c0,11-7.56,19.87-16.88,19.87h91.32c9.32,0,16.88-8.9,16.88-19.87Z"/><path class="cls-7" d="M67.56,39.75c9.32,0,16.88,8.9,16.88,19.88h91.32c0-11-7.56-19.88-16.88-19.88H67.56Z"/><path class="cls-8" d="M78.58,60.23c0-7.16-4.94-13-11-13H16.88c-6.08,0-11,5.82-11,13s4.94,13,11,13H67.56C73.64,73.2,78.58,67.38,78.58,60.23ZM10.28,68a12.4,12.4,0,0,1,0-15.55,8.66,8.66,0,0,1,6.6-3.22H67.56a8.66,8.66,0,0,1,6.6,3.22,12.4,12.4,0,0,1,0,15.55,8.66,8.66,0,0,1-6.6,3.22H16.88A8.66,8.66,0,0,1,10.28,68Z"/><path class="cls-8" d="M71.88,60.23c0-2.82-1.93-5.1-4.32-5.1H16.88c-2.39,0-4.32,2.28-4.33,5.1s1.94,5.09,4.33,5.09H67.56C70,65.32,71.88,63,71.88,60.23Zm-57.64,0a2.92,2.92,0,0,1,2.64-3.12H67.56a3.16,3.16,0,0,1,0,6.23H16.88A2.92,2.92,0,0,1,14.24,60.23Z"/><path class="cls-2" d="M84.44,19.88h0C84.44,8.9,76.88,0,67.56,0H16.88C7.56,0,0,8.9,0,19.88H0c0,11,7.56,19.87,16.88,19.87H67.56C76.88,39.75,84.44,30.85,84.44,19.88Zm-78.58.6c0-7.16,4.94-13,11-13H67.56c6.08,0,11,5.81,11,13s-4.94,13-11,13H16.88C10.8,33.45,5.86,27.63,5.86,20.48Z"/><path class="cls-2" d="M74.16,28.25a12,12,0,0,0,2.74-7.78,12,12,0,0,0-2.74-7.77,8.66,8.66,0,0,0-6.6-3.22H16.88a8.66,8.66,0,0,0-6.6,3.22,12,12,0,0,0-2.74,7.78,12,12,0,0,0,2.74,7.77,8.66,8.66,0,0,0,6.6,3.22H67.56A8.66,8.66,0,0,0,74.16,28.25ZM12.55,20.48c0-2.82,1.94-5.1,4.33-5.1H67.56c2.39,0,4.32,2.28,4.32,5.09s-1.93,5.1-4.32,5.1H16.88C14.49,25.57,12.56,23.29,12.55,20.48Z"/><path class="cls-2" d="M70.2,20.47a2.92,2.92,0,0,0-2.64-3.11H16.88a2.92,2.92,0,0,0-2.64,3.12,2.92,2.92,0,0,0,2.64,3.11H67.56A2.92,2.92,0,0,0,70.2,20.47Z"/><path class="cls-3" d="M84.44,19.88c0,11-7.56,19.87-16.88,19.87h91.32c9.32,0,16.88-8.9,16.88-19.87Z"/><path class="cls-4" d="M78.58,20.47c0-7.16-4.94-13-11-13H16.88c-6.08,0-11,5.82-11,13s4.94,13,11,13H67.56C73.64,33.45,78.58,27.63,78.58,20.47Zm-68.3,7.78a12,12,0,0,1-2.74-7.77,12,12,0,0,1,2.74-7.78,8.66,8.66,0,0,1,6.6-3.22H67.56a8.66,8.66,0,0,1,6.6,3.22,12,12,0,0,1,2.74,7.77,12,12,0,0,1-2.74,7.78,8.66,8.66,0,0,1-6.6,3.22H16.88A8.66,8.66,0,0,1,10.28,28.25Z"/><path class="cls-4" d="M71.88,20.47c0-2.81-1.93-5.09-4.32-5.09H16.88c-2.39,0-4.32,2.28-4.33,5.1s1.94,5.09,4.33,5.09H67.56C70,25.57,71.88,23.29,71.88,20.47Zm-57.64,0a2.92,2.92,0,0,1,2.64-3.12H67.56a2.92,2.92,0,0,1,2.64,3.11,2.92,2.92,0,0,1-2.64,3.12H16.88A2.92,2.92,0,0,1,14.24,20.48Z"/></g></g></svg>