<svg xmlns="http://www.w3.org/2000/svg" viewBox="0 0 289.71 285.29"><defs><style>.cls-1{isolation:isolate;}.cls-2{fill:#f3ba2c;}.cls-3{fill:#f7ee59;}.cls-4{mix-blend-mode:color-dodge;}.cls-5{fill:#f9da6f;}.cls-6{fill:#f5ce62;}.cls-7{fill:#daa228;}.cls-8{fill:#c9842a;}.cls-9{fill:#f7ed43;}.cls-10{fill:#bf8b2c;}</style></defs><title>coin</title><g class="cls-1"><g id="Layer_2" data-name="Layer 2"><g id="Layer_1-2" data-name="Layer 1"><circle class="cls-2" cx="145.44" cy="142.21" r="139.23" transform="translate(-57.96 144.49) rotate(-45)"/><path class="cls-3" d="M284.67,142.21c0,1.37,0,2.74-.06,4.1a139.23,139.23,0,0,0-278.34,0c0-1.36-.06-2.73-.06-4.1a139.23,139.23,0,1,1,278.46,0Z"/><g class="cls-4"><path class="cls-5" d="M101.29,234.77l-27,27A140,140,0,0,1,39.91,233L65.8,207.15A103.26,103.26,0,0,0,101.29,234.77Z"/><path class="cls-5" d="M265.12,71,238,98.05a103.38,103.38,0,0,0-27.63-35.49l25.85-25.92A136.83,136.83,0,0,1,265.12,71Z"/><path class="cls-5" d="M60,199.47,33.87,225.64a136.91,136.91,0,0,1-8-11.79L52.77,187A102.27,102.27,0,0,0,60,199.47Z"/><path class="cls-5" d="M228.87,30.63,202.71,56.8a102.15,102.15,0,0,0-12.49-7.27L217.1,22.65A138.91,138.91,0,0,1,228.87,30.63Z"/><line class="cls-5" x1="101.19" y1="234.87" x2="74.21" y2="261.86"/><path class="cls-6" d="M115.55,6.19,9.42,112.32A139.42,139.42,0,0,1,115.55,6.19Z"/><path class="cls-6" d="M283.89,157A139.27,139.27,0,0,1,160.22,280.66Z"/></g><circle class="cls-7" cx="145.44" cy="142.21" r="102.75" transform="translate(-57.96 144.49) rotate(-45)"/><path class="cls-8" d="M230.34,84.38A102.71,102.71,0,0,0,66,207.33a102.72,102.72,0,1,1,164.32-123Z"/><path class="cls-9" d="M248.19,142.21A102.71,102.71,0,0,1,72,214,102.7,102.7,0,0,0,212.31,64.25,102.54,102.54,0,0,1,248.19,142.21Z"/><path class="cls-10" d="M289.71,146.05A139.24,139.24,0,0,1,63.51,254.8,139.24,139.24,0,0,0,232.35,33.43,139,139,0,0,1,289.71,146.05Z"/><path class="cls-10" d="M6.21,142.21a139.23,139.23,0,0,0,76,124.1A139.27,139.27,0,1,1,202.43,15.13,139.3,139.3,0,0,0,6.21,142.21Z"/></g></g></g></svg>