<svg xmlns="http://www.w3.org/2000/svg" viewBox="0 0 159.5 172.48"><defs><style>.cls-1{opacity:0.38;}.cls-2,.cls-7{fill:#231f20;}.cls-3{fill:#e6e7e7;}.cls-4{fill:#f8e493;}.cls-5{fill:#bb835c;}.cls-6{fill:#fff;}.cls-7{opacity:0.23;}</style></defs><title>dagger</title><g id="Layer_2" data-name="Layer 2"><g id="Layer_1-2" data-name="Layer 1"><g class="cls-1"><path class="cls-2" d="M63.2,51.66c37,43.71,44.24,52.6,44.24,52.6a635.38,635.38,0,0,1,47.11,67.92s0,.09-.08.06C135.56,157,115.89,140,95.94,120.87,77.75,103.46,60.56,85.41,45.71,68.75"/><path class="cls-2" d="M55.07,60.46s97.4,108.89,98.27,110.44"/><path class="cls-2" d="M31.61,72.4,69.35,39l7.18,8.11A80.92,80.92,0,0,0,38.79,80.51Z"/><polyline class="cls-2" points="44.59 60.91 10.51 18.36 18.27 11.49 56.38 50.47"/><line class="cls-2" x1="41.78" y1="57.57" x2="53.4" y2="47.28"/><line class="cls-2" x1="38.19" y1="53.07" x2="49.37" y2="43.17"/><line class="cls-2" x1="34.6" y1="48.56" x2="45.33" y2="39.06"/><line class="cls-2" x1="31.01" y1="44.06" x2="41.3" y2="34.95"/><line class="cls-2" x1="27.42" y1="39.56" x2="37.26" y2="30.84"/><line class="cls-2" x1="23.82" y1="35.06" x2="33.23" y2="26.73"/><line class="cls-2" x1="20.23" y1="30.55" x2="29.19" y2="22.62"/><line class="cls-2" x1="16.64" y1="26.05" x2="25.16" y2="18.51"/><line class="cls-2" x1="13.05" y1="21.55" x2="21.12" y2="14.4"/><path class="cls-2" d="M10.52,18.35l7.6-6.73a9.21,9.21,0,1,0-7.6,6.73ZM6.2,5.81a4.48,4.48,0,1,1-.38,6.32A4.48,4.48,0,0,1,6.2,5.81Z"/></g><path class="cls-3" d="M112,104.87a637.83,637.83,0,0,1,45.74,65.69c-19.46-15.74-38.46-32.47-56.52-49.74-17-16.29-33.54-33.42-49.15-50.93A80.63,80.63,0,0,1,69.6,54.36C105.9,97.24,112,104.8,112,104.87Z"/><path class="cls-4" d="M80.63,47.19a81.53,81.53,0,0,0-37,32.74l-6.37-7.18L74.26,40Z"/><polygon class="cls-5" points="16.13 18.72 23.2 12.46 60.6 50.72 49.58 60.48 16.13 18.72"/><path class="cls-4" d="M15.32,18.15,22.6,11.7a8.7,8.7,0,1,0-7.28,6.45Zm-4.17-12a4.48,4.48,0,1,1-.38,6.32A4.49,4.49,0,0,1,11.15,6.11Z"/><path class="cls-6" d="M13.62,14.42a4.53,4.53,0,0,0,1.81-.67,4.5,4.5,0,0,1-4.66-1.32,4.48,4.48,0,0,1,.38-6.32l0,0a2.83,2.83,0,0,1,.52-.39,3.9,3.9,0,0,0-.57.21A4.54,4.54,0,0,0,10,6.62a4.49,4.49,0,0,0,3.58,7.8Z"/><path class="cls-7" d="M159.5,172.48c-.17-.25-.73-.94-1.64-2-13-15.4-96.93-109.56-96.93-109.56l-8.85,9,19,20.66L94.15,114l10.58,10.53L120,138.93l13.71,12.12,13.76,11.69Z"/></g></g></svg>