<svg xmlns="http://www.w3.org/2000/svg" xmlns:xlink="http://www.w3.org/1999/xlink" viewBox="0 0 849.79 630.55"><defs><style>.cls-1{isolation:isolate;}.cls-2{fill:#8c1927;}.cls-3{fill:url(#_250);}.cls-4{fill:#7c1338;}.cls-5,.cls-6,.cls-7{opacity:0.46;}.cls-5{fill:url(#_24_2);}.cls-6{fill:url(#_24_2-2);}.cls-7{fill:url(#_24_2-3);}.cls-42,.cls-48,.cls-49,.cls-50,.cls-57,.cls-8,.cls-9{opacity:0.3;}.cls-8,.cls-9{mix-blend-mode:screen;}.cls-8{fill:url(#_24_2-4);}.cls-9{fill:url(#_24_2-5);}.cls-10,.cls-30,.cls-32,.cls-40,.cls-51,.cls-56,.cls-60,.cls-61,.cls-63,.cls-76{opacity:0.5;}.cls-10,.cls-30,.cls-31,.cls-40,.cls-41,.cls-42,.cls-43,.cls-47{mix-blend-mode:soft-light;}.cls-10{fill:url(#_140);}.cls-11{fill:url(#_92_2);}.cls-12{fill:url(#_92_2-2);}.cls-13{fill:url(#_321);}.cls-14{fill:url(#_323);}.cls-15{fill:url(#_5);}.cls-16{fill:#630f0f;}.cls-17{fill:url(#_323-2);}.cls-18{fill:url(#_323-3);}.cls-19{fill:url(#_220);}.cls-20{fill:url(#_220-2);}.cls-21{fill:url(#_300);}.cls-22{fill:url(#_5-2);}.cls-23{fill:url(#_300-2);}.cls-24{fill:url(#_92_2-3);}.cls-25{fill:url(#_300-3);}.cls-26{fill:#ffef9b;}.cls-27,.cls-36,.cls-37,.cls-38,.cls-39,.cls-44,.cls-46,.cls-53,.cls-74,.cls-87{opacity:0.7;}.cls-27,.cls-32,.cls-36,.cls-37,.cls-38,.cls-39,.cls-44,.cls-46,.cls-51,.cls-53,.cls-54,.cls-56,.cls-63,.cls-74,.cls-76,.cls-87{mix-blend-mode:multiply;}.cls-27{fill:url(#_61);}.cls-28{fill:url(#_252);}.cls-29{fill:url(#_308);}.cls-30{fill:#594275;}.cls-31{fill:#e75a29;opacity:0.31;}.cls-32{fill:url(#_310);}.cls-33{fill:#941717;}.cls-34{fill:#731414;}.cls-35{fill:#d96420;}.cls-36{fill:url(#_61-2);}.cls-37{fill:url(#_3);}.cls-38{fill:url(#_61-3);}.cls-39{fill:url(#_61-4);}.cls-40{fill:#683c11;}.cls-41{fill:#ffc29c;opacity:0.29;}.cls-42,.cls-43{fill:#d2fff1;}.cls-43{opacity:0.1;}.cls-44{fill:url(#_3-2);}.cls-45{fill:#de5634;}.cls-46{fill:url(#_61-5);}.cls-47{fill:#cadafc;opacity:0.9;}.cls-48,.cls-49,.cls-50,.cls-57,.cls-60,.cls-61{mix-blend-mode:color-dodge;}.cls-48{fill:url(#_21_2);}.cls-49{fill:url(#_21_2-2);}.cls-50{fill:url(#_21_2-3);}.cls-51{fill:url(#_27_2);}.cls-52{fill:url(#_941);}.cls-53{fill:url(#_20_2);}.cls-54{opacity:0.8;fill:url(#_963);}.cls-55{fill:url(#_508);}.cls-56{fill:url(#_449);}.cls-57{fill:url(#_445);}.cls-58{fill:url(#linear-gradient);}.cls-59{fill:url(#_18_2);}.cls-60{fill:url(#_6_2);}.cls-61{fill:url(#_479);}.cls-62{fill:url(#_264);}.cls-63{fill:url(#_27_2-2);}.cls-64{fill:url(#_4);}.cls-65{fill:url(#_180);}.cls-66{fill:url(#_18_2-2);}.cls-67{fill:url(#_499);}.cls-68{fill:url(#_490);}.cls-69{fill:url(#_490-2);}.cls-70{fill:url(#_490-3);}.cls-71{fill:url(#_490-4);}.cls-72{fill:url(#linear-gradient-2);}.cls-73{fill:url(#linear-gradient-3);}.cls-74{fill:url(#_3-3);}.cls-75{fill:url(#_264-2);}.cls-76{fill:url(#_27_2-3);}.cls-77{fill:url(#_4-2);}.cls-78{fill:url(#_180-2);}.cls-79{fill:url(#_18_2-3);}.cls-80{fill:url(#_499-2);}.cls-81{fill:url(#_490-5);}.cls-82{fill:url(#_490-6);}.cls-83{fill:url(#_490-7);}.cls-84{fill:url(#_490-8);}.cls-85{fill:url(#linear-gradient-4);}.cls-86{fill:url(#linear-gradient-5);}.cls-87{fill:url(#_3-4);}</style><linearGradient id="_250" x1="412.64" y1="61.33" x2="412.64" y2="533.62" gradientUnits="userSpaceOnUse"><stop offset="0.02" stop-color="#cd6d22"/><stop offset="0.29" stop-color="#ca5f2e"/><stop offset="0.66" stop-color="#c8523a"/><stop offset="1" stop-color="#c74d3e"/></linearGradient><radialGradient id="_24_2" cx="500.66" cy="156.87" r="68.48" gradientUnits="userSpaceOnUse"><stop offset="0.02" stop-color="#ffa41a"/><stop offset="1" stop-color="#ff8836"/></radialGradient><radialGradient id="_24_2-2" cx="481.63" cy="252.31" r="63.91" xlink:href="#_24_2"/><radialGradient id="_24_2-3" cx="465.9" cy="504.46" r="54.96" xlink:href="#_24_2"/><radialGradient id="_24_2-4" cx="445.03" cy="110.73" r="78.23" xlink:href="#_24_2"/><radialGradient id="_24_2-5" cx="428.29" cy="196.06" r="46.17" xlink:href="#_24_2"/><linearGradient id="_140" x1="453.89" y1="520.65" x2="534.36" y2="459.38" gradientUnits="userSpaceOnUse"><stop offset="0" stop-color="#36193b"/><stop offset="1" stop-color="#8e37e2"/></linearGradient><linearGradient id="_92_2" x1="88.61" y1="274.23" x2="383.49" y2="274.23" gradientUnits="userSpaceOnUse"><stop offset="0" stop-color="#ca6b34"/><stop offset="0.67" stop-color="#ffa933"/><stop offset="1" stop-color="#ffbd2b"/></linearGradient><linearGradient id="_92_2-2" x1="522.95" y1="276.35" x2="766.23" y2="276.35" xlink:href="#_92_2"/><linearGradient id="_321" x1="184.81" y1="570.67" x2="123.09" y2="101.61" gradientUnits="userSpaceOnUse"><stop offset="0" stop-color="#ed8a1d"/><stop offset="1" stop-color="#ffa933"/></linearGradient><radialGradient id="_323" cx="172.15" cy="274.02" r="212.34" gradientUnits="userSpaceOnUse"><stop offset="0" stop-color="#ee8b1d"/><stop offset="1" stop-color="#8b2c1b"/></radialGradient><linearGradient id="_5" x1="475.4" y1="283.27" x2="651.63" y2="283.27" xlink:href="#_323"/><radialGradient id="_323-2" cx="76.04" cy="253.68" r="257.56" xlink:href="#_323"/><radialGradient id="_323-3" cx="122.69" cy="346.85" r="248.96" xlink:href="#_323"/><radialGradient id="_220" cx="513.33" cy="327.74" r="190.33" gradientUnits="userSpaceOnUse"><stop offset="0" stop-color="#ca6b34"/><stop offset="0.24" stop-color="#cd6e34"/><stop offset="0.45" stop-color="#d67934"/><stop offset="0.66" stop-color="#e68b33"/><stop offset="0.85" stop-color="#fba533"/><stop offset="0.88" stop-color="#ffa933"/><stop offset="1" stop-color="#ffbd2b"/></radialGradient><radialGradient id="_220-2" cx="508.56" cy="392.11" r="183.23" xlink:href="#_220"/><linearGradient id="_300" x1="64.84" y1="362.22" x2="764.85" y2="362.22" gradientUnits="userSpaceOnUse"><stop offset="0" stop-color="#e88905"/><stop offset="1" stop-color="#ffe387"/></linearGradient><linearGradient id="_5-2" x1="416.99" y1="635.12" x2="416.99" y2="503.98" xlink:href="#_323"/><linearGradient id="_300-2" x1="103.93" y1="533.56" x2="730.06" y2="533.56" xlink:href="#_300"/><linearGradient id="_92_2-3" x1="300.96" y1="579.17" x2="730.06" y2="579.17" xlink:href="#_92_2"/><linearGradient id="_300-3" x1="55.24" y1="293.77" x2="779.89" y2="293.77" xlink:href="#_300"/><linearGradient id="_61" x1="615.71" y1="161.82" x2="500.5" y2="172.79" gradientUnits="userSpaceOnUse"><stop offset="0" stop-color="#b41e2d"/><stop offset="1" stop-color="#ed8a1d"/></linearGradient><radialGradient id="_252" cx="516.77" cy="370.66" r="108.25" gradientUnits="userSpaceOnUse"><stop offset="0" stop-color="#ffbd2b"/><stop offset="0.33" stop-color="#ffa933"/><stop offset="1" stop-color="#ca6b34"/></radialGradient><radialGradient id="_308" cx="550.99" cy="374.37" r="72.62" gradientUnits="userSpaceOnUse"><stop offset="0" stop-color="#da7d34"/><stop offset="0.24" stop-color="#df8633"/><stop offset="0.63" stop-color="#eea02f"/><stop offset="1" stop-color="#ffbd2b"/></radialGradient><linearGradient id="_310" x1="508.46" y1="449.96" x2="508.46" y2="491.22" gradientUnits="userSpaceOnUse"><stop offset="0" stop-color="#e54136"/><stop offset="1" stop-color="#fff"/></linearGradient><linearGradient id="_61-2" x1="502.87" y1="404.66" x2="489.15" y2="545.48" xlink:href="#_61"/><linearGradient id="_3" x1="220.06" y1="630.55" x2="220.06" gradientUnits="userSpaceOnUse"><stop offset="0" stop-color="#de5634"/><stop offset="1" stop-color="#ed8a1d"/></linearGradient><linearGradient id="_61-3" x1="182.26" y1="444.46" x2="180.88" y2="477.38" xlink:href="#_61"/><linearGradient id="_61-4" x1="157.97" y1="162.62" x2="155.91" y2="265.48" xlink:href="#_61"/><linearGradient id="_3-2" x1="480.84" y1="536.3" x2="480.84" y2="523.89" xlink:href="#_3"/><linearGradient id="_61-5" x1="477.97" y1="447.44" x2="473.86" y2="509.16" xlink:href="#_61"/><radialGradient id="_21_2" cx="731.04" cy="127.26" r="118.75" gradientTransform="translate(304.1 -479.65) rotate(45)" gradientUnits="userSpaceOnUse"><stop offset="0" stop-color="#f4a940"/><stop offset="0.09" stop-color="#e6a03c"/><stop offset="0.27" stop-color="#c38733"/><stop offset="0.51" stop-color="#895f24"/><stop offset="0.8" stop-color="#39280f"/><stop offset="1"/></radialGradient><radialGradient id="_21_2-2" cx="291.54" cy="365.09" r="118.75" gradientTransform="translate(343.55 -99.21) rotate(45)" xlink:href="#_21_2"/><radialGradient id="_21_2-3" cx="118.75" cy="166.73" r="118.75" gradientTransform="translate(152.68 -35.14) rotate(45)" xlink:href="#_21_2"/><linearGradient id="_27_2" x1="479.03" y1="474.04" x2="540.39" y2="392.23" gradientUnits="userSpaceOnUse"><stop offset="0" stop-color="#fff"/><stop offset="0.44" stop-color="#ed8a1d"/><stop offset="1" stop-color="#b41e2d"/></linearGradient><linearGradient id="_941" x1="3907.12" y1="-4856.86" x2="3907.12" y2="-4968.27" gradientTransform="matrix(0.02, 1.03, -1, 0.02, -4435.96, -3542.76)" gradientUnits="userSpaceOnUse"><stop offset="0" stop-color="#ca6b34"/><stop offset="1" stop-color="#ffbd2b"/></linearGradient><linearGradient id="_20_2" x1="3906.99" y1="-4860.46" x2="3906.99" y2="-4940.79" gradientTransform="matrix(0.02, 1.03, -1, 0.02, -4435.96, -3542.76)" gradientUnits="userSpaceOnUse"><stop offset="0" stop-color="#f08d1d"/><stop offset="1" stop-color="#8d2c1b"/></linearGradient><linearGradient id="_963" x1="3906.8" y1="-4854.85" x2="3906.8" y2="-4912.45" gradientTransform="matrix(0.02, 1.03, -1, 0.02, -4435.96, -3542.76)" gradientUnits="userSpaceOnUse"><stop offset="0" stop-color="#f08d1d"/><stop offset="0.21" stop-color="#d4721c"/><stop offset="0.56" stop-color="#ae4c1c"/><stop offset="0.83" stop-color="#96351b"/><stop offset="1" stop-color="#8d2c1b"/></linearGradient><radialGradient id="_508" cx="3906.8" cy="-4921.85" r="42.56" gradientTransform="matrix(0, 1.03, -1, 0, -4361.03, -3636.6)" gradientUnits="userSpaceOnUse"><stop offset="0" stop-color="#d14b4b"/><stop offset="0.17" stop-color="#c84141"/><stop offset="0.44" stop-color="#b02727"/><stop offset="0.73" stop-color="#910606"/><stop offset="0.83" stop-color="#940f0f"/><stop offset="0.99" stop-color="#9d2626"/><stop offset="1" stop-color="#9e2929"/></radialGradient><linearGradient id="_449" x1="3906.8" y1="-4882.03" x2="3906.8" y2="-4932.65" gradientTransform="matrix(0.02, 1.03, -1, 0.02, -4435.96, -3542.76)" gradientUnits="userSpaceOnUse"><stop offset="0" stop-color="#8b2788"/><stop offset="1" stop-color="#fff"/></linearGradient><radialGradient id="_445" cx="3904.74" cy="-4929.86" r="26.53" gradientTransform="matrix(0.02, 1.03, -1, 0.02, -4435.96, -3542.76)" gradientUnits="userSpaceOnUse"><stop offset="0.16" stop-color="#e61c24"/><stop offset="0.24" stop-color="#da1b22"/><stop offset="0.39" stop-color="#ba171d"/><stop offset="0.58" stop-color="#861015"/><stop offset="0.81" stop-color="#3f080a"/><stop offset="1"/></radialGradient><linearGradient id="linear-gradient" x1="3903.35" y1="-4945.05" x2="3925.34" y2="-4945.05" gradientTransform="matrix(0.02, 1.03, -1, 0.02, -4435.96, -3542.76)" gradientUnits="userSpaceOnUse"><stop offset="0" stop-color="#fff"/><stop offset="1" stop-color="#fff7c4"/></linearGradient><linearGradient id="_18_2" x1="3845.93" y1="-4888.37" x2="3968.31" y2="-4888.37" gradientTransform="matrix(0.02, 1.03, -1, 0.02, -4435.96, -3542.76)" gradientUnits="userSpaceOnUse"><stop offset="0" stop-color="#d16509"/><stop offset="1" stop-color="#8d2c1b"/></linearGradient><linearGradient id="_6_2" x1="3937.77" y1="-4955.13" x2="3963.37" y2="-4955.13" gradientTransform="matrix(0.02, 1.03, -1, 0.02, -4435.96, -3542.76)" gradientUnits="userSpaceOnUse"><stop offset="0" stop-color="#ebbd38"/><stop offset="1" stop-color="#fff29e"/></linearGradient><radialGradient id="_479" cx="563.41" cy="367.83" r="97.82" gradientTransform="translate(842.78 -244.28) rotate(81.39)" gradientUnits="userSpaceOnUse"><stop offset="0.09" stop-color="#e84136"/><stop offset="0.15" stop-color="#d73c32"/><stop offset="0.46" stop-color="#7c231d"/><stop offset="0.72" stop-color="#39100d"/><stop offset="0.91" stop-color="#100404"/><stop offset="1"/></radialGradient><linearGradient id="_264" x1="3886.96" y1="-4626.68" x2="3891.34" y2="-4719.48" gradientTransform="translate(-4537.08 -3240.42) rotate(86.61)" gradientUnits="userSpaceOnUse"><stop offset="0" stop-color="#ca6b34"/><stop offset="0.54" stop-color="#ffa933"/><stop offset="0.75" stop-color="#ffad31"/><stop offset="0.94" stop-color="#ffb82d"/><stop offset="1" stop-color="#ffbd2b"/></linearGradient><linearGradient id="_27_2-2" x1="-3684.07" y1="-5010.07" x2="-3725.68" y2="-5049.91" gradientTransform="matrix(1, -0.03, -0.03, -1, 3874.8, -4817.16)" xlink:href="#_27_2"/><linearGradient id="_4" x1="3865.95" y1="-4891.54" x2="3865.95" y2="-4848.11" gradientTransform="translate(-4577.84 -3401.21) rotate(88.87)" gradientUnits="userSpaceOnUse"><stop offset="0" stop-color="#e75a29"/><stop offset="0.67" stop-color="#ffa933"/><stop offset="1" stop-color="#ffbd2b"/></linearGradient><linearGradient id="_180" x1="3875.57" y1="-4866.47" x2="3875.2" y2="-4796.46" gradientTransform="translate(-4573.98 -3411.17) rotate(88.87)" gradientUnits="userSpaceOnUse"><stop offset="0" stop-color="#ffa933"/><stop offset="0.33" stop-color="#ffc35a"/><stop offset="0.78" stop-color="#ffe389"/><stop offset="1" stop-color="#ffef9b"/></linearGradient><linearGradient id="_18_2-2" x1="3847.46" y1="-4873.98" x2="3903.63" y2="-4873.98" gradientTransform="translate(-4573.98 -3411.17) rotate(88.87)" xlink:href="#_18_2"/><linearGradient id="_499" x1="-9342.42" y1="-1094.12" x2="-9335.63" y2="-1103.41" gradientTransform="matrix(-0.03, -0.94, -1.12, 0.04, -1175.68, -8332.86)" gradientUnits="userSpaceOnUse"><stop offset="0" stop-color="#de3c14"/><stop offset="1" stop-color="#db0f0f"/></linearGradient><linearGradient id="_490" x1="-9339.59" y1="-1101.46" x2="-9353.91" y2="-1087.14" gradientTransform="matrix(-0.03, -0.94, -1.12, 0.04, -1175.68, -8332.86)" gradientUnits="userSpaceOnUse"><stop offset="0" stop-color="#b51818"/><stop offset="0.23" stop-color="#bb1a19"/><stop offset="0.55" stop-color="#cd211c"/><stop offset="0.92" stop-color="#eb2c21"/><stop offset="1" stop-color="#f22f22"/></linearGradient><linearGradient id="_490-2" x1="-9335.93" y1="-1099.26" x2="-9355.89" y2="-1113.12" xlink:href="#_490"/><linearGradient id="_490-3" x1="-9329.07" y1="-1094.24" x2="-9323.91" y2="-1088.83" xlink:href="#_490"/><linearGradient id="_490-4" x1="-9322.34" y1="-1112.22" x2="-9335.59" y2="-1101.63" xlink:href="#_490"/><linearGradient id="linear-gradient-2" x1="-3670.93" y1="-5040.19" x2="-3670.87" y2="-5040.19" gradientTransform="matrix(1, -0.03, -0.03, -1, 3874.8, -4817.16)" xlink:href="#linear-gradient"/><linearGradient id="linear-gradient-3" x1="3864.95" y1="-4863.07" x2="3864.95" y2="-4863.1" gradientTransform="translate(-4577.84 -3401.21) rotate(88.87)" xlink:href="#linear-gradient"/><linearGradient id="_3-3" x1="275.7" y1="365.01" x2="365.12" y2="365.01" xlink:href="#_3"/><linearGradient id="_264-2" x1="3868.51" y1="-5091.48" x2="3872.32" y2="-5172.33" gradientTransform="translate(-4558.78 -3364.45) rotate(88.29)" xlink:href="#_264"/><linearGradient id="_27_2-3" x1="-3227" y1="-4985.04" x2="-3263.71" y2="-5020.19" gradientTransform="matrix(1, -0.01, -0.01, -1, 3896.37, -4692.36)" xlink:href="#_27_2"/><linearGradient id="_4-2" x1="3828.3" y1="-5346.18" x2="3828.3" y2="-5308.25" gradientTransform="translate(-4595.85 -3526.42) rotate(90.56)" xlink:href="#_4"/><linearGradient id="_180-2" x1="3837.95" y1="-5324.05" x2="3837.63" y2="-5263.76" gradientTransform="translate(-4591.69 -3536.26) rotate(90.56)" xlink:href="#_180"/><linearGradient id="_18_2-3" x1="3812.82" y1="-5330.38" x2="3863.03" y2="-5330.38" gradientTransform="translate(-4591.69 -3536.26) rotate(90.56)" xlink:href="#_18_2"/><linearGradient id="_499-2" x1="-9309.68" y1="-1502.51" x2="-9303.69" y2="-1510.71" gradientTransform="matrix(0, -0.94, -1.12, 0.01, -1049.14, -8356.42)" xlink:href="#_499"/><linearGradient id="_490-5" x1="-9307.2" y1="-1509.21" x2="-9320.18" y2="-1496.23" gradientTransform="matrix(0, -0.94, -1.12, 0.01, -1049.14, -8356.42)" xlink:href="#_490"/><linearGradient id="_490-6" x1="-9303.92" y1="-1506.73" x2="-9321.92" y2="-1519.23" gradientTransform="matrix(0, -0.94, -1.12, 0.01, -1049.14, -8356.42)" xlink:href="#_490"/><linearGradient id="_490-7" x1="-9297.8" y1="-1502.66" x2="-9293.12" y2="-1497.76" gradientTransform="matrix(0, -0.94, -1.12, 0.01, -1049.14, -8356.42)" xlink:href="#_490"/><linearGradient id="_490-8" x1="-9291.72" y1="-1518.43" x2="-9303.68" y2="-1508.87" gradientTransform="matrix(0, -0.94, -1.12, 0.01, -1049.14, -8356.42)" xlink:href="#_490"/><linearGradient id="linear-gradient-4" x1="-3216" y1="-5011.56" x2="-3215.95" y2="-5011.56" gradientTransform="matrix(1, -0.01, -0.01, -1, 3896.37, -4692.36)" xlink:href="#linear-gradient"/><linearGradient id="linear-gradient-5" x1="3827.41" y1="-5321.4" x2="3827.41" y2="-5321.42" gradientTransform="translate(-4595.85 -3526.42) rotate(90.56)" xlink:href="#linear-gradient"/><linearGradient id="_3-4" x1="752.28" y1="319.08" x2="820.62" y2="319.08" gradientTransform="matrix(1, 0.03, -0.03, 1, -118.63, 8.15)" xlink:href="#_3"/></defs><title>gold_chest</title><g class="cls-1"><g id="Layer_2" data-name="Layer 2"><g id="chests"><path class="cls-2" d="M156.05,539.8S54.78,197.13,74.9,115.74,141.65-10.9,226.69,127.63c99.11,161.47,70.4,425.2,70.4,425.2Z"/><path class="cls-3" d="M639.08,539.11l-342,13.72S309,379.42,271.49,241.64,166.34,49.9,141.65,40.76c0,0,161.84,28.35,260.6,35.67s225.86-4.58,266.09-12.81C668.34,63.62,717.72,317.83,639.08,539.11Z"/><path class="cls-4" d="M312.41,144.78s245.52,12.34,303.12,10.28l4.81,4.8L301,147.52Z"/><path class="cls-4" d="M310.35,244.9c121.39,6.86,325.76,0,325.76,0l-7.55,6.86s-235.23-4.11-343.58,0Z"/><path class="cls-4" d="M356.53,503.45s151.93-1.92,272.72-14.4c2-.21-3.4,7.2-3.4,7.2s-282.58,12.68-280.52,12.68S356.53,503.45,356.53,503.45Z"/><path class="cls-5" d="M404,151.5s86.06,7.68,115.55,10.08,77.83-2.6,77.83-2.6Z"/><path class="cls-6" d="M391.28,250,572,251s-63.1,2.53-107.33,3.55S391.28,250,391.28,250Z"/><path class="cls-7" d="M388.3,507l155.2-7s-75,9.67-111.3,9S388.3,507,388.3,507Z"/><path class="cls-8" d="M353.79,113.92C369,128,409.56,139.06,438.37,140S560.85,107,551,93.8s-114-5.94-163.37-11S324.07,86.48,353.79,113.92Z"/><path class="cls-9" d="M380.3,162.23c-12.9,14.69,8.69,72.39,16.46,73.3s101.5-62.64,80.47-68.58S391.28,149.74,380.3,162.23Z"/><path class="cls-4" d="M574.38,155c0-6.15-5.55-19.16-14.57-18.49S540.09,155,540.09,155Z"/><path class="cls-4" d="M388.3,502.81c-10.33-1.53,11.48-13.08,19.4-9.65a36.14,36.14,0,0,1,12.37,8.74A98.84,98.84,0,0,1,388.3,502.81Z"/><path class="cls-10" d="M377.48,537.74C375.37,395.09,482,443,541.93,447.13s43.85,75.39,35.75,86.43S377.69,552.12,377.48,537.74Z"/><path class="cls-11" d="M297.09,28.88S213.88-1.67,88.61.53c0,0,108.81,35.52,153.62,160S295,548,295,548l82.51-10.3s13.52-140.86,0-283.92C363.79,108.43,297.09,28.88,297.09,28.88Z"/><path class="cls-12" d="M523,38.75S639.08,22.48,715.89,25.22c0,0,47.55,37.49,50.29,164.59s-97.38,333.3-97.38,333.3l-68,4.68s53.35-133.32,43.8-281.29C632.68,61.79,523,38.75,523,38.75Z"/><path class="cls-13" d="M169.08,122.15c-53.49-6.18-35.66,87.09-27.43,134.41s63.78,296.27,63.78,296.27H173.2S120.39,355.32,100.5,249,90.21,102.94,114.21,92.66,169.08,122.15,169.08,122.15Z"/><path class="cls-14" d="M253.34,543.77l7.79-5.46-.35-3.33c-1.16-10.77-5.37-47.35-14.77-105.63q-3.93-24.45-9.15-53.93c-.64-3.7-1.33-7.47-2-11.3q-4-22.32-8.85-47.21c-.91-4.65-1.81-9.22-2.73-13.7-.22-1-.43-2-.63-3l-.73-3.44c-29.28-137.53-70-193.16-100.15-193.16-28.81,0-27,73.21-5.52,186.77.4,2.1.81,4.24,1.24,6.39.11.59.22,1.18.34,1.77,3.66,18.57,8.16,39,13,59.76l2.34,9.94c4.35,18.27,8.92,36.65,13.39,54.18,13.74,53.92,26.57,99.73,29.22,109.1l.49,1.75,23.49,5-53.32-5.48c-.8-2.12-1.58-4.26-2.36-6.4l-.24-.63c-12.52-34.17-24.35-69.9-35.16-106-5.41-18.07-10.56-36.23-15.41-54.3Q92,360.8,90.8,356.08c-5.24-20-10.08-39.84-14.47-59.36-.08-.31-.15-.63-.22-.93l-.44-2C41.47,140.47,35.44,8.39,88.61.53,148.34-8.29,244.06,94.71,271.5,241.64c3.48,18.68,6.46,38.46,9,58.59.14,1,.26,2.09.4,3.13,2.45,20,4.48,40.28,6.16,60.23q.48,5.7.91,11.33c1.46,18.47,2.6,36.51,3.5,53.53a.52.52,0,0,1,0,.18c3,56.43,3.44,101.76,3.49,115.28,0,2.7,0,4.13,0,4.13Z"/><path class="cls-15" d="M523,38.75c-26.59,0-47.55,39.94-47.55,39.94s40.2-.23,55.29-.91c0,0,54.28,2.53,80,118.89,26.52,119.78-27,328.72-27,328.72l17,2.4s50.84-112.37,50.84-274.74C651.63,129.69,581.93,38.75,523,38.75Z"/><polygon class="cls-16" points="74.91 351.85 78.08 365.6 252.88 380.95 757.49 356 760.92 336.8 243.83 349.46 74.91 351.85"/><path class="cls-17" d="M779.89,290.4l-13.66,52.48L287,363.59l-5.39.23-29.36,1.28-17.44-1-104-5.8-40-2.24-26-1.45c-9.6-27.2-9.6-58.84-9.6-58.84l21.09.93,41.49,1.84,105.45,4.65,23.48,1,34.13-.89Z"/><path class="cls-18" d="M764.84,353.93,750,401.81,291.45,428.45,259.6,430.3,246,429.35l-99.44-6.91-37.88-2.63-20.08-1.4a400.54,400.54,0,0,1-23.77-54.86l28.44,2,39.9,2.75,103.68,7.16,15.41,1.06L288,374.92Z"/><polygon class="cls-19" points="246.76 304.25 252.29 365.09 764.91 347.95 779.89 290.39 246.76 304.25"/><path class="cls-20" d="M259.6,430.3l-7.34-53.82,512.59-22.55L750,401.81S264.09,430.61,259.6,430.3Z"/><polygon class="cls-21" points="64.84 363.55 76.53 358.88 77.06 361.21 265.09 368 758.58 349.9 758.93 347.95 764.85 353.93 252.26 376.48 64.84 363.55"/><polygon class="cls-22" points="730.06 527.79 698.51 603.12 300.96 630.55 123.36 604.95 103.93 525.39 140.28 516.26 143.85 525.78 144.09 526.41 175.79 531.54 199.86 527.79 260.78 534.98 261.13 538.31 294.92 543.91 294.96 543.91 377.48 537.74 377.93 532.6 583.75 525.39 600.79 527.79 668.79 523.1 673.88 512.31 730.06 527.79"/><path class="cls-23" d="M730.06,527.79s-57.15,20.47-180.6,25-248.5-.16-248.5-.16c-154.51-19.86-197-27.28-197-27.28l36.34-9.13,3.82,10.15,31,5a5.45,5.45,0,0,0,1.71,0l23.07-3.64L260.78,535l.35,3.33,33.79,5.6,82.56-6.17.45-5.14,205.83-7.21,17,2.4,68-4.68,5.08-10.81Z"/><path class="cls-24" d="M301,552.67v77.88l397.55-27.43,31.55-75.33s-83.66,13.55-201.62,21.56C442.19,555.22,301,552.67,301,552.67Z"/><polygon class="cls-25" points="779.89 290.4 280.88 303.36 246.75 304.25 223.27 303.21 117.82 298.56 76.33 296.72 55.24 295.79 75.67 293.81 76.11 295.79 117.48 296.79 149.3 295.31 221.91 296.79 222.64 300.23 280.48 300.23 380.81 297.02 380.62 293.81 618.03 286.28 650.74 290.4 754.28 286.28 754.97 283.28 779.89 290.4"/><path class="cls-26" d="M356.53,552.83s23.77-5,104.24-8.68,244.1-12.67,244.1-12.67-28,16.56-141.35,23.34C472.15,560.28,356.53,552.83,356.53,552.83Z"/><path class="cls-27" d="M475.4,78.69S493,42.52,523,38.75,612.89,81.19,634.67,151.5s16.07,138.9,16.07,138.9h-32.8l-43.56-9.77s-5.07-56.05-22.66-116.15S487.5,77.91,487.5,77.91Z"/><path class="cls-28" d="M412.64,292.8V267.53s102.87-11,168.32,2.19c0,0,40.74,15.41,44.17,27.07s-6.31,143.41-12.34,149c-10.92,10.22-43.21,26.75-43.21,26.75l-154,5.48L407.7,422l24-.8s3.8-32,6.54-56.06l.32-7.72s.68-36.34-4.12-56.92Z"/><path class="cls-29" d="M485.46,307.31C484,322.66,479.74,432.13,479.74,439s121.82,12.33,130.74,7.53,17.27-136.74,7.08-144.3C612.08,298.14,486,301.42,485.46,307.31Z"/><path class="cls-30" d="M496.89,397.66c-9.79-.23-13.14-79.63-4.57-86.69s123.46-12.3,125.05-4.32S624,406.07,613,407.89s-33.19-22.4-35.34-28.8S559.37,348.82,551,348,527.52,398.41,496.89,397.66Z"/><path class="cls-31" d="M412.64,267.53s9.84,8.82,62.35,26.23c7.43,2.47,145,6.4,145.34,3,.72-6.4-32-26-39.37-27.07C513.33,260,447,262.65,412.64,267.53Z"/><path class="cls-32" d="M461,454.88a281.68,281.68,0,0,0-45.5,23.19l154-5.48s32.26-16.13,31.8-19.9S484.14,445.77,461,454.88Z"/><path class="cls-16" d="M520.21,418.14c7.25,2.52,32.48,10,56.11,1a2.15,2.15,0,0,0,1.27-2.62l-15.87-52.83a7,7,0,0,1,1.45-6.09A18.29,18.29,0,1,0,530.7,346c0,3.34,2.26,7.46,4.31,10.5a12.82,12.82,0,0,1,1.76,10.31l-17.88,48.52A2.14,2.14,0,0,0,520.21,418.14Z"/><path class="cls-33" d="M576.32,419.14c-11,4.18-22.36,4.8-32.08,4a67.58,67.58,0,0,0,17.92-4,2.15,2.15,0,0,0,1.27-2.62l-15.87-52.84a6.9,6.9,0,0,1,1.45-6.07,18.3,18.3,0,0,0-7.08-28.45,18.3,18.3,0,0,1,21.25,28.45,6.94,6.94,0,0,0-1.47,6.07l15.88,52.84A2.15,2.15,0,0,1,576.32,419.14Z"/><path class="cls-34" d="M594.27,86.94c2.63,15.57,11.43,46.66,20.35,48.46,4.75,1,6.1-.74,8.74-4.3,7.29-9.82,6.29-32.08-1.25-39.13S591.56,70.83,594.27,86.94Z"/><path class="cls-35" d="M605.93,110.73c-8.58,2.5,3,25,9.83,25.76S627.39,104.49,605.93,110.73Z"/><path class="cls-36" d="M600.79,527.79s30.52-81.34,35.32-119.36h-16.8s-2.41,28.5-6.52,37.41c0,0-91.93,6-125.29,2.49-10.5-1.12-7.72-18.16-5.87-61.45s-2-91.57-6.64-93.12-62.35-26.23-62.35-26.23L380.4,290.39l.21,3.42L407.7,293l7.84,7.44s6.72,35.54,4.66,59.08l-17.38.58V363l17.25,6.14s-.64,33.27-5.23,52.19L382,423.44l-1.63,69.09s77.43-8.28,167.82-8.28c3.53,0,2,27,2.77,42.29l32.77-1.15Z"/><path class="cls-37" d="M301,552.67v77.88L123.36,605l-19.43-79.56,36.34-9.13,3.58,9.52c-12.52-34.17-24.35-69.9-35.16-106l-20.08-1.4a400.54,400.54,0,0,1-23.77-54.86l11.68-4.67c-.83-3.14,0-.5-.83-3.64l-10.85-.61c-9.6-27.2-9.6-58.84-9.6-58.84l20.43-2C41.47,140.47,35.44,8.39,88.61.53,148.34-8.29,244.06,94.71,271.5,241.64c3.48,18.68,6.46,38.46,9,58.59l-33.73,4,5.54,60.85,138.51-4.64L365,364.67,252.27,376.48l7.33,53.82,31.87-1.67,3.45,115.28-41.58-.14Z"/><path class="cls-38" d="M148.58,430.3c22.28.23,36.27,25.83,36.27,25.83S218.65,457.51,255,489l-9-59.69-68-4.43-31.42-2.48-37.88-2.63,1.93,6.4Z"/><path class="cls-39" d="M121.76,103.63C100,102.26,94.15,155,105.64,227.41c0,0,10-19.54,27.09-25.71,0,0,29.32,5.1,53.87,27.43,15,13.61,27.52,34,27.52,34s-20.38-76.79-42-114.51S131.68,104.25,121.76,103.63Z"/><path class="cls-35" d="M246.75,304.25c-4.06,5.8-6.81,24.09-4.52,32.55s9.82,25.67,9.82,25.67.65-24.53.21-32.76S246.75,304.25,246.75,304.25Z"/><path class="cls-35" d="M252.27,376.48c6.42,8.1,8.25,20.9,9.62,25s-2.29,28.81-2.29,28.81S250,403.91,250,400,252.27,376.48,252.27,376.48Z"/><path class="cls-35" d="M291.88,442.61c-3.47,18.78-9.42,44.94-6.9,49.92s9.94,51.38,9.94,51.38,6.63-36.61,3.95-50.65S291.88,442.61,291.88,442.61Z"/><path class="cls-34" d="M227.08,115.37c-12.64.35,10.89,94.1,14.32,96.84s18.43,6.18,23.23,1.37,7.14-44.11,5-51.35C262.2,136.52,240.68,115,227.08,115.37Z"/><path class="cls-35" d="M252.46,183.37c-13.87-19.41-20.8-20.57-20.29-10s8.26,39,11.44,40.09,13.2,3.42,15.54-2.14S257.65,190.65,252.46,183.37Z"/><path class="cls-40" d="M445.67,367.16c-2.84,6.41-13.86,85.93-10.66,89.2s37.25-15.9,39.54-20.22,3.12-52.46-2.36-63.27S448.39,361,445.67,367.16Z"/><path class="cls-41" d="M239.37,339.54c5.14,6.19,10,22.88,7.39,22.93s-61.57-1.4-62.25-3.59S233.5,332.47,239.37,339.54Z"/><path class="cls-40" d="M289.32,560.42c-30.39-8.87-168.7-34.7-173.73-26.86s-3.24,61.55,14.17,68.19,132.18,16.4,136.7,15.59C289.32,613.22,295.4,562.2,289.32,560.42Z"/><path class="cls-40" d="M74.9,12.42C40.31,42.06,51.42,144.78,72.25,140c6.69-1.53,27.79-36.92,44.25-39.33s36.58,2.94,51.66,2.94,26.54-17.78,4-50.09S97.32-6.78,74.9,12.42Z"/><path class="cls-26" d="M629.69,359.88c50.4,12.17,131.23-5.95,131.23-5.95s-35,.8-53.15.57S629.69,359.88,629.69,359.88Z"/><path class="cls-26" d="M280.88,303.36c31.76,9,126.82-3.29,126.82-3.29s-23.54-1.76-69.36,0S280.88,303.36,280.88,303.36Z"/><path class="cls-30" d="M559.81,43.28c12.92,10.47,49,35.85,55.73,38.19,53.48,18.73,137.84,18.73,131,5.7S728,35.73,701.94,33,550.64,35.85,559.81,43.28Z"/><path class="cls-42" d="M629.69,463.51c-5.59,8.39-16,53.79-9.78,55.17s74.59-52.11,73.91-67.89S637.45,451.85,629.69,463.51Z"/><path class="cls-43" d="M720.47,196.06c-12.16,13.51-8.23,25.53,0,25.53s30.16-28.65,28.79-30.79S729.64,185.86,720.47,196.06Z"/><path class="cls-30" d="M163.59,6.13c-21.44.36,56.09,84.47,82.3,92S323,109.87,322.7,91.28c-.5-27-18.14-58.85-43.51-66.37S178.21,5.89,163.59,6.13Z"/><path class="cls-43" d="M280.88,155c-6.08,19.73,5.58,131.48,14.1,135.36s70.24,4,70.24-9.78S286.38,137.18,280.88,155Z"/><path class="cls-43" d="M312.41,155c0,7.78,18.94,56.94,25.93,56.94s17.26-53.54,6-56.94S312.36,146.45,312.41,155Z"/><path class="cls-44" d="M377.93,532.6c45.35-13.61,205.83-7.21,205.83-7.21s-37.35,8.69-106,10.52S377.93,532.6,377.93,532.6Z"/><path class="cls-30" d="M301,630.55c38.2-21.95,211.47-72,306.11-73.73s91.44,46.3,91.44,46.3Z"/><path class="cls-45" d="M214.12,363.41c1.63-.29,36.3-9.65,38.12-9.48,14.91,1.38,49.73,7.36,57.88,8.93.79.15-55.68,2.24-57.83,2.24C238.34,365.09,212.85,363.64,214.12,363.41Z"/><path class="cls-26" d="M778.23,296.79c-.9.6-97.75-1.35-98.23-3.8-.16-.82,99.89-4.47,99.89-2.59C779.89,293.14,779,296.25,778.23,296.79Z"/><path class="cls-26" d="M252.27,376.48c2.72,4.47,8.82,19.6,9.93,21.18,2.87,4.13,104.56-25.57,97.29-25.9S249.91,372.63,252.27,376.48Z"/><path class="cls-46" d="M715.19,413.12a757.9,757.9,0,0,1-85.5,24.42s-10.2,8.89-32.41,26a94.39,94.39,0,0,1-2.9,14.56s-169.27,7.55-212.7,6.18l.1-50.3s-40.67,4.66-89.42,12.62c0,0-27.63,5.65-42.77,6.58l-2.11-10.54-6.08-13.56,190.34-7.9s-14.86,12.8-20.35,24.69l4.15,32.23,154-5.48s37.95-18.52,43.21-26.75,6.52-37.41,6.52-37.41l99.37-4.77Z"/><path class="cls-30" d="M760.92,223c-5.43-9.56-110,31.83-107.8,40.23s-4.71,26.61,2.87,26.63,86.68-1.93,93.33-6.59S766.41,232.66,760.92,223Z"/><path class="cls-42" d="M641.94,298.1c-8.94,4.84-20.05,49.62-12.25,50.68S744.46,346.4,751,342.63s15.58-43,8.23-44.53S653.25,292,641.94,298.1Z"/><path class="cls-41" d="M64.84,303c-6.68,16.43-5.49,36.51,0,35.28s46.74-31.11,35-34S67.42,296.6,64.84,303Z"/><path class="cls-42" d="M315.84,563.34c-22,11.85-9.43,49.62,11.43,44.81C415.54,587.8,347.25,546.42,315.84,563.34Z"/><path class="cls-41" d="M126.56,438.07c.51,12.09,14.46,69.18,18.29,74.24,3.35,4.44,19.35,8.73,19.43,4.85C164.43,509.39,126.09,427,126.56,438.07Z"/><path class="cls-41" d="M225.31,235.54c-12.64,12.3-5.48,54.74,4.58,58.23s39.95,11.25,40.55-6.12S258.69,203.09,225.31,235.54Z"/><path class="cls-47" d="M756.49,107.59c-1.7-5.85-126.8,7.77-126.8,7.77l-4.87,12.11s13.82,28.68,17.7,50.08c0,0,1.83-12.56,8.9-15.32,7.58-3,98.22-7.51,106.07-7.19s7.35,11.69,7.35,11.69S764.21,134.12,756.49,107.59Z"/><path class="cls-47" d="M218.55,100.49C238,107.11,345.32,117,345.32,117c1.16,3,8.44,23.21,8.44,23.21s-69.74-11-101.5-9.39c0,0-15.19-16-25.18-15.4Z"/><circle class="cls-48" cx="731.04" cy="127.26" r="118.75" transform="translate(124.13 554.19) rotate(-45)"/><circle class="cls-49" cx="291.54" cy="365.09" r="118.75" transform="translate(-172.77 313.08) rotate(-45)"/><circle class="cls-50" cx="118.75" cy="166.73" r="118.75" transform="translate(-83.11 132.81) rotate(-45)"/><path class="cls-51" d="M513.33,326.59c-37,25.56-39,88.58-21.54,109.55C507.41,454.91,610.1,457.26,612.18,384S540.42,307.9,513.33,326.59Z"/><path class="cls-52" d="M587.41,316.65c-41.57-24.27-84.67,5.56-90.73,45s30.38,84.4,79.79,68.44S623.93,338,587.41,316.65Z"/><path class="cls-53" d="M598.63,342.65c-11.38-21.62-48.7-29.31-71.36-9.83s-24.54,64.13,8.09,81.56C570.51,433.16,627.13,396.77,598.63,342.65Z"/><path class="cls-54" d="M560,415.16c-24.18.46-44.15-19.27-44.62-44.06s18.75-45.26,42.92-45.71,44.14,19.27,44.61,44.06S584.13,414.7,560,415.16Z"/><ellipse class="cls-55" cx="560.71" cy="370.24" rx="42.56" ry="43.65" transform="translate(-6.9 10.68) rotate(-1.08)"/><path class="cls-56" d="M561.54,413.89c-23.51.44-42.93-18.74-43.38-42.84s18.22-44,41.72-44.45a41.79,41.79,0,0,1,29.69,11.6,36,36,0,0,0-20-5.55c-19.81.38-35.57,16.49-35.2,36s16.72,35,36.53,34.61a36,36,0,0,0,28.44-14.69A42.45,42.45,0,0,1,561.54,413.89Z"/><path class="cls-57" d="M569.19,395.19c-14.65.27-26.75-11.68-27-26.7s11.36-27.43,26-27.71,26.75,11.68,27,26.7S583.84,394.91,569.19,395.19Z"/><path class="cls-58" d="M582.94,366.3c-4.53-.43-9.53,12.7-9.45,16.64,0,0,8.18,8.43,15.8,5.07,0,0,7.14-9.59,4.89-18.06A29,29,0,0,0,582.94,366.3Z"/><path class="cls-59" d="M496.68,361.68c4.57-29.78,30.24-54.08,60.43-53.78-34.4,4.88-64,31.2-51.17,82.4,1.56,6.25,18,40.81,53.68,43C519.07,435.58,491.33,396.5,496.68,361.68Z"/><path class="cls-60" d="M582.25,427.87c-5.14-2.09,20.31-29.92,25.82-26.42v0C602.89,412.78,594.39,422.33,582.25,427.87Z"/><circle class="cls-61" cx="563.41" cy="367.83" r="97.82" transform="translate(115.41 869.84) rotate(-81.39)"/><path class="cls-62" d="M365.12,413.27c-23.6-10.81-53.39-46.09-53.39-46.09s27.49-37.68,50.44-50.43c22.48,12.88,45.53,46,45.53,46S386.72,398.71,365.12,413.27Z"/><path class="cls-63" d="M362.16,316.74c-23,12.77-50.43,50.43-50.43,50.43l18.11,1.18A205.55,205.55,0,0,1,362,329.12,72.13,72.13,0,0,0,362.16,316.74Z"/><path class="cls-64" d="M329.84,368.35S345.49,339.1,362,329.12c0,0,17.12,8,39.55,34.17,0,0-15.3,28.26-36.63,42.84C364.91,406.13,351.51,394.84,329.84,368.35Z"/><path class="cls-65" d="M361.94,339.28a82.94,82.94,0,0,0-26.3,30.05,96.33,96.33,0,0,0,28,26.1C376.76,383.84,389,366.26,389,366.26,378,353.45,361.94,339.28,361.94,339.28Z"/><path class="cls-66" d="M361.94,339.28l1.69,56.15c10.82-9.17,25.37-29.17,25.37-29.17C378,353.45,361.94,339.28,361.94,339.28Z"/><polygon class="cls-67" points="363.33 378.45 373.17 367.51 362.65 356.33 352.81 367.83 363.33 378.45"/><polygon class="cls-68" points="363.72 391.35 363.33 378.45 352.81 367.83 340.6 368.35 363.72 391.35"/><polygon class="cls-69" points="384.48 367.01 373.17 367.51 363.33 378.45 363.72 391.35 384.48 367.01"/><polygon class="cls-70" points="362.65 356.33 352.81 367.83 340.6 368.35 362.25 343.39 362.65 356.33"/><polygon class="cls-71" points="384.48 367.01 373.17 367.51 362.65 356.33 362.25 343.39 384.48 367.01"/><path class="cls-72" d="M383.49,339.28c1.94-3.17,15.08,12.48,14.51,16.59C397.77,357.5,382.19,341.41,383.49,339.28Z"/><path class="cls-73" d="M367.9,367.47c2.4-5.35-1.68-4.57-4.18-3.08s-3.13,7.55,2.9,4.5Z"/><path class="cls-74" d="M362.17,316.75c-23.87,4.39-80.52,47.07-80.52,47.07l-5.95,3.84s55.3,37.56,89.42,45.61l-.21-7.14s-24.4-21.77-35.07-37.78c0,0,10.75-23.32,32.15-39.23Z"/><path class="cls-75" d="M691,394.35c-20.28-10.28-45.32-42.58-45.32-42.58s24.92-32.94,45.23-43.74c19.26,12.1,38.47,42.31,38.47,42.31S710.19,381.9,691,394.35Z"/><path class="cls-76" d="M690.92,308c-20.32,10.8-45.23,43.74-45.23,43.74l15.6,1.81a187,187,0,0,1,29.16-34.5A65.61,65.61,0,0,0,690.92,308Z"/><path class="cls-77" d="M661.29,353.58s14.53-26,29.16-34.5c0,0,14.71,7.61,33.57,31.56,0,0-14.06,24.85-33,37.32C691,388,679.48,377.81,661.29,353.58Z"/><path class="cls-78" d="M690.15,328.16A70.3,70.3,0,0,0,667,353.26a102.91,102.91,0,0,0,23.15,25.11C701.9,368.35,713,353,713,353,703.75,341.24,690.15,328.16,690.15,328.16Z"/><path class="cls-79" d="M690.15,328.16l0,50.21C699.83,370.46,713,353,713,353,703.75,341.24,690.15,328.16,690.15,328.16Z"/><polygon class="cls-80" points="690.34 363.19 699.2 353.67 690.32 343.41 681.46 353.43 690.34 363.19"/><polygon class="cls-81" points="690.35 374.73 690.34 363.19 681.46 353.43 670.8 353.58 690.35 374.73"/><polygon class="cls-82" points="709.06 353.53 699.2 353.67 690.34 363.19 690.35 374.73 709.06 353.53"/><polygon class="cls-83" points="690.32 343.41 681.46 353.43 670.8 353.58 690.31 331.84 690.32 343.41"/><polygon class="cls-84" points="709.06 353.53 699.2 353.67 690.32 343.41 690.31 331.84 709.06 353.53"/><path class="cls-85" d="M708.92,328.72c1.76-2.78,12.81,11.54,12.2,15.21C720.88,345.38,707.73,330.59,708.92,328.72Z"/><path class="cls-86" d="M694.61,353.5c2.23-4.72-1.34-4.13-3.56-2.86s-2.92,6.66,2.41,4.1Z"/><path class="cls-87" d="M690.92,308C655.46,321.64,624.24,349,624.24,349l-.49,7.6s37.74,29.69,67.26,37.78V388s-20.83-19.8-29.71-34.38c0,0,10.12-20.84,29.16-34.5Z"/></g></g></g></svg>