<svg xmlns="http://www.w3.org/2000/svg" xmlns:xlink="http://www.w3.org/1999/xlink" viewBox="0 0 785.51 630.55"><defs><style>.cls-1{isolation:isolate;}.cls-2{fill:#7c1338;}.cls-3{fill:url(#_7_2);}.cls-4,.cls-5,.cls-6{opacity:0.46;}.cls-4{fill:url(#_24_2);}.cls-5{fill:url(#_24_2-2);}.cls-6{fill:url(#_24_2-3);}.cls-33,.cls-34,.cls-40,.cls-7,.cls-8{opacity:0.3;}.cls-23,.cls-7,.cls-8{mix-blend-mode:screen;}.cls-7{fill:url(#_24_2-4);}.cls-8{fill:url(#_24_2-5);}.cls-20,.cls-22,.cls-24,.cls-27,.cls-28,.cls-32,.cls-36,.cls-9{opacity:0.5;}.cls-22,.cls-32,.cls-34,.cls-35,.cls-39,.cls-43,.cls-45,.cls-9{mix-blend-mode:soft-light;}.cls-9{fill:url(#_140);}.cls-10{fill:url(#_204);}.cls-11{fill:url(#_204-2);}.cls-12{fill:#675775;}.cls-13,.cls-33{fill:#51385b;}.cls-14{fill:url(#_64);}.cls-15{fill:url(#_204-3);}.cls-16{fill:url(#_204-4);}.cls-17{fill:#dacfe6;}.cls-18{fill:url(#_204-5);}.cls-19{fill:#bbabc9;}.cls-20,.cls-24,.cls-27,.cls-28,.cls-29,.cls-30,.cls-36,.cls-38,.cls-40{mix-blend-mode:multiply;}.cls-20{fill:url(#_105);}.cls-21{opacity:0.7;fill:url(#_2_2);}.cls-22{fill:#594275;}.cls-23{fill:#776191;opacity:0.31;}.cls-24{fill:url(#_20);}.cls-25{fill:url(#_64-2);}.cls-26{fill:url(#_64-3);}.cls-27{fill:url(#_105-2);}.cls-28{fill:url(#_105-3);}.cls-29,.cls-30,.cls-38,.cls-46{opacity:0.8;}.cls-29{fill:url(#_105-4);}.cls-30{fill:url(#_105-5);}.cls-31{fill:url(#_64-4);}.cls-32{fill:#25425c;}.cls-34,.cls-35,.cls-43,.cls-45{fill:#d2fff1;}.cls-35{opacity:0.1;}.cls-36{fill:url(#_105-6);}.cls-37{fill:#423152;}.cls-38{fill:url(#_105-7);}.cls-39{fill:#95a8cf;opacity:0.9;}.cls-40{fill:#3e2952;}.cls-41{fill:#3a2542;}.cls-42,.cls-44{fill:#b3a8bd;}.cls-42{opacity:0.84;}.cls-43{opacity:0.6;}.cls-44{opacity:0.48;}.cls-45{opacity:0.41;}.cls-46{mix-blend-mode:color-dodge;fill:url(#_1103);}</style><linearGradient id="_7_2" x1="418.26" y1="61.33" x2="418.26" y2="593.27" gradientUnits="userSpaceOnUse"><stop offset="0.02" stop-color="#cd6d22"/><stop offset="0.95" stop-color="#c74d3e"/></linearGradient><radialGradient id="_24_2" cx="506.28" cy="156.87" r="68.48" gradientUnits="userSpaceOnUse"><stop offset="0.02" stop-color="#ffa41a"/><stop offset="1" stop-color="#ff8836"/></radialGradient><radialGradient id="_24_2-2" cx="487.25" cy="252.31" r="63.91" xlink:href="#_24_2"/><radialGradient id="_24_2-3" cx="471.52" cy="504.46" r="54.96" xlink:href="#_24_2"/><radialGradient id="_24_2-4" cx="450.64" cy="110.73" r="78.23" xlink:href="#_24_2"/><radialGradient id="_24_2-5" cx="433.91" cy="196.06" r="46.17" xlink:href="#_24_2"/><linearGradient id="_140" x1="459.51" y1="520.65" x2="539.98" y2="459.38" gradientUnits="userSpaceOnUse"><stop offset="0" stop-color="#36193b"/><stop offset="1" stop-color="#8e37e2"/></linearGradient><radialGradient id="_204" cx="241.67" cy="274.23" r="219.9" gradientUnits="userSpaceOnUse"><stop offset="0" stop-color="#6c6178"/><stop offset="1" stop-color="#9e84b5"/></radialGradient><radialGradient id="_204-2" cx="650.21" cy="276.35" r="197.51" xlink:href="#_204"/><linearGradient id="_64" x1="80.52" y1="358.88" x2="766.54" y2="358.88" gradientUnits="userSpaceOnUse"><stop offset="0" stop-color="#1f111f"/><stop offset="0.62" stop-color="#2d1c2f"/><stop offset="1" stop-color="#38253b"/></linearGradient><radialGradient id="_204-3" cx="518.94" cy="327.74" r="190.33" xlink:href="#_204"/><radialGradient id="_204-4" cx="514.17" cy="392.11" r="183.23" xlink:href="#_204"/><radialGradient id="_204-5" cx="521.12" cy="579.17" r="156" xlink:href="#_204"/><linearGradient id="_105" x1="569.02" y1="47.25" x2="569.02" y2="404.08" gradientUnits="userSpaceOnUse"><stop offset="0" stop-color="#662d87"/><stop offset="1" stop-color="#d01c5c"/></linearGradient><linearGradient id="_2_2" x1="485.36" y1="374.37" x2="627.86" y2="374.37" gradientUnits="userSpaceOnUse"><stop offset="0" stop-color="#a3849f"/><stop offset="1" stop-color="#9a95a5"/></linearGradient><linearGradient id="_20" x1="514.08" y1="449.96" x2="514.08" y2="491.22" gradientUnits="userSpaceOnUse"><stop offset="0" stop-color="#705ab6"/><stop offset="1" stop-color="#fff"/></linearGradient><linearGradient id="_64-2" x1="553.84" y1="331.05" x2="553.84" y2="466.64" xlink:href="#_64"/><linearGradient id="_64-3" x1="599.67" y1="107.59" x2="633.95" y2="107.59" xlink:href="#_64"/><linearGradient id="_105-2" x1="513.87" y1="276.53" x2="513.87" y2="645.28" xlink:href="#_105"/><linearGradient id="_105-3" x1="54.94" y1="315.28" x2="396.42" y2="315.28" xlink:href="#_105"/><linearGradient id="_105-4" x1="114.3" y1="454.43" x2="260.61" y2="454.43" xlink:href="#_105"/><linearGradient id="_105-5" x1="105.48" y1="183.37" x2="219.74" y2="183.37" xlink:href="#_105"/><linearGradient id="_64-4" x1="228.99" y1="165.67" x2="276.06" y2="165.67" xlink:href="#_64"/><linearGradient id="_105-6" x1="383.55" y1="530.1" x2="589.37" y2="530.1" xlink:href="#_105"/><linearGradient id="_105-7" x1="485.66" y1="428.01" x2="485.66" y2="494.2" xlink:href="#_105"/><radialGradient id="_1103" cx="118.75" cy="159.86" r="118.75" gradientTransform="translate(147.82 -37.15) rotate(45)" gradientUnits="userSpaceOnUse"><stop offset="0" stop-color="#705ab5"/><stop offset="0.14" stop-color="#5c4a95"/><stop offset="0.44" stop-color="#352a55"/><stop offset="0.69" stop-color="#181327"/><stop offset="0.89" stop-color="#07050b"/><stop offset="1"/></radialGradient></defs><title>iron_chest</title><g class="cls-1"><g id="Layer_2" data-name="Layer 2"><g id="chests"><path class="cls-2" d="M161.66,539.8S60.4,197.13,80.51,115.74,147.26-10.9,232.3,127.63c99.12,161.47,70.41,425.2,70.41,425.2Z"/><path class="cls-3" d="M644.69,539.11l-342,13.72s11.89-173.41-25.6-311.19S172,49.9,147.26,40.76c0,0,161.85,28.35,260.61,35.67S633.72,71.85,674,63.62C674,63.62,723.33,317.83,644.69,539.11Z"/><path class="cls-2" d="M318,144.78s245.51,12.34,303.12,10.28l4.81,4.8L306.57,147.52Z"/><path class="cls-2" d="M316,244.9c121.39,6.86,325.75,0,325.75,0l-7.54,6.86s-235.23-4.11-343.59,0Z"/><path class="cls-2" d="M362.15,503.45s151.93-1.92,272.71-14.4c2-.21-3.4,7.2-3.4,7.2s-282.57,12.68-280.52,12.68S362.15,503.45,362.15,503.45Z"/><path class="cls-4" d="M409.59,151.5s86.06,7.68,115.55,10.08S603,159,603,159Z"/><path class="cls-5" d="M396.89,250l180.71,1s-63.09,2.53-107.33,3.55S396.89,250,396.89,250Z"/><path class="cls-6" d="M393.91,507l155.21-7s-75,9.67-111.31,9S393.91,507,393.91,507Z"/><path class="cls-7" d="M359.4,113.92C374.64,128,415.18,139.06,444,140S566.47,107,556.61,93.8s-114-5.94-163.37-11S329.69,86.48,359.4,113.92Z"/><path class="cls-8" d="M385.92,162.23c-12.91,14.69,8.69,72.39,16.46,73.3s101.5-62.64,80.47-68.58S396.89,149.74,385.92,162.23Z"/><path class="cls-2" d="M580,155c0-6.15-5.55-19.16-14.58-18.49S545.71,155,545.71,155Z"/><path class="cls-2" d="M393.91,502.81c-10.32-1.53,11.49-13.08,19.41-9.65a36.14,36.14,0,0,1,12.37,8.74A98.89,98.89,0,0,1,393.91,502.81Z"/><path class="cls-9" d="M383.09,537.74C381,395.09,487.59,443,547.55,447.13s43.85,75.39,35.75,86.43S383.3,552.12,383.09,537.74Z"/><path class="cls-10" d="M302.71,28.88S219.5-1.67,94.23.53c0,0,108.81,35.52,153.62,160S300.59,548,300.59,548l82.5-10.3s13.53-140.86,0-283.92C369.4,108.43,302.71,28.88,302.71,28.88Z"/><path class="cls-11" d="M528.57,38.75S644.69,22.48,721.5,25.22c0,0,47.55,37.49,50.3,164.59s-97.39,333.3-97.39,333.3l-68,4.68s53.35-133.32,43.81-281.29C638.29,61.79,528.57,38.75,528.57,38.75Z"/><path class="cls-12" d="M174.69,122.15C121.2,116,139,209.24,147.26,256.56S211,552.83,211,552.83H178.82S126,355.32,106.12,249,95.83,102.94,119.83,92.66,174.69,122.15,174.69,122.15Z"/><path class="cls-13" d="M259,543.77l7.79-5.46L266.4,535c-1.17-10.77-5.38-47.35-14.77-105.63q-3.93-24.45-9.15-53.93-1-5.55-2-11.3-4-22.32-8.84-47.21c-.91-4.65-1.81-9.22-2.73-13.7-.22-1-.43-2-.63-3l-.73-3.44c-29.28-137.53-70-193.16-100.16-193.16-28.8,0-27,73.21-5.51,186.77.4,2.1.81,4.24,1.24,6.39.11.59.22,1.18.34,1.77,3.66,18.57,8.16,39,13,59.76l2.34,9.94c4.35,18.27,8.92,36.65,13.39,54.18,13.74,53.92,26.56,99.73,29.21,109.1l.5,1.75,23.49,5-53.33-5.48c-.79-2.12-1.57-4.26-2.36-6.4l-.23-.63c-12.52-34.17-24.36-69.9-35.17-106-5.4-18.07-10.56-36.23-15.4-54.3-.84-3.14-1.66-6.28-2.48-9.43-5.24-20-10.08-39.84-14.47-59.36-.08-.31-.15-.63-.22-.93l-.44-2C47.08,140.47,41.06,8.39,94.22.53,154-8.29,249.68,94.71,277.11,241.64c3.49,18.68,6.46,38.46,9,58.59l.39,3.13c2.46,20,4.49,40.28,6.16,60.23q.5,5.7.92,11.33c1.45,18.47,2.59,36.51,3.5,53.53a1,1,0,0,1,0,.18c3,56.43,3.45,101.76,3.5,115.28,0,2.7,0,4.13,0,4.13Z"/><path class="cls-13" d="M528.57,38.75C502,38.75,481,78.69,481,78.69s40.2-.23,55.29-.91c0,0,54.28,2.53,80,118.89,26.52,119.78-27,328.72-27,328.72l17,2.4s50.85-112.37,50.85-274.74C657.25,129.69,587.54,38.75,528.57,38.75Z"/><polygon class="cls-14" points="80.52 351.85 83.69 365.6 258.49 380.95 763.11 356 766.54 336.8 249.45 349.46 80.52 351.85"/><path class="cls-13" d="M785.51,290.4l-13.66,52.48-479.2,20.71-5.39.23-29.35,1.28-17.45-1-104-5.8-40-2.24-26-1.45c-9.6-27.2-9.6-58.84-9.6-58.84l21.1.93,41.49,1.84,105.45,4.65,23.48,1,34.12-.89Z"/><path class="cls-13" d="M770.46,353.93l-14.87,47.88L297.07,428.45l-31.85,1.85-13.59-.95-99.44-6.91-37.89-2.63-20.08-1.4a402,402,0,0,1-23.77-54.86l28.45,2,39.9,2.75,103.68,7.16,15.4,1.06,35.69-1.56Z"/><polygon class="cls-15" points="252.38 304.25 257.9 365.09 770.53 347.95 785.51 290.39 252.38 304.25"/><path class="cls-16" d="M265.22,430.3l-7.34-53.82,512.58-22.55L755.6,401.81S269.71,430.61,265.22,430.3Z"/><polygon class="cls-17" points="70.45 363.55 82.14 358.88 82.68 361.21 270.71 368 764.2 349.9 764.55 347.95 770.46 353.93 257.88 376.48 70.45 363.55"/><polygon class="cls-13" points="735.68 527.79 704.13 603.12 306.57 630.55 128.98 604.95 109.54 525.39 145.89 516.26 149.47 525.78 149.71 526.41 181.4 531.54 205.47 527.79 266.4 534.98 266.74 538.31 300.54 543.91 300.58 543.91 383.1 537.74 383.55 532.6 589.37 525.39 606.4 527.79 674.41 523.1 679.5 512.31 735.68 527.79"/><path class="cls-17" d="M735.68,527.79s-57.16,20.47-180.6,25-248.51-.16-248.51-.16c-154.51-19.86-197-27.28-197-27.28l36.35-9.13,3.81,10.15,31,5a5.45,5.45,0,0,0,1.71,0l23.06-3.64L266.39,535l.35,3.33,33.8,5.6,82.55-6.17.46-5.14,205.82-7.21,17,2.4,68-4.68,5.08-10.81Z"/><path class="cls-18" d="M306.57,552.67v77.88l397.56-27.43,31.55-75.33S652,541.34,534.06,549.35C447.81,555.22,306.57,552.67,306.57,552.67Z"/><polygon class="cls-17" points="785.51 290.4 286.49 303.36 252.37 304.25 228.89 303.21 123.44 298.56 81.95 296.72 60.85 295.79 81.29 293.81 81.73 295.79 123.09 296.79 154.92 295.31 227.53 296.79 228.26 300.23 286.1 300.23 386.43 297.02 386.24 293.81 623.64 286.28 656.36 290.4 759.9 286.28 760.59 283.28 785.51 290.4"/><path class="cls-19" d="M362.15,552.83s23.77-5,104.24-8.68,244.1-12.67,244.1-12.67-28,16.56-141.36,23.34C477.77,560.28,362.15,552.83,362.15,552.83Z"/><path class="cls-20" d="M481,78.69s17.62-36.17,47.55-39.94S618.51,81.19,640.29,151.5s16.07,138.89,16.07,138.89h-32.8L580,280.62s-5.07-56.05-22.67-116.15-64.21-86.56-64.21-86.56Z"/><path class="cls-13" d="M418.26,292.8V267.53s102.86-11,168.32,2.19c0,0,40.74,15.41,44.17,27.07s-6.31,143.41-12.34,149c-10.93,10.22-43.21,26.75-43.21,26.75l-154.05,5.48L413.32,422l24-.8s3.79-32,6.54-56.06l.31-7.72s.69-36.34-4.11-56.92Z"/><path class="cls-21" d="M491.08,307.31c-1.44,15.35-5.72,124.82-5.72,131.67s121.82,12.33,130.74,7.53,17.27-136.74,7.08-144.3C617.7,298.14,491.63,301.42,491.08,307.31Z"/><path class="cls-22" d="M502.51,397.66c-9.8-.23-13.14-79.63-4.58-86.69S621.4,298.67,623,306.65s6.62,99.42-4.36,101.24-33.18-22.4-35.33-28.8S565,348.82,556.61,348,533.14,398.41,502.51,397.66Z"/><path class="cls-23" d="M418.26,267.53s9.84,8.82,62.35,26.23c7.43,2.47,145,6.4,145.34,3,.71-6.4-32-26-39.37-27.07C518.94,260,452.65,262.65,418.26,267.53Z"/><path class="cls-24" d="M466.66,454.88a282.05,282.05,0,0,0-45.51,23.19l154.05-5.48s32.26-16.13,31.8-19.9S489.76,445.77,466.66,454.88Z"/><path class="cls-25" d="M525.82,418.14c7.26,2.52,32.49,10,56.12,1a2.15,2.15,0,0,0,1.27-2.62l-15.88-52.83a7,7,0,0,1,1.46-6.09A18.29,18.29,0,1,0,536.32,346c0,3.34,2.26,7.46,4.31,10.5a12.9,12.9,0,0,1,1.76,10.31l-17.88,48.52A2.14,2.14,0,0,0,525.82,418.14Z"/><path class="cls-13" d="M581.93,419.14c-11,4.18-22.35,4.8-32.08,4a67.56,67.56,0,0,0,17.93-4,2.14,2.14,0,0,0,1.26-2.62l-15.87-52.84a6.93,6.93,0,0,1,1.46-6.07,18.3,18.3,0,0,0-7.08-28.45,18.3,18.3,0,0,1,21.25,28.45,6.91,6.91,0,0,0-1.47,6.07l15.88,52.84A2.14,2.14,0,0,1,581.93,419.14Z"/><path class="cls-26" d="M599.89,86.94c2.62,15.57,11.43,46.66,20.34,48.46,4.76,1,6.11-.74,8.75-4.3,7.29-9.82,6.29-32.08-1.25-39.13S597.17,70.83,599.89,86.94Z"/><path class="cls-13" d="M611.55,110.73c-8.58,2.5,3,25,9.83,25.76S633,104.49,611.55,110.73Z"/><path class="cls-27" d="M606.4,527.79s30.52-81.34,35.32-119.36H624.93s-2.41,28.5-6.52,37.41c0,0-91.94,6-125.29,2.49-10.5-1.12-7.72-18.16-5.87-61.45s-2-91.57-6.64-93.12-62.35-26.23-62.35-26.23L386,290.39l.22,3.42,27.09-.85,7.83,7.44s6.72,35.54,4.67,59.08l-17.38.58V363l17.25,6.14s-.64,33.27-5.23,52.19l-32.82,2.16L386,492.53s77.44-8.28,167.83-8.28c3.53,0,2,27,2.77,42.29l32.76-1.15Z"/><path class="cls-28" d="M306.57,552.67v77.88L129,605l-19.44-79.56,36.35-9.13,3.58,9.52c-12.52-34.17-24.36-69.9-35.17-106l-20.08-1.4a402,402,0,0,1-23.77-54.86l11.69-4.67c-.84-3.14,0-.5-.84-3.64l-10.85-.61c-9.6-27.2-9.6-58.84-9.6-58.84l20.44-2C47.08,140.47,41.06,8.39,94.22.53,154-8.29,249.68,94.71,277.11,241.64c3.49,18.68,6.46,38.46,9,58.59l-33.73,4,5.54,60.85,138.51-4.64-25.81,4.21L257.88,376.48l7.34,53.82,31.86-1.67,3.46,115.28L259,543.77Z"/><path class="cls-29" d="M154.2,430.3c22.27.23,36.27,25.83,36.27,25.83s33.79,1.38,70.14,32.91l-9-59.69-68-4.43-31.42-2.48-37.89-2.63,1.94,6.4Z"/><path class="cls-30" d="M127.37,103.63c-21.8-1.37-27.61,51.32-16.11,123.78,0,0,9.94-19.54,27.09-25.71,0,0,29.31,5.1,53.87,27.43,15,13.61,27.52,34,27.52,34s-20.38-76.79-42-114.51S137.3,104.25,127.37,103.63Z"/><path class="cls-13" d="M252.37,304.25c-4.07,5.8-6.81,24.09-4.52,32.55s9.82,25.67,9.82,25.67.64-24.53.21-32.76S252.37,304.25,252.37,304.25Z"/><path class="cls-13" d="M257.88,376.48c6.43,8.1,8.25,20.9,9.63,25s-2.29,28.81-2.29,28.81-9.6-26.39-9.6-30.34S257.88,376.48,257.88,376.48Z"/><path class="cls-13" d="M297.5,442.61c-3.48,18.78-9.42,44.94-6.91,49.92s10,51.38,10,51.38,6.63-36.61,3.94-50.65S297.5,442.61,297.5,442.61Z"/><path class="cls-31" d="M232.69,115.37c-12.64.35,10.9,94.1,14.33,96.84s18.43,6.18,23.23,1.37,7.13-44.11,5-51.35C267.81,136.52,246.3,115,232.69,115.37Z"/><path class="cls-13" d="M258.07,183.37c-13.86-19.41-20.79-20.57-20.28-10s8.26,39,11.44,40.09,13.19,3.42,15.53-2.14S263.27,190.65,258.07,183.37Z"/><path class="cls-32" d="M451.29,367.16c-2.84,6.41-13.86,85.93-10.66,89.2s37.25-15.9,39.54-20.22,3.12-52.46-2.36-63.27S454,361,451.29,367.16Z"/><path class="cls-33" d="M245,339.54c5.14,6.19,10,22.88,7.38,22.93s-61.56-1.4-62.24-3.59S239.11,332.47,245,339.54Z"/><path class="cls-32" d="M294.94,560.42c-30.4-8.87-168.71-34.7-173.74-26.86s-3.23,61.55,14.18,68.19,132.18,16.4,136.7,15.59C294.94,613.22,301,562.2,294.94,560.42Z"/><path class="cls-32" d="M80.52,12.42C45.93,42.06,57,144.78,77.87,140c6.68-1.53,27.79-36.92,44.25-39.33s36.57,2.94,51.66,2.94,26.53-17.78,4-50.09S102.93-6.78,80.52,12.42Z"/><path class="cls-19" d="M635.3,359.88c50.41,12.17,131.24-5.95,131.24-5.95s-35,.8-53.15.57S635.3,359.88,635.3,359.88Z"/><path class="cls-19" d="M286.49,303.36c31.77,9,126.83-3.29,126.83-3.29s-23.55-1.76-69.36,0S286.49,303.36,286.49,303.36Z"/><path class="cls-22" d="M565.42,43.28c12.93,10.47,49.05,35.85,55.74,38.19,53.48,18.73,137.83,18.73,131,5.7S733.62,35.73,707.56,33,556.25,35.85,565.42,43.28Z"/><path class="cls-34" d="M635.3,463.51c-5.58,8.39-15.95,53.79-9.77,55.17s74.59-52.11,73.9-67.89S643.07,451.85,635.3,463.51Z"/><path class="cls-35" d="M726.08,196.06c-12.15,13.51-8.22,25.53,0,25.53s30.17-28.65,28.8-30.79S735.26,185.86,726.08,196.06Z"/><path class="cls-22" d="M169.21,6.13c-21.44.36,56.08,84.47,82.29,92s77.15,11.73,76.81-6.86c-.49-27-18.13-58.85-43.5-66.37S183.83,5.89,169.21,6.13Z"/><path class="cls-35" d="M286.49,155c-6.07,19.73,5.59,131.48,14.1,135.36s70.24,4,70.24-9.78S292,137.18,286.49,155Z"/><path class="cls-35" d="M318,155C318.07,162.82,337,212,344,212s17.25-53.54,6-56.94S318,146.45,318,155Z"/><path class="cls-36" d="M383.55,532.6c45.35-13.61,205.82-7.21,205.82-7.21s-37.34,8.69-106,10.52S383.55,532.6,383.55,532.6Z"/><path class="cls-22" d="M306.57,630.55c38.2-21.95,211.48-72,306.12-73.73s91.44,46.3,91.44,46.3Z"/><path class="cls-37" d="M219.74,363.41c1.63-.29,36.3-9.65,38.12-9.48,14.9,1.38,49.73,7.36,57.88,8.93.78.15-55.69,2.24-57.83,2.24C244,365.09,218.47,363.64,219.74,363.41Z"/><path class="cls-19" d="M783.84,296.79c-.9.6-97.74-1.35-98.22-3.8-.17-.82,99.89-4.47,99.89-2.59C785.51,293.14,784.65,296.25,783.84,296.79Z"/><path class="cls-19" d="M257.88,376.48c2.73,4.47,8.83,19.6,9.93,21.18,2.88,4.13,104.56-25.57,97.3-25.9S255.53,372.63,257.88,376.48Z"/><path class="cls-38" d="M720.8,413.12a757.14,757.14,0,0,1-85.5,24.42s-10.19,8.89-32.4,26a94.39,94.39,0,0,1-2.9,14.56s-169.27,7.55-212.71,6.18l.1-50.3s-40.66,4.66-89.42,12.62c0,0-27.63,5.65-42.76,6.58l-2.12-10.54L247,429.05l190.34-7.9S422.5,434,417,445.84l4.14,32.23,154.05-5.48s37.95-18.52,43.21-26.75,6.52-37.41,6.52-37.41l99.37-4.77Z"/><path class="cls-22" d="M766.54,223c-5.44-9.56-110,31.83-107.8,40.23s-4.72,26.61,2.87,26.63,86.68-1.93,93.33-6.59S772,232.66,766.54,223Z"/><path class="cls-34" d="M647.55,298.1c-8.93,4.84-20,49.62-12.25,50.68s114.78-2.38,121.29-6.15,15.59-43,8.23-44.53S658.87,292,647.55,298.1Z"/><path class="cls-33" d="M70.45,303c-6.68,16.43-5.48,36.51,0,35.28s46.74-31.11,35-34S73,296.6,70.45,303Z"/><path class="cls-34" d="M321.46,563.34c-22,11.85-9.44,49.62,11.43,44.81C421.15,587.8,352.86,546.42,321.46,563.34Z"/><path class="cls-33" d="M132.18,438.07c.51,12.09,14.46,69.18,18.28,74.24,3.36,4.44,19.36,8.73,19.43,4.85C170.05,509.39,131.71,427,132.18,438.07Z"/><path class="cls-33" d="M230.93,235.54c-12.65,12.3-5.49,54.74,4.57,58.23s40,11.25,40.56-6.12S264.31,203.09,230.93,235.54Z"/><path class="cls-39" d="M762.11,107.59c-1.71-5.85-126.81,7.77-126.81,7.77l-4.86,12.11s13.82,28.68,17.69,50.08c0,0,1.83-12.56,8.9-15.32,7.59-3,98.23-7.51,106.08-7.19s7.35,11.69,7.35,11.69S769.83,134.12,762.11,107.59Z"/><path class="cls-39" d="M224.17,100.49C243.58,107.11,350.93,117,350.93,117c1.16,3,8.45,23.21,8.45,23.21s-69.75-11-101.5-9.39c0,0-15.19-16-25.19-15.4Z"/><path class="cls-40" d="M709,63.18c-2.78,33.15-33.85,43.17-47.59,35.86-12.49-6.65-15.54-44.56-1.78-57.57C667.34,34.15,709,63.18,709,63.18Z"/><path class="cls-41" d="M656.69,45.63c-5.81,14.09,2,30.21,16.12,36.43,13.23,5.82,28.45,1.3,35.09-10.37,7.07-12.41,2.53-29.33-11.44-37.59C681.4,25.19,662.92,30.52,656.69,45.63Z"/><path class="cls-42" d="M708.07,52.18c.44,6.06-39.48,5.88-37.56-3.42C675.77,23.38,706.53,31.48,708.07,52.18Z"/><path class="cls-43" d="M709,61.37c1.86,10.21-13.78,24.08-25,20.1-8.46-3-13.73-18.39-10.48-20.82C677.88,57.34,707.61,53.9,709,61.37Z"/><path class="cls-40" d="M738.58,157.51c-2.78,33.14-33.86,43.17-47.59,35.86-12.49-6.65-15.54-44.56-1.79-57.57C697,128.47,738.58,157.51,738.58,157.51Z"/><path class="cls-41" d="M686.3,140c-5.81,14.1,2,30.22,16.12,36.44,13.23,5.82,28.45,1.3,35.09-10.38,7.07-12.41,2.53-29.32-11.44-37.58C711,119.52,692.53,124.84,686.3,140Z"/><path class="cls-42" d="M737.68,146.51c.44,6.06-39.49,5.88-37.56-3.43C705.38,117.71,736.14,125.81,737.68,146.51Z"/><path class="cls-43" d="M738.58,155.7c1.86,10.21-13.78,24.08-25,20.1-8.46-3-13.74-18.39-10.48-20.82C707.49,151.67,737.22,148.23,738.58,155.7Z"/><path class="cls-40" d="M747,250c-2.78,33.15-33.86,43.18-47.59,35.86-12.49-6.64-15.54-44.55-1.79-57.57C705.33,220.92,747,250,747,250Z"/><path class="cls-41" d="M694.68,232.4c-5.81,14.1,2,30.22,16.12,36.44,13.23,5.82,28.45,1.3,35.09-10.38,7.07-12.41,2.53-29.32-11.44-37.58C719.39,212,700.91,217.29,694.68,232.4Z"/><path class="cls-42" d="M746.06,239c.44,6.06-39.49,5.88-37.56-3.43C713.76,210.16,744.52,218.26,746.06,239Z"/><path class="cls-43" d="M747,248.15c1.86,10.2-13.78,24.08-25,20.1-8.46-3-13.74-18.39-10.48-20.82C715.87,244.12,745.6,240.68,747,248.15Z"/><path class="cls-40" d="M678.65,580.4c-2.78,33.15-37.06,28.73-50.79,21.41-12.49-6.64-12.34-30.11,1.42-43.12C637,551.36,678.65,580.4,678.65,580.4Z"/><path class="cls-41" d="M626.37,562.84c-5.81,14.1,2,30.22,16.12,36.44,13.23,5.82,28.45,1.3,35.1-10.38,7.06-12.41,2.52-29.32-11.44-37.58C651.09,542.41,632.6,547.73,626.37,562.84Z"/><path class="cls-42" d="M677.75,569.4c.45,6.06-39.48,5.88-37.55-3.43C645.46,540.6,676.22,548.7,677.75,569.4Z"/><path class="cls-43" d="M678.65,578.59c1.87,10.21-13.78,24.08-25,20.1-8.46-3-13.73-18.39-10.48-20.82C647.56,574.56,677.29,571.12,678.65,578.59Z"/><path class="cls-40" d="M552.47,586.87c-2.79,33.15-36.22,30.74-50,23.43-12.49-6.65-13.18-32.13.58-45.14C510.83,557.84,552.47,586.87,552.47,586.87Z"/><path class="cls-41" d="M500.19,569.32c-5.81,14.09,2,30.21,16.11,36.44,13.24,5.81,28.45,1.29,35.1-10.38,7.06-12.41,2.53-29.33-11.44-37.59C524.9,548.88,506.41,554.21,500.19,569.32Z"/><path class="cls-42" d="M551.56,575.88c.45,6-39.48,5.88-37.55-3.43C519.27,547.07,550,555.17,551.56,575.88Z"/><path class="cls-43" d="M552.47,585.06c1.86,10.21-13.79,24.08-25.05,20.1-8.45-3-13.73-18.39-10.48-20.82C521.37,581,551.1,577.59,552.47,585.06Z"/><path class="cls-40" d="M421.86,594.51c-2.79,33.15-33.63,34.06-47.37,26.75-12.48-6.65-15.77-35.45-2-48.46C380.22,565.48,421.86,594.51,421.86,594.51Z"/><path class="cls-41" d="M369.57,577c-5.8,14.09,2,30.22,16.12,36.44,13.24,5.81,28.45,1.29,35.1-10.38,7.06-12.41,2.53-29.33-11.44-37.59C394.29,556.53,375.8,561.85,369.57,577Z"/><path class="cls-42" d="M421,583.52c.45,6.05-39.48,5.88-37.55-3.43C388.66,554.71,419.42,562.82,421,583.52Z"/><path class="cls-43" d="M421.85,592.7c1.87,10.21-13.78,24.08-25,20.1-8.45-3-13.73-18.38-10.48-20.82C390.76,588.68,420.49,585.24,421.85,592.7Z"/><path class="cls-40" d="M355.91,265.18c-2.78,33.15-32.27,37.92-46,30.61-12.48-6.65-17.12-39.31-3.36-52.32C314.28,236.14,355.91,265.18,355.91,265.18Z"/><path class="cls-41" d="M303.63,247.62c-5.81,14.1,2,30.22,16.12,36.44,13.23,5.82,28.45,1.3,35.1-10.38,7.06-12.41,2.52-29.32-11.44-37.58C328.35,227.19,309.86,232.51,303.63,247.62Z"/><path class="cls-42" d="M355,254.18c.45,6.06-39.48,5.88-37.55-3.43C322.71,225.38,353.47,233.48,355,254.18Z"/><path class="cls-43" d="M355.91,263.37c1.86,10.21-13.78,24.08-25,20.1-8.46-3-13.73-18.39-10.48-20.82C324.82,259.34,354.55,255.9,355.91,263.37Z"/><path class="cls-40" d="M140.84,570.1C136,603,166.73,610.47,181.78,606.49c13.67-3.62,22.51-30.44,12.09-46.25C188,551.34,140.84,570.1,140.84,570.1Z"/><path class="cls-41" d="M195.75,565c2.44,15-8.82,29-24,31.79-14.21,2.65-28-5.23-31.8-18.11-4.05-13.7,4.23-29.13,19.72-34C176.35,539.41,193.14,548.81,195.75,565Z"/><path class="cls-44" d="M144.23,559.6c-1.82,5.79,37.1,14.74,37.35,5.24C182.25,538.93,150.45,539.8,144.23,559.6Z"/><path class="cls-45" d="M141.26,568.34c-4.15,9.51,7.92,26.59,19.79,25.29,8.91-1,17.56-14.77,14.95-17.88C172.45,571.52,144.29,561.38,141.26,568.34Z"/><path class="cls-40" d="M225,582.77c-4.86,32.91,28.4,37.67,43.44,33.69,13.68-3.62,20-27.74,9.58-43.55C272.11,564,225,582.77,225,582.77Z"/><path class="cls-41" d="M279.85,577.62c2.44,15-8.81,29-24,31.8-14.21,2.64-28-5.24-31.8-18.12-4-13.7,4.24-29.13,19.72-34C260.46,552.09,277.24,561.49,279.85,577.62Z"/><path class="cls-44" d="M228.34,572.28c-1.82,5.79,37.09,14.74,37.34,5.23C266.35,551.61,234.56,552.47,228.34,572.28Z"/><path class="cls-45" d="M225.36,581c-4.15,9.51,7.92,26.6,19.79,25.29,8.92-1,17.57-14.77,15-17.88C256.55,584.19,228.39,574.06,225.36,581Z"/><path class="cls-40" d="M339.75,161.51c-2.78,33.15-33.85,43.18-47.59,35.86-12.49-6.65-15.54-44.56-1.78-57.57C298.12,132.48,339.75,161.51,339.75,161.51Z"/><path class="cls-41" d="M287.47,144c-5.81,14.1,2,30.22,16.12,36.44,13.23,5.82,28.45,1.29,35.1-10.38,7.06-12.41,2.52-29.33-11.44-37.59C312.19,123.53,293.7,128.85,287.47,144Z"/><path class="cls-42" d="M338.85,150.52c.45,6-39.48,5.88-37.55-3.43C306.55,121.71,337.31,129.82,338.85,150.52Z"/><path class="cls-43" d="M339.75,159.7c1.86,10.21-13.78,24.09-25,20.11-8.46-3-13.73-18.39-10.48-20.83C308.66,155.68,338.39,152.24,339.75,159.7Z"/><path class="cls-40" d="M286.12,62c-2.78,33.15-33.85,43.17-47.59,35.86C226,91.16,223,53.25,236.75,40.24,244.49,32.91,286.12,62,286.12,62Z"/><path class="cls-41" d="M233.84,44.4c-5.81,14.09,2,30.21,16.12,36.43,13.23,5.82,28.45,1.3,35.1-10.38,7.06-12.41,2.52-29.32-11.44-37.58C258.56,24,240.07,29.28,233.84,44.4Z"/><path class="cls-42" d="M285.22,51c.45,6.06-39.48,5.88-37.55-3.42C252.92,22.15,283.68,30.25,285.22,51Z"/><path class="cls-43" d="M286.12,60.14c1.87,10.21-13.78,24.08-25,20.1-8.46-3-13.73-18.39-10.48-20.82C255,56.11,284.76,52.67,286.12,60.14Z"/><circle class="cls-46" cx="118.75" cy="159.86" r="118.75" transform="translate(-78.26 130.8) rotate(-45)"/></g></g></g></svg>