<svg xmlns="http://www.w3.org/2000/svg" xmlns:xlink="http://www.w3.org/1999/xlink" viewBox="0 0 161.2 174.32"><defs><style>.cls-1{opacity:0.38;}.cls-2,.cls-8{fill:#231f20;}.cls-3{fill:#e6e7e7;}.cls-4{fill:url(#linear-gradient);}.cls-5{fill:#f8e493;}.cls-6{fill:#bb835c;}.cls-7{fill:#fff;}.cls-8{opacity:0.23;}</style><linearGradient id="linear-gradient" x1="1686.08" y1="718.39" x2="1660.75" y2="755.25" gradientTransform="matrix(-0.75, -0.66, -0.66, 0.75, 1778.14, 686.52)" gradientUnits="userSpaceOnUse"><stop offset="0" stop-color="#00403b"/><stop offset="0.75" stop-color="#00593f"/><stop offset="1" stop-color="#009444"/></linearGradient></defs><title>poison dagger</title><g id="Layer_2" data-name="Layer 2"><g id="Layer_1-2" data-name="Layer 1"><g class="cls-1"><path class="cls-2" d="M97.33,52.21c-37.4,44.18-44.72,53.16-44.72,53.16A642.05,642.05,0,0,0,5,174s0,.1.07.06c19.12-15.36,39-32.61,59.16-51.91C82.62,104.56,100,86.32,115,69.48"/><path class="cls-2" d="M105.54,61.11S7.1,171.16,6.23,172.72"/><path class="cls-2" d="M129.25,73.17,91.1,39.39l-7.25,8.19A81.91,81.91,0,0,1,122,81.36Z"/><polyline class="cls-2" points="116.14 61.56 150.57 18.56 142.74 11.62 104.22 51"/><line class="cls-2" x1="118.97" y1="58.18" x2="107.22" y2="47.78"/><line class="cls-2" x1="122.6" y1="53.63" x2="111.3" y2="43.63"/><line class="cls-2" x1="126.23" y1="49.08" x2="115.38" y2="39.48"/><line class="cls-2" x1="129.86" y1="44.53" x2="119.46" y2="35.32"/><line class="cls-2" x1="133.49" y1="39.98" x2="123.54" y2="31.17"/><line class="cls-2" x1="137.12" y1="35.43" x2="127.62" y2="27.01"/><line class="cls-2" x1="140.75" y1="30.88" x2="131.7" y2="22.86"/><line class="cls-2" x1="144.38" y1="26.33" x2="135.77" y2="18.71"/><line class="cls-2" x1="148.01" y1="21.78" x2="139.85" y2="14.55"/><path class="cls-2" d="M158.85,15.5a9.32,9.32,0,1,0-16-3.76l7.68,6.81A9.32,9.32,0,0,0,158.85,15.5Zm-3.53-3.24a4.53,4.53,0,1,1-.39-6.39A4.53,4.53,0,0,1,155.32,12.26Z"/></g><path class="cls-3" d="M65.88,85.39C72.05,78,80.33,68.21,91.39,55.12a79.23,79.23,0,0,1,8.77,6.61,80.58,80.58,0,0,1,9,9.06c-15.76,17.71-32.45,35-49.63,51.51-.45.44-.91.87-1.37,1.3C67.56,104.81,67.6,92.5,65.88,85.39Z"/><path class="cls-4" d="M65.88,85.39a35.79,35.79,0,0,1,.66,11.91,54.3,54.3,0,0,1-.88,5.73c-.23,1.09-4.29,14.09-7.55,20.57C40.46,140.45,21.93,156.77,3,172.16l-.3,0a645.18,645.18,0,0,1,45.92-66S51.61,102.4,65.88,85.39Z"/><path class="cls-5" d="M79.71,47.69a82.45,82.45,0,0,1,37.37,33.09l6.42-7.26L86.14,40.43Z"/><polygon class="cls-6" points="144.89 18.92 137.75 12.6 99.95 51.26 111.09 61.12 144.89 18.92"/><path class="cls-5" d="M153.45,15.45a8.79,8.79,0,1,0-15.09-3.63l7.36,6.52A8.76,8.76,0,0,0,153.45,15.45Zm-3.14-2.89a4.53,4.53,0,1,1-.39-6.39A4.52,4.52,0,0,1,150.31,12.56Z"/><path class="cls-7" d="M151.44,13.08A4.52,4.52,0,0,0,150,6a4.07,4.07,0,0,0-.58-.22,3.28,3.28,0,0,1,.53.39l0,0a4.53,4.53,0,0,1-4.32,7.72,4.51,4.51,0,0,0,5.84-.81Z"/><path class="cls-8" d="M0,174.32c.17-.26.74-1,1.65-2,13.17-15.56,98-110.72,98-110.72l8.94,9.08L89.34,91.52,66,115.17,55.35,125.81,39.94,140.4,26.08,152.66l-13.9,11.81Z"/></g></g></svg>