<svg xmlns="http://www.w3.org/2000/svg" viewBox="0 0 145.2 178.98"><defs><style>.cls-1{fill:#ececec;}.cls-2{fill:#e9e8e8;}.cls-3{fill:#0e1023;}.cls-4{fill:#fff;}.cls-5{opacity:0.5;}.cls-6{fill:#323640;}.cls-7{fill:#6ccdef;}.cls-8{fill:#6bbe45;}.cls-9{fill:none;}.cls-10{fill:#30aa49;}.cls-11{fill:#82c445;}.cls-12{fill:#c4e8f3;}.cls-13{opacity:0.2;}</style></defs><title>poison</title><g id="Layer_2" data-name="Layer 2"><g id="Layer_1-2" data-name="Layer 1"><path class="cls-1" d="M143.43,20.55,132.27,36,105.8,19l9.32-16.6A2.08,2.08,0,0,1,118,1.69q6.33,3.93,12.59,7.94t12.26,7.95A2.09,2.09,0,0,1,143.43,20.55Z"/><path class="cls-1" d="M143.43,20.55,132.27,36,105.8,19l9.32-16.6A2.08,2.08,0,0,1,118,1.69q6.33,3.93,12.59,7.94t12.26,7.95A2.09,2.09,0,0,1,143.43,20.55Z"/><path class="cls-2" d="M126.74,22.47a1.56,1.56,0,0,1-2.72.93,1.46,1.46,0,0,1-.62.81,1.63,1.63,0,0,1-1.7-.14c-.21-.15-.44-.29-.66-.43a1.61,1.61,0,0,1-.84-1.48,1.44,1.44,0,0,1,.48-.9,1.56,1.56,0,0,1-.3-2.86,4.55,4.55,0,0,1,2.83-3.88,4.66,4.66,0,0,1,3.91.34,4.69,4.69,0,0,1,2,3.41A4.58,4.58,0,0,1,126.74,22.47Z"/><path class="cls-3" d="M126.74,22.47a1.56,1.56,0,0,1-2.72.93,1.46,1.46,0,0,1-.62.81,1.63,1.63,0,0,1-1.7-.14c-.21-.15-.44-.29-.66-.43a1.61,1.61,0,0,1-.84-1.48,1.44,1.44,0,0,1,.48-.9,1.56,1.56,0,0,1-.3-2.86,4.55,4.55,0,0,1,2.83-3.88,4.66,4.66,0,0,1,3.91.34,4.69,4.69,0,0,1,2,3.41A4.58,4.58,0,0,1,126.74,22.47Z"/><ellipse class="cls-1" cx="125.31" cy="21.21" rx="0.85" ry="1.28" transform="translate(-0.62 38.37) rotate(-17.37)"/><path class="cls-3" d="M130.24,18.62a2.16,2.16,0,0,0,1.07-.14c.73-.3.83-.87,1.44-1a1.11,1.11,0,0,1,1.06.41,1.27,1.27,0,0,1-.35,1.55,1.22,1.22,0,0,1,.44,1.2,1.28,1.28,0,0,1-1.7.58c-.39-.21-.3-.63-.73-1a1.7,1.7,0,0,0-1.25-.24,2.62,2.62,0,0,0,.12-.69A2.15,2.15,0,0,0,130.24,18.62Z"/><path class="cls-3" d="M127.35,23.35q-.19.34-.45.72c-.17.24-.33.47-.49.68a1.56,1.56,0,0,1,.34.8c0,.42-.18.56-.22,1.05a1.41,1.41,0,0,0,.36,1.2,1,1,0,0,0,1.22.1,1,1,0,0,0,.4-1,1.33,1.33,0,0,0,1.55-.13c.47-.53.05-1.57-.52-1.89-.36-.2-.61,0-1-.15A2.11,2.11,0,0,1,127.35,23.35Z"/><path class="cls-1" d="M122,18.33c-.7.09-1.22.54-1.15,1s.67.77,1.37.68,1.22-.55,1.16-1S122.71,18.23,122,18.33Z"/><path class="cls-1" d="M123.25,21.75a1.72,1.72,0,0,0,0-.76,1.73,1.73,0,0,0-.7.28c-.19.12-.49.32-.45.55s.37.31.41.33.26.29.48.23S123.21,22,123.25,21.75Z"/><path class="cls-3" d="M122.4,13.61a2.24,2.24,0,0,1-.32-1c0-.79.44-1.12.27-1.71a1.1,1.1,0,0,0-.82-.79,1.28,1.28,0,0,0-1.26,1,1.19,1.19,0,0,0-1.26.1,1.28,1.28,0,0,0,.17,1.79c.36.26.7,0,1.18.26a1.67,1.67,0,0,1,.75,1,2.21,2.21,0,0,1,.57-.4A2.19,2.19,0,0,1,122.4,13.61Z"/><path class="cls-3" d="M119.32,18.22c-.15.21-.31.45-.46.7l-.42.74a1.49,1.49,0,0,0-.86,0c-.4.15-.43.4-.86.64a1.43,1.43,0,0,1-1.24.18,1,1,0,0,1-.61-1.06,1,1,0,0,1,.73-.78,1.31,1.31,0,0,1-.54-1.46c.28-.65,1.41-.71,1.93-.32.34.24.27.55.59.89A2.12,2.12,0,0,0,119.32,18.22Z"/><path class="cls-4" d="M117.28,3.82,108,20.42,105.8,19l9.32-16.6A2.08,2.08,0,0,1,118,1.69q6.33,3.93,12.59,7.94l1,.64q-5.7-3.64-11.43-7.2A2.08,2.08,0,0,0,117.28,3.82Z"/><g class="cls-5"><path class="cls-6" d="M143.43,20.55,132.27,36l-5.5-3.52L137.94,17a2.09,2.09,0,0,0-.55-3q-4.78-3.13-9.59-6.24l2.83,1.81q6.15,3.93,12.26,7.95A2.09,2.09,0,0,1,143.43,20.55Z"/></g><path class="cls-7" d="M112,149.83a59.91,59.91,0,0,1-49.53,27.66c-1.43,0-2.87,0-4.3-.07A60.11,60.11,0,0,1,8.46,145.61c-.67-1.27-1.3-2.56-1.87-3.87a60,60,0,0,1-.35-47.69h0a61.86,61.86,0,0,1,4.69-8.87A59.87,59.87,0,0,1,54.45,57.92,63.23,63.23,0,0,0,96.28,34.86h0a63.19,63.19,0,0,0,4-5.56l25,16a63.15,63.15,0,0,0-6.76,53.6A59.85,59.85,0,0,1,112,149.83Z"/><g class="cls-5"><path class="cls-4" d="M72,57.79C61.65,61.72,58,58.66,43.66,64A77.28,77.28,0,0,0,18.85,78.82,71.55,71.55,0,0,0,6.24,94.05a61.86,61.86,0,0,1,4.69-8.87,60.14,60.14,0,0,1,11.91-13.6c10.39-8.74,24.25-11.67,31.61-13.66,11.21-3,26.68-9.31,44.27-23.72C89.24,49,79.27,55,72,57.79Z"/></g><path class="cls-8" d="M106.65,145.92A53.64,53.64,0,0,1,14.18,91.69c.64-1.17,1.32-2.34,2-3.48A53.56,53.56,0,0,1,31.86,72.28a5.31,5.31,0,0,1,5.54-.2c1,.57,2,1.17,3,1.82a46.92,46.92,0,0,1,6.19,4.87c6.36,5.94,9.73,12.44,12.19,18.9,4.23,11.13,5.75,22.12,15.18,29.85,6.31,5.17,16.66,9.28,34.76,7a2.2,2.2,0,0,1,2.45,1.8.13.13,0,0,1,0,.06h0a2.13,2.13,0,0,1-.15,1.18A52.58,52.58,0,0,1,106.65,145.92Z"/><g class="cls-5"><path class="cls-1" d="M111.16,136.41h0a.13.13,0,0,0,0-.06,2.2,2.2,0,0,0-2.45-1.8c-18.1,2.26-28.45-1.85-34.76-7C64.51,119.79,63,108.8,58.76,97.67c-2.46-6.46-5.83-13-12.19-18.9a47.34,47.34,0,0,0-6.87-5.31l-.21-.13L39,73l-.25-.16-.46-.27-.23-.14-.68-.39a5.31,5.31,0,0,0-5.54.2l-.65.44-.19.12c-.15.11-.3.22-.46.32l-.21.15-.46.34-.17.12a53.64,53.64,0,0,0-13.5,14.44c-.72,1.14-1.4,2.31-2,3.48h0A85.44,85.44,0,0,1,26.75,79.83q2.41-1.85,4.74-3.39a4.9,4.9,0,0,1,5.51.07,63.6,63.6,0,0,1,5.76,4.54,57.2,57.2,0,0,1,4.66,4.61,52.35,52.35,0,0,1,8.64,14.18c4.83,11.19,6.88,22.36,16.87,29.85,6.69,5,17.45,8.76,35.86,5.66a2,2,0,0,1,.94,0A3.53,3.53,0,0,1,111.16,136.41Z"/></g><path class="cls-7" d="M135.45,44.9h0c-1.73,2.71-5.71,3.24-8.9,1.2L99,28.46c-3.19-2-4.37-5.89-2.64-8.59h0c1.73-2.7,5.71-3.24,8.9-1.2l27.59,17.64C136,38.35,137.18,42.2,135.45,44.9Z"/><g class="cls-5"><path class="cls-4" d="M136,41.14c-.13.07-.36,0-.73-.23q-8-5.52-16.08-10.77-4.06-2.64-8.17-5.2l-4.11-2.54a17.41,17.41,0,0,0-3.55-2,4.62,4.62,0,0,0-2.87-.06,4.94,4.94,0,0,0-2.69,2.4,7.93,7.93,0,0,0-1,3.74c0-.2-.54-.8-.65-1a5.75,5.75,0,0,1-.46-1.4,6.14,6.14,0,0,1,.12-3,5.4,5.4,0,0,1,6.33-3.53A15.5,15.5,0,0,1,107.32,20l23.34,14.9a20.63,20.63,0,0,1,3.56,2.66,9.5,9.5,0,0,1,1.6,1.92C136.09,40,136.37,41,136,41.14Z"/></g><path class="cls-9" d="M129.07,48.72a9.22,9.22,0,0,1-3.34-1.33L98.14,29.74a8.94,8.94,0,0,1-3.8-4.88A6.72,6.72,0,0,1,100,16a9,9,0,0,1,6,1.4L133.63,35a8.94,8.94,0,0,1,3.8,4.88,6.84,6.84,0,0,1-.69,5.81h0a6.87,6.87,0,0,1-5,3.07A8.33,8.33,0,0,1,129.07,48.72ZM102.14,19.05a5.46,5.46,0,0,0-1.71-.05,3.9,3.9,0,0,0-2.83,1.69c-1.27,2-.29,4.9,2.18,6.48l27.59,17.65a6,6,0,0,0,4,1,3.88,3.88,0,0,0,2.83-1.69h0a3.89,3.89,0,0,0,.35-3.27A5.91,5.91,0,0,0,132,37.6L104.4,20A6.34,6.34,0,0,0,102.14,19.05Z"/><path class="cls-9" d="M51.43,171.22A55.13,55.13,0,0,1,31.05,71.05a6.74,6.74,0,0,1,7.07-.25,49,49,0,0,1,9.46,6.89A49.55,49.55,0,0,1,60.13,97.14c1,2.59,1.83,5.17,2.64,7.67,2.66,8.17,5.17,15.89,12.1,21.57,7.66,6.27,19,8.53,33.64,6.7a3.68,3.68,0,0,1,4.09,3,.29.29,0,0,1,0,.09v0a3.7,3.7,0,0,1-.24,2,56.61,56.61,0,0,1-4.48,8.55h0a55.17,55.17,0,0,1-55.72,24.65Zm-16-98.29a3.86,3.86,0,0,0-2.81.58,52.17,52.17,0,1,0,72.74,71.61h0a51.62,51.62,0,0,0,4.24-8.1.73.73,0,0,0,.06-.38v0h0a.74.74,0,0,0-.82-.61A65.52,65.52,0,0,1,89,135.79c-.85-.16-1.68-.34-2.5-.54A34,34,0,0,1,73,128.66c-7.6-6.23-10.24-14.34-13-22.94-.81-2.46-1.63-5-2.59-7.53A46.78,46.78,0,0,0,45.56,79.85a45.88,45.88,0,0,0-8.89-6.48A3.72,3.72,0,0,0,35.48,72.93Zm74.22,63.69h0Zm0,0h0Zm1.46-.2Z"/><path class="cls-9" d="M132,37.32a1.3,1.3,0,0,1-.49-.2L105.06,20.2a1.37,1.37,0,0,1-.45-1.83l9.32-16.6A3.45,3.45,0,0,1,118.77.52c4.2,2.61,8.43,5.29,12.6,8s8.22,5.3,12.27,8a3.46,3.46,0,0,1,.9,4.92h0L133.38,36.77A1.38,1.38,0,0,1,132,37.32ZM107.64,18.58l24.28,15.53,10.4-14.37h0a.69.69,0,0,0,.12-.55.67.67,0,0,0-.3-.46c-4-2.66-8.17-5.34-12.25-8s-8.38-5.32-12.57-7.93a.69.69,0,0,0-.55-.08.72.72,0,0,0-.45.34Z"/><path class="cls-10" d="M111.15,136.34a2.2,2.2,0,0,0-2.45-1.8c-18.1,2.26-28.45-1.85-34.76-7C64.51,119.79,63,108.8,58.76,97.67a58.46,58.46,0,0,0,16.29,3.74c11.34.88,18,5.41,24.15,11C101.94,114.85,109,122,111.15,136.34Z"/><path class="cls-9" d="M89,135.84c-.85-.16-1.68-.34-2.5-.54A34,34,0,0,1,73,128.7c-7.61-6.24-10.25-14.36-13-23-.8-2.46-1.63-5-2.59-7.53L56.12,95l3.18,1.21a56.7,56.7,0,0,0,15.87,3.64,38.47,38.47,0,0,1,14.59,3.9,48.47,48.47,0,0,1,10.46,7.46,35.34,35.34,0,0,1,6.47,7.88,45.71,45.71,0,0,1,6,17l-3,.51a.68.68,0,0,0-.76-.57A65.65,65.65,0,0,1,89,135.84ZM61.29,100.18q.8,2.34,1.53,4.62C65.47,113,68,120.67,74.9,126.34c7.65,6.27,19,8.52,33.61,6.69a3.4,3.4,0,0,1,.45,0c-2.43-10.61-7.68-16.69-10.78-19.49-6.39-5.77-12.79-9.77-23.24-10.58A59.38,59.38,0,0,1,61.29,100.18Z"/><circle class="cls-11" cx="48.48" cy="126.14" r="10.51"/><circle class="cls-11" cx="21.1" cy="121.6" r="2.71"/><circle class="cls-11" cx="80.78" cy="146.57" r="1.82"/><circle class="cls-11" cx="54.54" cy="154.61" r="3.76"/><circle class="cls-12" cx="92.18" cy="90.55" r="6.69"/><circle class="cls-12" cx="80.45" cy="65.42" r="4.73"/><circle class="cls-12" cx="101.79" cy="58.62" r="2.5"/><g class="cls-13"><path class="cls-7" d="M112,149.83a59.91,59.91,0,0,1-49.53,27.66c-1.43,0-2.87,0-4.3-.07A60.11,60.11,0,0,1,8.46,145.61c-.67-1.27-1.3-2.56-1.87-3.87A60,60,0,0,1,54.45,57.92,63.23,63.23,0,0,0,97.37,33.47c1-1.35,2-2.73,2.91-4.17l25,16A63.12,63.12,0,0,0,117.92,97c.19.65.39,1.28.59,1.92A59.9,59.9,0,0,1,112,149.83Z"/></g><g class="cls-5"><path class="cls-6" d="M117.92,97l-.14.22c-.49-2.18-1.12-5.19-1.73-8.8a110.93,110.93,0,0,1-2-15.87c-.25-7.4-.37-11.1.92-15,1.4-4.27,3.3-6.42,2.39-9.54-.7-2.37-2.56-3.72-5-5.34a169.43,169.43,0,0,0-15.08-9.12c1-1.35,2-2.73,2.91-4.17l25,16A63.12,63.12,0,0,0,117.92,97Z"/></g><g class="cls-5"><path class="cls-6" d="M112,149.83a59.91,59.91,0,0,1-49.53,27.66c-1.43,0-2.87,0-4.3-.07A59.93,59.93,0,0,1,8.46,145.61a61.43,61.43,0,0,1-6.63-23.89,62.74,62.74,0,0,1,3.6-25.65,61.71,61.71,0,0,0,115.26,31.15A59.64,59.64,0,0,1,112,149.83Z"/></g><path class="cls-9" d="M50.29,178a59.79,59.79,0,0,1-7.43-1.86,61.42,61.42,0,0,1-35.7-29.8c-.69-1.3-1.34-2.63-1.92-4A61.57,61.57,0,0,1,18.53,73.5,61.37,61.37,0,0,1,41.32,59.43a62.5,62.5,0,0,1,13-3A61.48,61.48,0,0,0,99,28.51a1.46,1.46,0,0,1,2-.45l25,16a1.48,1.48,0,0,1,.45,2h0a61.45,61.45,0,0,0-6.6,52.35,62.19,62.19,0,0,1,2.73,13,61.51,61.51,0,0,1-.13,13.36A60.73,60.73,0,0,1,119.43,138a61.92,61.92,0,0,1-6.17,12.58h0A61.21,61.21,0,0,1,91,171.42,62,62,0,0,1,62.52,179c-1.46,0-2.94,0-4.41-.08A60.24,60.24,0,0,1,50.29,178ZM100.71,31.33a64.48,64.48,0,0,1-8.22,9.91A64.67,64.67,0,0,1,81.37,50,64.93,64.93,0,0,1,68.6,56.14a64.88,64.88,0,0,1-14,3.24A58.53,58.53,0,0,0,7.94,141.14c.56,1.27,1.17,2.55,1.83,3.78a58.59,58.59,0,0,0,48.5,31c1.4.08,2.81.1,4.2.08a58.43,58.43,0,0,0,48.3-27l1.25.8-1.25-.8a58.29,58.29,0,0,0,6.34-49.68,64.84,64.84,0,0,1,.59-42,64.77,64.77,0,0,1,5.55-11.61Z"/><g class="cls-5"><path class="cls-4" d="M47.74,94.41c-3.68,4.32-7,8.4-10.1,11.73s-6.1,5.79-9.08,5.36c-2.83-.38-5.32-4.09-5.38-10.1s2.25-14.09,8.14-20.9S44.76,69.91,50.6,69s10,.92,10.85,3.65-1.09,6.21-3.79,9.84S51.4,90.07,47.74,94.41Z"/></g></g></g></svg>