<svg xmlns="http://www.w3.org/2000/svg" viewBox="0 0 89.28 89.28"><defs><style>.cls-1{fill:#a7a9ac;stroke:#a7a9ac;stroke-width:1.11px;}.cls-1,.cls-2{stroke-miterlimit:10;}.cls-2{fill:#95276d;stroke:#be1e2d;stroke-width:0.56px;}.cls-3{fill:none;}</style></defs><title>question_1</title><g id="Layer_2" data-name="Layer 2"><g id="Layer_1-2" data-name="Layer 1"><path class="cls-1" d="M38.59,48c0-8.27,13.53-9.24,13.53-14,0-2.16-2.13-4-7.23-4a16.89,16.89,0,0,0-11.4,4.3L26,27.94c4.91-4.31,12.33-6.74,20.3-6.74,12,0,19.28,4.52,19.28,11,0,10.14-15.48,10.91-15.48,16.74a3.8,3.8,0,0,0,1.67,2.92l-10.1,2.22A7.75,7.75,0,0,1,38.59,48Zm0,15.42c0-3.06,3.43-5.63,7.51-5.63s7.51,2.57,7.51,5.63S50.18,69,46.1,69,38.59,66.43,38.59,63.37Z"/><path class="cls-2" d="M36.32,47c0-8.27,13.54-9.24,13.54-14,0-2.16-2.13-4-7.23-4a16.92,16.92,0,0,0-11.41,4.3L23.72,27c4.91-4.3,12.33-6.74,20.3-6.74,12,0,19.28,4.52,19.28,11C63.3,41.4,47.82,42.17,47.82,48a3.8,3.8,0,0,0,1.67,2.92L39.38,53.14A7.78,7.78,0,0,1,36.32,47Zm0,15.42c0-3.06,3.43-5.63,7.51-5.63s7.51,2.57,7.51,5.63-3.43,5.63-7.51,5.63S36.32,65.51,36.32,62.45Z"/><rect class="cls-3" width="89.28" height="89.28"/></g></g></svg>