<svg xmlns="http://www.w3.org/2000/svg" xmlns:xlink="http://www.w3.org/1999/xlink" viewBox="0 0 533.55 508.36"><defs><style>.cls-1{isolation:isolate;}.cls-10,.cls-100,.cls-101,.cls-102,.cls-103,.cls-104,.cls-105,.cls-106,.cls-107,.cls-108,.cls-109,.cls-11,.cls-110,.cls-111,.cls-112,.cls-113,.cls-114,.cls-115,.cls-116,.cls-117,.cls-118,.cls-119,.cls-12,.cls-120,.cls-121,.cls-122,.cls-123,.cls-124,.cls-125,.cls-126,.cls-127,.cls-128,.cls-129,.cls-13,.cls-130,.cls-131,.cls-132,.cls-133,.cls-134,.cls-14,.cls-15,.cls-16,.cls-17,.cls-18,.cls-19,.cls-2,.cls-20,.cls-21,.cls-22,.cls-23,.cls-24,.cls-25,.cls-26,.cls-27,.cls-28,.cls-29,.cls-3,.cls-30,.cls-31,.cls-32,.cls-33,.cls-35,.cls-36,.cls-38,.cls-39,.cls-4,.cls-40,.cls-41,.cls-42,.cls-43,.cls-45,.cls-46,.cls-47,.cls-48,.cls-49,.cls-5,.cls-50,.cls-51,.cls-52,.cls-53,.cls-54,.cls-55,.cls-56,.cls-57,.cls-58,.cls-59,.cls-6,.cls-60,.cls-61,.cls-62,.cls-63,.cls-64,.cls-65,.cls-66,.cls-7,.cls-8,.cls-84,.cls-85,.cls-89,.cls-95,.cls-96,.cls-97,.cls-98,.cls-99{fill-rule:evenodd;}.cls-2{fill:url(#_534);}.cls-100,.cls-101,.cls-102,.cls-109,.cls-115,.cls-116,.cls-12,.cls-124,.cls-125,.cls-126,.cls-132,.cls-133,.cls-134,.cls-136,.cls-14,.cls-140,.cls-141,.cls-142,.cls-15,.cls-22,.cls-23,.cls-24,.cls-25,.cls-26,.cls-27,.cls-3,.cls-31,.cls-33,.cls-34,.cls-39,.cls-4,.cls-41,.cls-42,.cls-51,.cls-52,.cls-53,.cls-54,.cls-55,.cls-56,.cls-57,.cls-58,.cls-59,.cls-60,.cls-61,.cls-62,.cls-63,.cls-64,.cls-65,.cls-81,.cls-82,.cls-86,.cls-9,.cls-99{mix-blend-mode:multiply;}.cls-3{fill:url(#_533);}.cls-4{fill:url(#_533-2);}.cls-28,.cls-29,.cls-30,.cls-32,.cls-5,.cls-51,.cls-52,.cls-53,.cls-54,.cls-55,.cls-56,.cls-57,.cls-58,.cls-59,.cls-6,.cls-60,.cls-61,.cls-62,.cls-63,.cls-64,.cls-67,.cls-68,.cls-69,.cls-70,.cls-72,.cls-73,.cls-84{opacity:0.5;}.cls-114,.cls-118,.cls-123,.cls-131,.cls-28,.cls-29,.cls-30,.cls-32,.cls-5,.cls-6,.cls-67,.cls-68,.cls-69,.cls-70,.cls-71,.cls-72,.cls-73,.cls-78,.cls-79,.cls-80,.cls-84,.cls-87,.cls-93,.cls-94{mix-blend-mode:screen;}.cls-5{fill:url(#_566);}.cls-6{fill:url(#_566-2);}.cls-7{fill:url(#_563);}.cls-8{fill:url(#_532);}.cls-80,.cls-9{fill:#4e201e;}.cls-109,.cls-114,.cls-123,.cls-131,.cls-71,.cls-78,.cls-79,.cls-80,.cls-82,.cls-87,.cls-9{opacity:0.2;}.cls-10{fill:url(#_564);}.cls-11{fill:url(#_563-2);}.cls-12{fill:#7d1416;opacity:0.46;}.cls-13{fill:url(#_556);}.cls-14{fill:url(#_533-3);}.cls-15{fill:url(#_533-4);}.cls-16{fill:url(#_562);}.cls-17{fill:url(#_561);}.cls-18{fill:url(#_558);}.cls-19{fill:url(#_534-2);}.cls-20{fill:url(#_557);}.cls-21{fill:url(#_557-2);}.cls-136,.cls-140,.cls-141,.cls-142,.cls-22,.cls-23,.cls-24,.cls-25,.cls-26,.cls-27,.cls-33,.cls-65,.cls-81,.cls-86{opacity:0.6;}.cls-22{fill:url(#_533-5);}.cls-23,.cls-31{fill:url(#_533-6);}.cls-24{fill:url(#_533-7);}.cls-25{fill:url(#_533-8);}.cls-26{fill:url(#_533-9);}.cls-27{fill:url(#_533-10);}.cls-28{fill:url(#_526);}.cls-29{fill:url(#_526-2);}.cls-30{fill:url(#_526-3);}.cls-32{fill:url(#_526-4);}.cls-33{fill:url(#_533-12);}.cls-34{opacity:0.4;}.cls-35{fill:#d7617d;}.cls-36,.cls-37{fill:#671c3f;}.cls-38{fill:url(#_534-3);}.cls-39{fill:url(#_533-13);}.cls-40{fill:url(#_534-4);}.cls-41{fill:url(#_533-14);}.cls-42{fill:url(#_533-15);}.cls-43{fill:url(#_556-2);}.cls-44{fill:#490f29;}.cls-45{fill:url(#_555);}.cls-46{fill:url(#_552);}.cls-47{fill:url(#_551);}.cls-48{fill:url(#_550);}.cls-49{fill:url(#_549);}.cls-50{fill:url(#_548);}.cls-51{fill:url(#_547);}.cls-52{fill:url(#_547-2);}.cls-53{fill:url(#_547-3);}.cls-54{fill:url(#_547-4);}.cls-55{fill:url(#_547-5);}.cls-56{fill:url(#_547-6);}.cls-57{fill:url(#_547-7);}.cls-58{fill:url(#_547-8);}.cls-59{fill:url(#_547-9);}.cls-60{fill:url(#_547-10);}.cls-61{fill:url(#_547-11);}.cls-62{fill:url(#_547-12);}.cls-63{fill:url(#_547-13);}.cls-64{fill:url(#_547-14);}.cls-65{fill:#704987;}.cls-66{fill:url(#_545);}.cls-67{fill:url(#_526-5);}.cls-68{fill:url(#_526-6);}.cls-69{fill:url(#_526-7);}.cls-70{fill:url(#_526-8);}.cls-71{fill:url(#_526-9);}.cls-72{fill:url(#_526-10);}.cls-73{fill:url(#_526-11);}.cls-74{fill:#4a191e;}.cls-75{fill:url(#_522);}.cls-76{fill:url(#_522-2);}.cls-77{fill:url(#_522-3);}.cls-78{fill:url(#_544);}.cls-79{fill:url(#_541);}.cls-81{fill:url(#_523);}.cls-82{fill:#5d1938;}.cls-83{fill:#6b181e;}.cls-84{fill:url(#_540);}.cls-85{fill:url(#_538);}.cls-86{fill:#a296a0;}.cls-87{fill:url(#_526-12);}.cls-88{fill:#c35e41;}.cls-89{fill:url(#_537);}.cls-90{fill:#e5784f;}.cls-91{fill:#9f5040;}.cls-92{fill:#eb7b62;}.cls-93{fill:url(#_526-13);}.cls-94{opacity:0.76;fill:url(#_526-14);}.cls-95{fill:#f38e20;}.cls-96{fill:url(#_536);}.cls-97{fill:#461517;}.cls-98{fill:url(#_534-5);}.cls-99{fill:url(#_533-16);}.cls-100{fill:url(#_533-17);}.cls-101{fill:url(#_533-18);}.cls-102{fill:url(#_533-19);}.cls-103{fill:url(#_532-2);}.cls-104{fill:url(#_532-3);}.cls-105{fill:url(#_532-4);}.cls-106{fill:url(#_530);}.cls-107{fill:url(#_530-2);}.cls-108{fill:url(#_530-3);}.cls-109{fill:url(#_525);}.cls-110{fill:url(#_529);}.cls-111{fill:url(#_525-2);}.cls-112{fill:url(#_528);}.cls-113{fill:url(#_527);}.cls-114{fill:url(#_526-15);}.cls-115,.cls-116,.cls-124,.cls-125,.cls-126,.cls-132,.cls-133,.cls-134{opacity:0.3;}.cls-115{fill:url(#_525-3);}.cls-116{fill:url(#_525-4);}.cls-117,.cls-118{fill:#a69892;}.cls-118{opacity:0.45;}.cls-119{fill:url(#_529-2);}.cls-120{fill:url(#_525-5);}.cls-121{fill:url(#_528-2);}.cls-122{fill:url(#_527-2);}.cls-123{fill:url(#_526-16);}.cls-124{fill:url(#_525-6);}.cls-125{fill:url(#_525-7);}.cls-126{fill:url(#_525-8);}.cls-127{fill:url(#_529-3);}.cls-128{fill:url(#_525-9);}.cls-129{fill:url(#_528-3);}.cls-130{fill:url(#_527-3);}.cls-131{fill:url(#_526-17);}.cls-132{fill:url(#_525-10);}.cls-133{fill:url(#_525-11);}.cls-134{fill:url(#_525-12);}.cls-135{fill:#540f21;}.cls-136{fill:url(#_523-2);}.cls-137{fill:url(#_522-4);}.cls-138{fill:#af5f41;}.cls-139{fill:#b75f40;}.cls-140{fill:url(#_521);}.cls-141{fill:url(#_521-2);}.cls-142{fill:url(#_521-3);}</style><radialGradient id="_534" cx="-15.18" cy="139.06" r="109.24" gradientTransform="matrix(-1, 0, 0, 1, 180.05, 0)" gradientUnits="userSpaceOnUse"><stop offset="0" stop-color="#5c3356"/><stop offset="1" stop-color="#39162f"/></radialGradient><linearGradient id="_533" x1="95.78" y1="217.69" x2="95.78" y2="115.38" gradientTransform="matrix(-1, 0, 0, 1, 180.05, 0)" gradientUnits="userSpaceOnUse"><stop offset="0" stop-color="#a982ba"/><stop offset="1" stop-color="#d7617d"/></linearGradient><linearGradient id="_533-2" x1="105.96" y1="185.39" x2="105.96" y2="133.44" xlink:href="#_533"/><linearGradient id="_566" x1="107.81" y1="159.41" x2="162.04" y2="159.41" gradientTransform="matrix(-1, 0, 0, 1, 180.05, 0)" gradientUnits="userSpaceOnUse"><stop offset="0" stop-color="#010101"/><stop offset="1" stop-color="#95703d"/></linearGradient><linearGradient id="_566-2" x1="111.85" y1="177.7" x2="164.95" y2="177.7" xlink:href="#_566"/><radialGradient id="_563" cx="-29.95" cy="121.63" r="112.66" gradientTransform="matrix(-1, 0, 0, 1, 180.05, 0)" gradientUnits="userSpaceOnUse"><stop offset="0" stop-color="#e06526"/><stop offset="1" stop-color="#8e333f"/></radialGradient><linearGradient id="_532" x1="57.37" y1="401.16" x2="57.37" y2="299.99" gradientTransform="matrix(-1, 0, 0, 1, 180.05, 0)" gradientUnits="userSpaceOnUse"><stop offset="0" stop-color="#461021"/><stop offset="1" stop-color="#500a34"/></linearGradient><linearGradient id="_564" x1="7.21" y1="382.85" x2="7.21" y2="0.32" gradientTransform="matrix(-1, 0, 0, 1, 180.05, 0)" gradientUnits="userSpaceOnUse"><stop offset="0" stop-color="#a43b23"/><stop offset="1" stop-color="#8e1c3e"/></linearGradient><radialGradient id="_563-2" cx="-89.68" cy="273.65" r="132.94" xlink:href="#_563"/><radialGradient id="_556" cx="-44.94" cy="283.76" r="105.44" gradientTransform="matrix(-1, 0, 0, 1, 180.05, 0)" gradientUnits="userSpaceOnUse"><stop offset="0" stop-color="#46193f"/><stop offset="1" stop-color="#39162f"/></radialGradient><linearGradient id="_533-3" x1="-79.51" y1="295.62" x2="69.2" y2="295.62" xlink:href="#_533"/><linearGradient id="_533-4" x1="74.81" y1="297.47" x2="144.06" y2="297.47" xlink:href="#_533"/><linearGradient id="_562" x1="-154.37" y1="99.2" x2="83.02" y2="99.2" gradientTransform="matrix(-1, 0, 0, 1, 180.05, 0)" gradientUnits="userSpaceOnUse"><stop offset="0" stop-color="#e06526"/><stop offset="1" stop-color="#6b103f"/></linearGradient><linearGradient id="_561" x1="-71.54" y1="382.63" x2="-71.54" y2="60.63" gradientTransform="matrix(-1, 0, 0, 1, 180.05, 0)" gradientUnits="userSpaceOnUse"><stop offset="0" stop-color="#e06526"/><stop offset="1" stop-color="#8e1c3e"/></linearGradient><radialGradient id="_558" cx="-138.95" cy="107.55" r="0.14" gradientTransform="matrix(-1, 0, 0, 1, 180.05, 0)" gradientUnits="userSpaceOnUse"><stop offset="0" stop-color="#ef372e"/><stop offset="1" stop-color="#d71f2d"/></radialGradient><radialGradient id="_534-2" cx="-92.19" cy="135.27" r="134.85" xlink:href="#_534"/><linearGradient id="_557" x1="-60.42" y1="222.97" x2="-99.92" y2="136.19" gradientTransform="matrix(-0.85, 0, 0, 1, 171.32, 1.9)" gradientUnits="userSpaceOnUse"><stop offset="0" stop-color="#c89296"/><stop offset="1" stop-color="#fff6d1"/></linearGradient><linearGradient id="_557-2" x1="-88.56" y1="245.43" x2="-132.19" y2="149.56" xlink:href="#_557"/><linearGradient id="_533-5" x1="-45.81" y1="130.2" x2="-45.81" y2="92.11" xlink:href="#_533"/><linearGradient id="_533-6" x1="-60.17" y1="293.49" x2="-60.17" y2="87.62" xlink:href="#_533"/><linearGradient id="_533-7" x1="-163.17" y1="202.63" x2="-163.17" y2="127.43" xlink:href="#_533"/><linearGradient id="_533-8" x1="41.12" y1="173.92" x2="41.12" y2="87.62" xlink:href="#_533"/><linearGradient id="_533-9" x1="-202.51" y1="292.33" x2="-202.51" y2="232.32" xlink:href="#_533"/><linearGradient id="_533-10" x1="-184.78" y1="285.86" x2="-184.78" y2="248.94" xlink:href="#_533"/><linearGradient id="_526" x1="-13.38" y1="122.04" x2="-13.38" y2="91.68" gradientTransform="matrix(-1, 0, 0, 1, 180.05, 0)" gradientUnits="userSpaceOnUse"><stop offset="0" stop-color="#010101"/><stop offset="1" stop-color="#d7883a"/></linearGradient><linearGradient id="_526-2" x1="-38.47" y1="139.21" x2="-38.47" y2="97.28" xlink:href="#_526"/><linearGradient id="_526-3" x1="38.04" y1="183.32" x2="38.04" y2="97.28" xlink:href="#_526"/><linearGradient id="_526-4" x1="-119.73" y1="168.82" x2="-119.73" y2="120.36" xlink:href="#_526"/><linearGradient id="_533-12" x1="-120.57" y1="168.82" x2="-120.57" y2="122.04" xlink:href="#_533"/><radialGradient id="_534-3" cx="65.1" cy="25.53" r="56.25" xlink:href="#_534"/><linearGradient id="_533-13" x1="9.08" y1="147.09" x2="9.08" y2="144.38" xlink:href="#_533"/><radialGradient id="_534-4" cx="172.26" cy="130.61" r="29.77" xlink:href="#_534"/><linearGradient id="_533-14" x1="12" y1="40.77" x2="43.53" y2="40.77" xlink:href="#_533"/><linearGradient id="_533-15" x1="74.98" y1="44.94" x2="120.36" y2="44.94" xlink:href="#_533"/><radialGradient id="_556-2" cx="143.97" cy="294.91" r="23.25" xlink:href="#_556"/><radialGradient id="_555" cx="-325.85" cy="162.17" r="31.41" gradientTransform="matrix(-1, 0, 0, 1, 180.05, 0)" gradientUnits="userSpaceOnUse"><stop offset="0" stop-color="#46173f"/><stop offset="1" stop-color="#39162f"/></radialGradient><radialGradient id="_552" cx="-2.24" cy="396.21" r="113.15" gradientTransform="matrix(-1, 0.07, 0.14, 1.94, 120.98, -382.47)" gradientUnits="userSpaceOnUse"><stop offset="0" stop-color="#e06526"/><stop offset="1" stop-color="#d0483e"/></radialGradient><linearGradient id="_551" x1="-86.72" y1="508.35" x2="-86.72" y2="139.76" gradientTransform="matrix(-1, 0, 0, 1, 180.05, 0)" gradientUnits="userSpaceOnUse"><stop offset="0" stop-color="#3f123e"/><stop offset="1" stop-color="#d3613b"/></linearGradient><linearGradient id="_550" x1="-248.66" y1="508.36" x2="-248.66" y2="254.69" gradientTransform="matrix(-1, 0, 0, 1, 180.05, 0)" gradientUnits="userSpaceOnUse"><stop offset="0" stop-color="#51102a"/><stop offset="1" stop-color="#d3613b"/></linearGradient><linearGradient id="_549" x1="-277.45" y1="508.36" x2="-277.45" y2="139.76" gradientTransform="matrix(-1, 0, 0, 1, 180.05, 0)" gradientUnits="userSpaceOnUse"><stop offset="0" stop-color="#420c2f"/><stop offset="1" stop-color="#ac3e25"/></linearGradient><radialGradient id="_548" cx="-263" cy="347.16" r="121.43" gradientTransform="matrix(-1, 0, 0, 1, 180.05, 0)" gradientUnits="userSpaceOnUse"><stop offset="0" stop-color="#ce784d"/><stop offset="1" stop-color="#9e343f"/></radialGradient><linearGradient id="_547" x1="-138.17" y1="319.49" x2="-138.17" y2="287.16" gradientTransform="matrix(-1, 0, 0, 1, 180.05, 0)" gradientUnits="userSpaceOnUse"><stop offset="0.01" stop-color="#af4399"/><stop offset="1" stop-color="#df8367"/></linearGradient><linearGradient id="_547-2" x1="133.77" y1="381.53" x2="133.77" y2="345.02" xlink:href="#_547"/><linearGradient id="_547-3" x1="-248.62" y1="335.28" x2="-248.62" y2="331.87" xlink:href="#_547"/><linearGradient id="_547-4" x1="-125.38" y1="356.58" x2="-125.38" y2="335.3" xlink:href="#_547"/><linearGradient id="_547-5" x1="111.12" y1="409.79" x2="111.12" y2="370.55" xlink:href="#_547"/><linearGradient id="_547-6" x1="-42.84" y1="442.77" x2="-42.84" y2="381.53" xlink:href="#_547"/><linearGradient id="_547-7" x1="-39.59" y1="457.41" x2="-39.59" y2="412.6" xlink:href="#_547"/><linearGradient id="_547-8" x1="-39.15" y1="481.42" x2="-39.15" y2="451.3" xlink:href="#_547"/><linearGradient id="_547-9" x1="-42.43" y1="500.66" x2="-42.43" y2="485.35" xlink:href="#_547"/><linearGradient id="_547-10" x1="-283.96" y1="310.04" x2="-283.96" y2="292.72" xlink:href="#_547"/><linearGradient id="_547-11" x1="-281.97" y1="347.16" x2="-281.97" y2="327.91" xlink:href="#_547"/><linearGradient id="_547-12" x1="-266.24" y1="400.41" x2="-266.24" y2="381.53" xlink:href="#_547"/><linearGradient id="_547-13" x1="-244.49" y1="435.09" x2="-244.49" y2="418.86" xlink:href="#_547"/><linearGradient id="_547-14" x1="-224.08" y1="457.41" x2="-224.08" y2="451.3" xlink:href="#_547"/><radialGradient id="_545" cx="89.03" cy="350.14" r="18.57" gradientTransform="matrix(-1, 0, 0, 1, 180.05, 0)" gradientUnits="userSpaceOnUse"><stop offset="0" stop-color="#e06526"/><stop offset="1" stop-color="#c9523e"/></radialGradient><linearGradient id="_526-5" x1="-35.79" y1="457.55" x2="-35.79" y2="417.51" xlink:href="#_526"/><linearGradient id="_526-6" x1="-39.65" y1="441.46" x2="-39.65" y2="382.85" xlink:href="#_526"/><linearGradient id="_526-7" x1="-124.91" y1="358.9" x2="-124.91" y2="335.3" xlink:href="#_526"/><linearGradient id="_526-8" x1="109.4" y1="409.79" x2="109.4" y2="370.18" xlink:href="#_526"/><linearGradient id="_526-9" x1="-37.05" y1="480.7" x2="-37.05" y2="454.44" xlink:href="#_526"/><linearGradient id="_526-10" x1="-127.69" y1="319.49" x2="-127.69" y2="295.88" xlink:href="#_526"/><linearGradient id="_526-11" x1="134.56" y1="381.53" x2="134.56" y2="350.14" xlink:href="#_526"/><linearGradient id="_522" x1="-177.15" y1="394.12" x2="2.04" y2="394.12" gradientTransform="matrix(-1, 0, 0, 1, 180.05, 0)" gradientUnits="userSpaceOnUse"><stop offset="0" stop-color="#42121f"/><stop offset="1" stop-color="#371628"/></linearGradient><linearGradient id="_522-2" x1="-212.74" y1="430.16" x2="-54.26" y2="430.16" xlink:href="#_522"/><linearGradient id="_522-3" x1="20.81" y1="470.36" x2="102.13" y2="470.36" xlink:href="#_522"/><radialGradient id="_544" cx="61.45" cy="471.56" r="34.16" gradientTransform="matrix(-1, 0, 0, 1, 180.05, 0)" gradientUnits="userSpaceOnUse"><stop offset="0" stop-color="#d7883a"/><stop offset="1" stop-color="#010101"/></radialGradient><linearGradient id="_541" x1="-254.52" y1="359.87" x2="-89.32" y2="359.87" gradientTransform="matrix(-1, 0, 0, 1, 180.05, 0)" xlink:href="#_544"/><linearGradient id="_523" x1="-39.34" y1="508.36" x2="-39.34" y2="250.39" gradientTransform="matrix(-1, 0, 0, 1, 180.05, 0)" gradientUnits="userSpaceOnUse"><stop offset="0" stop-color="#a982ba"/><stop offset="1" stop-color="#fbb47c"/></linearGradient><linearGradient id="_540" x1="-45.22" y1="508.35" x2="-45.22" y2="476.4" gradientTransform="matrix(-1, 0, 0, 1, 180.05, 0)" gradientUnits="userSpaceOnUse"><stop offset="0" stop-color="#52898e"/><stop offset="1" stop-color="#010101"/></linearGradient><radialGradient id="_538" cx="-135.35" cy="269.92" r="81.83" gradientTransform="matrix(-1, 0, 0, 1, 180.05, 0)" gradientUnits="userSpaceOnUse"><stop offset="0" stop-color="#e06526"/><stop offset="1" stop-color="#e0553e"/></radialGradient><linearGradient id="_526-12" x1="-141.34" y1="305.94" x2="-141.34" y2="261.39" xlink:href="#_526"/><linearGradient id="_537" x1="-134.12" y1="354.9" x2="-134.12" y2="344.47" gradientTransform="matrix(-1, 0, 0, 1, 180.05, 0)" gradientUnits="userSpaceOnUse"><stop offset="0" stop-color="#5f133e"/><stop offset="1" stop-color="#811e1e"/></linearGradient><linearGradient id="_526-13" x1="-268.35" y1="437.53" x2="-268.35" y2="280.65" xlink:href="#_526"/><linearGradient id="_526-14" x1="96.65" y1="469.74" x2="197.9" y2="381.73" xlink:href="#_526"/><linearGradient id="_536" x1="-240.34" y1="280.79" x2="-229.01" y2="280.79" gradientTransform="matrix(-1, 0, 0, 1, 180.05, 0)" gradientUnits="userSpaceOnUse"><stop offset="0" stop-color="#6b1b1e"/><stop offset="1" stop-color="#5f133e"/></linearGradient><radialGradient id="_534-5" cx="-324.26" cy="183.08" r="66.48" xlink:href="#_534"/><linearGradient id="_533-16" x1="-333.61" y1="184.24" x2="-333.61" y2="150.82" xlink:href="#_533"/><linearGradient id="_533-17" x1="-321.04" y1="231.31" x2="-321.04" y2="164.01" xlink:href="#_533"/><linearGradient id="_533-18" x1="-309.58" y1="219.25" x2="-309.58" y2="177.45" xlink:href="#_533"/><linearGradient id="_533-19" x1="-303.52" y1="263.34" x2="-303.52" y2="186.99" xlink:href="#_533"/><linearGradient id="_532-2" x1="-75.35" y1="441.46" x2="-75.35" y2="392.12" xlink:href="#_532"/><linearGradient id="_532-3" x1="20.94" y1="448.86" x2="20.94" y2="401.92" xlink:href="#_532"/><linearGradient id="_532-4" x1="88.58" y1="453.95" x2="88.58" y2="415.55" xlink:href="#_532"/><linearGradient id="_530" x1="-104.06" y1="417.67" x2="-53.51" y2="417.67" gradientTransform="matrix(-1, 0, 0, 1, 180.05, 0)" gradientUnits="userSpaceOnUse"><stop offset="0" stop-color="#200d16"/><stop offset="1" stop-color="#371628"/></linearGradient><linearGradient id="_530-2" x1="-1.16" y1="426.9" x2="36.55" y2="426.9" xlink:href="#_530"/><linearGradient id="_530-3" x1="69.82" y1="436.32" x2="100.87" y2="436.32" xlink:href="#_530"/><linearGradient id="_525" x1="-76" y1="402.22" x2="-71.33" y2="402.22" gradientTransform="matrix(-1, 0, 0, 1, 180.05, 0)" gradientUnits="userSpaceOnUse"><stop offset="0.01" stop-color="#4f2d45"/><stop offset="1" stop-color="#6a5568"/></linearGradient><linearGradient id="_529" x1="-80.88" y1="435.1" x2="-78.31" y2="401.61" gradientTransform="matrix(-1, 0, 0, 1, 180.05, 0)" gradientUnits="userSpaceOnUse"><stop offset="0.01" stop-color="#47223d"/><stop offset="1" stop-color="#5d465b"/></linearGradient><linearGradient id="_525-2" x1="-60" y1="429.24" x2="-60" y2="389.04" gradientTransform="matrix(-1, -0.08, -0.08, 1, 211.85, 6.59)" xlink:href="#_525"/><linearGradient id="_528" x1="-58.12" y1="428.38" x2="-58.12" y2="391.3" gradientTransform="matrix(-1, -0.08, -0.08, 1, 211.85, 6.59)" gradientUnits="userSpaceOnUse"><stop offset="0" stop-color="#7b647e"/><stop offset="1" stop-color="#9f7768"/></linearGradient><linearGradient id="_527" x1="-57.37" y1="432.8" x2="-57.37" y2="405.75" gradientTransform="matrix(-1, 0, 0, 1, 180.05, 0)" gradientUnits="userSpaceOnUse"><stop offset="0" stop-color="#5d465b"/><stop offset="0.99" stop-color="#34142a"/></linearGradient><linearGradient id="_526-15" x1="-68.05" y1="429.12" x2="-48.58" y2="429.12" xlink:href="#_526"/><linearGradient id="_525-3" x1="-102.86" y1="418.19" x2="-71.21" y2="418.19" xlink:href="#_525"/><linearGradient id="_525-4" x1="-68.51" y1="414.31" x2="-46.01" y2="414.31" xlink:href="#_525"/><linearGradient id="_529-2" x1="16.72" y1="441.72" x2="18.99" y2="412.26" xlink:href="#_529"/><linearGradient id="_525-5" x1="31.23" y1="442.3" x2="31.23" y2="406.8" gradientTransform="matrix(-1, -0.08, -0.08, 1, 211.85, 6.59)" xlink:href="#_525"/><linearGradient id="_528-2" x1="32.89" y1="441.54" x2="32.89" y2="408.8" xlink:href="#_528"/><linearGradient id="_527-2" x1="34.44" y1="439.57" x2="34.44" y2="415.69" xlink:href="#_527"/><linearGradient id="_526-16" x1="25.01" y1="436.32" x2="42.2" y2="436.32" xlink:href="#_526"/><linearGradient id="_525-6" x1="5.57" y1="414.07" x2="17.7" y2="414.07" xlink:href="#_525"/><linearGradient id="_525-7" x1="0.36" y1="432.71" x2="22.21" y2="432.71" xlink:href="#_525"/><linearGradient id="_525-8" x1="24.6" y1="423.25" x2="44.47" y2="423.25" xlink:href="#_525"/><linearGradient id="_529-3" x1="84.71" y1="448.14" x2="86.46" y2="425.43" xlink:href="#_529"/><linearGradient id="_525-9" x1="94.57" y1="452.8" x2="94.57" y2="425.42" gradientTransform="matrix(-1, -0.08, -0.08, 1, 211.85, 6.59)" xlink:href="#_525"/><linearGradient id="_528-3" x1="95.85" y1="452.21" x2="95.85" y2="426.96" xlink:href="#_528"/><linearGradient id="_527-3" x1="98.13" y1="446.47" x2="98.13" y2="428.04" xlink:href="#_527"/><linearGradient id="_526-17" x1="90.86" y1="443.96" x2="104.12" y2="443.96" xlink:href="#_526"/><linearGradient id="_525-10" x1="79.41" y1="425.59" x2="85.22" y2="425.59" xlink:href="#_525"/><linearGradient id="_525-11" x1="72.32" y1="441.18" x2="88.7" y2="441.18" xlink:href="#_525"/><linearGradient id="_525-12" x1="90.55" y1="433.88" x2="105.87" y2="433.88" xlink:href="#_525"/><linearGradient id="_523-2" x1="132.86" y1="387.25" x2="148.48" y2="387.25" xlink:href="#_523"/><linearGradient id="_522-4" x1="-167.3" y1="413.62" x2="-144.65" y2="413.62" xlink:href="#_522"/><linearGradient id="_521" x1="-74.47" y1="476.41" x2="-74.47" y2="435.01" gradientTransform="matrix(-1, 0, 0, 1, 180.05, 0)" gradientUnits="userSpaceOnUse"><stop offset="0" stop-color="#b09da4"/><stop offset="1" stop-color="#84506c"/></linearGradient><linearGradient id="_521-2" x1="14.88" y1="473.19" x2="14.88" y2="446.5" xlink:href="#_521"/><linearGradient id="_521-3" x1="83.37" y1="477.41" x2="83.37" y2="452.83" xlink:href="#_521"/></defs><title>Asset 1</title><g class="cls-1"><g id="Layer_2" data-name="Layer 2"><g id="Layer_1-2" data-name="Layer 1"><path class="cls-2" d="M8.94,116s2.17,100.74,32.34,101.66,45.56-67.58,45.56-67.58,14.17,21.7,42.32,19.12A55.55,55.55,0,0,0,150,162.8a80.32,80.32,0,0,0,20.24-15.71c.24-.25.46-.48.67-.72a65.9,65.9,0,0,0,4.89-5.85s6.86,24.21,18.29,27.61a27.36,27.36,0,0,0,20.42-1.92s84.08,44,98.19,28.76,2.74-64.45,2.74-64.45L80.6,120.63S51.91,135.75,36,129c-15.47-6.5-23.71-13.26-24.16-13.64h0ZM77,147.5c-.44-2.22,2.7-11.5,5.53-12.64,0,0,0,1.06-.22,2.62v0c-.36,2.62-1.31,6.67-3.76,9.59C77.6,148.2,77.13,148.19,77,147.5Zm4.79-22.44a173.33,173.33,0,0,1-9.55,19.32C66,155.31,56.06,157.13,55.9,156s7-8.89,7-8.89l-3,.93S79.1,125,81.78,125.06Z"/><path class="cls-3" d="M8.94,116s2.17,100.74,32.34,101.66,45.56-67.58,45.56-67.58,14.17,21.7,42.32,19.12A55.55,55.55,0,0,0,150,162.8a61.53,61.53,0,0,1-18.43,3.74C99.67,168.35,88,136.13,88,136.13s-18,71.18-43.16,69.7-33-77.18-33-77.18c2.83,11,13.19,60.62,31.53,58.09C54.13,185.25,67.68,164.4,77,147.5c-.44-2.22,2.7-11.5,5.53-12.64,0,0,0,1.06-.22,2.62,3.53-6.92,5.68-11.72,5.68-11.72s16.87,24.17,37.26,23.88c18.33-.27,31.85-19.95,34.36-23.9A39.77,39.77,0,0,1,129,142.35c-21.67,1.29-42.52-21.11-42.52-21.11S56.2,181,38.91,173.92C17.26,165,13.48,122,13.19,120.67c.6,1.11,12.41,31.85,28.37,31.85,11.72,0,38.49-28,39.32-28.87C80,124.4,47.73,143.38,36,139.22c-14.47-5.16-23.7-23.17-24.16-23.83h0Z"/><path class="cls-4" d="M87,133.44s-5.71,36.18-25.82,51.95C61.18,185.39,85.31,143.17,87,133.44Z"/><path class="cls-5" d="M72.23,145.73S53.49,179,38.91,173.92,18,144.38,18,144.38s7.86,17.94,23.26,19.16C53.26,164.49,72.23,145.73,72.23,145.73Z"/><path class="cls-6" d="M68.19,186.74s-11.65,24.54-29.13,17.34S15.1,150,15.1,150s10.2,42.42,25,47.45S68.19,186.74,68.19,186.74Z"/><polygon class="cls-7" points="279.01 133.68 0.65 115.38 0.65 117.03 279.01 136.13 279.01 133.68"/><path class="cls-8" d="M11.81,353.1s110-17.62,221.75-53.11c0,0-15.86,93.24,0,101.17,0,0-117.3-19.88-209.88-6.29Z"/><path class="cls-9" d="M198.22,315.15s-84.13,18.12-94.1,27.27L105.84,354,187.23,338,122.68,353.1l.9,5.8,70.51-9.22-.72,23.22-92.56,8.63-14-6.25,3.55-37.5s67.21-14.26,109.79-27.12Z"/><path class="cls-10" d="M185.64,380.61,163.4.32H160l12.8,381.07S180.07,385.15,185.64,380.61Z"/><polygon class="cls-11" points="351.29 269.08 22.34 281.54 22.34 284.26 351.29 271.93 351.29 269.08"/><path class="cls-12" d="M182.38,325.69a11.82,11.82,0,0,0-7.35,0C171,327,171.9,354,171.9,354l-2.77-81.08,10.09-.26Z"/><path class="cls-13" d="M36,283.66s.38,10.27,5.12,18.83h0c2.76,5,7,9.36,13.54,10.79,17.75,3.84,53.63-27.42,53.63-27.42s6,6.91,25.9,10,30.13-6.73,30.13-6.73,9.82,49.2,80.79,42.72,78.37-55.2,78.37-55.2,11.36,8.6,19.73,5,8.07-12.6,8.07-12.6l-91.73,3.81-75,3.11s-2.16-6.56-8.79-6a23,23,0,0,0-11.43,4.63s-17.82,2-22.74,1.34-25.84-1.34-30.74-.81-11,5.46-11,5.46-11.36,2.64-24.4,4.21l-2.67.3-1.61.16c-3.19.32-6.43.55-9.55.62-.56,0-1.16.05-1.72.05-.94,0-1.84,0-2.69,0-.51,0-1,0-1.49,0a57.08,57.08,0,0,1-6.92-.66l-.76-.16a18.54,18.54,0,0,1-7.67-2.95,7.14,7.14,0,0,1-.64-.51L37.21,283Z"/><path class="cls-14" d="M110.86,281c.53.31,9.93,5.87,29,4.91,19.6-1,29.3-3.85,29.3-3.85a54.7,54.7,0,0,0,15.32,25.66c11.71,10.74,22.34,13.41,23,13.57-24.61-12.05-31.68-42.74-31.68-42.74,2-.56,7.58,3.12,7.58,3.12,5.67,11.55,21.14,19.12,21.14,19.12-10.66-6.36-18.26-21.3-19.7-24.24.83,1,4.37,3.23,19.7,3.5,20.07.34,53.56-5.48,53.56-5.48l1.52-1.64-75,3.11s-2.16-6.56-8.79-6a23,23,0,0,0-11.43,4.63s-17.82,2-22.74,1.34-25.84-1.34-30.74-.81c0,0,3.16,4.66,18.54,5.66A145.3,145.3,0,0,0,160,279.1s-4.62,2.53-22.76,3.72C119.62,284,111.28,281.1,110.86,281Z"/><path class="cls-15" d="M36,283.66s.38,10.27,5.12,18.83h0S51.9,314,61.48,312.89s25.36-14.21,25.36-14.21-14.42,5.8-22.11,7.26-18.14-.3-20.36-4.3S43,291.35,43,291.35s3.84,7.94,16.41,9.42c12,1.42,43-17.13,45.79-18.79-2.68,1.5-31,17.27-43.76,16.7-13.35-.63-17.7-12.74-17.7-12.74s5,3.87,16.67,2.84,15-3.92,15-3.92l-2.67.3-1.61.16c-1.27.13-2.55.23-3.83.32l-1.63.11c-1.37.09-2.75.16-4.09.19-.56,0-1.16.05-1.72.05-.94,0-1.84,0-2.69,0-.51,0-1,0-1.49,0a43.93,43.93,0,0,1-6.92-.66l-.76-.16a18.54,18.54,0,0,1-7.67-2.95l-3.13.82Z"/><polygon class="cls-16" points="334.42 109.44 97.03 86.48 97.03 88.74 334.42 111.93 334.42 109.44"/><polygon class="cls-17" points="278.18 382.63 228.16 60.63 225 60.63 264.19 382.63 278.18 382.63"/><path class="cls-18" d="M318.92,107.51a2,2,0,0,0,.11.2.61.61,0,0,0-.11-.23S318.94,107.49,318.92,107.51Z"/><path class="cls-19" d="M79.18,293.49h2.29s61.92-37.57,162.81-40,157,38.8,157,38.8l-.09-.23c-.88-2.35-8.26-21.75-20.34-50.62q-3.13-7.46-6.66-15.75l0,0h0l0,0c-2.89-6.79-6-13.95-9.29-21.4l0-.12C358,188.72,350.38,172,342.17,154.68c-.34-.74-.7-1.47-1.06-2.2-1.67-3.51-3.37-7.06-5.09-10.6-5.43-11.25-11.1-22.69-17-34.17.08.31-.06.88-1.48,1.47a0,0,0,0,0,0,0c-3.76,1.53-16.4,3.29-57.45,1.28-44.89-2.2-97.75-12.35-125.87-18.37l-.19,0c-5.61-1.18-10.22-2.22-13.57-3-4-.92-6.25-1.47-6.25-1.47l-3.34,1.94s10.83,28.79,4.79,90.33S79.18,293.49,79.18,293.49ZM344.25,186c-1.49,0-5.48-3.57-5.39-2.92a27.73,27.73,0,0,0,2.09,3.7c-.42-.32-6.79-5.25-7.21-5.61.46.3,3.11,1.19,2.38,0s-8.29-7.39-7.26-7.49,5.62,2.77,6.21,2.73.16-3.76,2.33-2.45,4.13,3.85,5.82,6.28C344.76,182.42,345.71,185.94,344.25,186Zm-5.39,6.27c0-1.51,3.65,1.67,4.2,3C343.4,196,338.85,195,338.86,192.23Zm6.89,22.48c-2-6-3.14-12.88-2.53-15.19,1-3.86,10.36,2.09,11.27,2.67-.69-.61-6.22-5.42-8.62-7.21-2.56-1.91-2.17-3.17-.69-4s7.92-.27,10.9,2.78c2.78,2.82,6.55,15.37,6.55,19.89,0,2.89-2.62,7.59-5.77,9.93-1.81,1.36-3.81,1.93-5.57.92C349.21,223.27,347.23,219.23,345.75,214.71Z"/><path class="cls-20" d="M273,173.16c-2.71-17.75,2.14-22.34-6.51-35.17s-40-17.8-45.33-5.33c-3.83,9,8.88,21,14.9,38.92,2,5.94,9.64,4.13,9.64,4.13,1.12,5.72,1.64,8.64,2.6,14.44,2,.06,3,.1,5,.19-.85-5.09-1.31-7.64-2.27-12.66.86,0,1.28.06,2.14.1,1.42,5.05,2.11,7.61,3.43,12.72l7.23-.16c-.93-5.05-1.42-7.59-2.45-12.56l2.46-.14c1.44,5.33,2.14,8.05,3.5,13.46,2.08.11,3.11.17,5.11.26-1.31-6-2-9-3.42-14.93C269.05,176.43,273.48,176.28,273,173.16Zm-29.18-9.7c-4,.17-12.3-7.55-13-12.15s1.06-8.3,3.95-8.05,12,7.76,13.29,10.75S247.88,163.29,243.83,163.46Zm8.27-2.58c2,.27,7.92,8.57,7.09,9.47-1.57,1.69-3.89-.36-3.89-.36l-2-4c0,1.59,0,2.39,0,4,0,0-2.23,1.24-3.74-.19S250.08,160.61,252.1,160.88Zm9.22,3.56c-4.08-.56-9.18-7.39-9.62-10.21s4.07-9.65,6.73-9.65S265,148.43,267,153,265.4,165,261.32,164.44Z"/><path class="cls-21" d="M226.94,185.26c1.19-4.34,1.58-4.8,2.56-6.4s6,2.3,6.65,5a33.89,33.89,0,0,0,1.3,4.36c10.55,5,16.83,8.27,28.5,14.2a109.59,109.59,0,0,0,9.42-6.13,73.22,73.22,0,0,0,5-8s-1.18-9,2.29-9.91c2.47-.69,5,4.11,4.46,11.77,1.95,4.82,3.41,7.8,4,10.18s-3.82,2.11-5.58.48a6,6,0,0,1-2-3.38A66.47,66.47,0,0,1,272.91,206c6.79,3.45,10.11,5.14,15.95,8,0,0,1.64-5.7,2.87-5.55s3.8,2.44,4.13,4.47a13.78,13.78,0,0,0,.09,4.48,24.36,24.36,0,0,0,2,5.34,4.17,4.17,0,0,1,.11,3.88c-.89,1.24-2.36,2.46-3.75,1.37-2.37-1.89-3.48-6.1-3.48-6.1-8.43-4.14-13.52-6.87-23.54-12.18-9.81,6.08-15.66,8.83-26.56,14.65,0,0,1,6.48-.28,7.53s-5.54.44-5.93.31-.05-1.82-1.53-3.67-5.45-2.95-5.45-2.95.28-6.88,2.81-7.76,5.25,1.67,5.25,1.67c9.6-5.73,15-8.26,24.49-13.6-7.17-3.81-10.8-5.74-17.48-9.21-3.47-1.61-5.16-2.38-8.34-3.78,0,0-4.46,4.75-8.19,1C223.43,191.14,225.51,190.44,226.94,185.26Z"/><path class="cls-22" d="M311.31,113.62a64.15,64.15,0,0,0,6.21-4.42c-3.76,1.54-16.4,3.29-57.44,1.28-44.9-2.2-97.76-12.35-125.89-18.37,9.89,2.38,24.91,6,45.39,11.1,41,10.19,107.21,12.45,107.21,12.45-18.76,6.56-60.93,14.52-60.93,14.52C247.09,130.77,302.64,119.27,311.31,113.62Z"/><path class="cls-23" d="M79.18,293.49h2.29s61.93-37.57,162.81-40,157,38.81,157,38.81-13.93-37.07-36.43-88.07l24.55,67.28c-10-11.93-24.19-36.91-25.51-39.22l20.84,46.45c-19-15.63-51.25-32.84-53.25-33.89L374,273.78s-65.71-22.3-112.51-22.56-126.69,14-126.69,14c13.56-8.69,53.35-16.91,56-17.46-48.53,7-100.64,38.64-103.49,40L125.42,260,97,271.54c28.67-23.71,42-44.53,42.76-45.82-13.54,18.66-41.87,40-42.75,40.68.47-.91,15.85-30.25,18.59-56.64,2.77-26.81,3.6-95.91,3.6-95.91s2.43,1.57,13.07,15.38c10.39,13.46,33,54.3,34.11,56.25-.73-1.54-12.74-26.58-23.71-46.36-11.29-20.42-25.33-43.37-25.33-43.37,14.2,11.1,43.17,25.44,44.3,26-13.79-10-37.28-28.94-37.28-28.94,25.08,13.36,58.64,22.72,78.75,27.58-33.29-9.12-76-28.28-82.71-31.3l-6.25-1.47-3.35,1.93s10.83,28.79,4.8,90.34S79.18,293.49,79.18,293.49Z"/><path class="cls-24" d="M361,202.63s-29.61-47.93-35.56-75.2C325.44,127.43,353.8,191.76,361,202.63Z"/><path class="cls-25" d="M167,108.37l-47.93-20-4.89-.78-3.35,1.93s3.88,11.11,4,17.65c0,0,9.68,7.26,22.56,29.31,11,18.82,23.35,37.41,23.35,37.41S134.92,124,125.67,109.54l-8.29-13.79S133,104,144.81,109c0,0-16.17-11.34-21.09-16.86Z"/><path class="cls-26" d="M363.87,232.32,389,270.56l12.24,21.77a151.36,151.36,0,0,1-19.13-25.06C372.64,251.87,363.87,232.32,363.87,232.32Z"/><path class="cls-27" d="M390.78,285.86s-21.13-22.67-51.9-36.92C338.88,248.94,376.74,272.89,390.78,285.86Z"/><path class="cls-28" d="M257.71,119.72s-26.9,6.86-64.86-3-63.71-25-63.71-25S209.84,116.76,257.71,119.72Z"/><path class="cls-29" d="M306.71,122S277.8,137.47,242,139.12,155.48,118.6,130.33,97.28c0,0,34.48,31.33,95.53,32.9S306.71,122,306.71,122Z"/><path class="cls-30" d="M118.63,97.28s19.68,17.93,30.88,34.67,15.88,51.37,15.88,51.37A697.37,697.37,0,0,0,118.63,97.28Z"/><path class="cls-31" d="M79.18,293.49h2.29s61.93-37.57,162.81-40,157,38.81,157,38.81l-.09-.23-27-66.28c1,2.76-4.93,13.22-81.39,14.13S147.7,245,134.19,202.63c-12.88-40.46-16.13-94.44-11.84-99.42s117.17,12.9,168.64,8.73l22.06-.71s17,18.54,28.06,41.25c-6.95-14.62-14.33-29.66-22.08-44.77.07.32-.08.88-1.49,1.47a0,0,0,0,0,0,0c-3.76,1.54-16.4,3.29-57.44,1.28-44.9-2.2-97.76-12.35-125.89-18.37l-.18,0c-5.6-1.18-10.22-2.23-13.57-3l-6.25-1.47-3.35,1.93s10.83,28.79,4.8,90.34S79.18,293.49,79.18,293.49Z"/><path class="cls-32" d="M325.44,132s-14.12,26-52.21,36.87c0,0,45.61-22.27,52.21-48.46C325.44,120.36,327.43,123.58,325.44,132Z"/><path class="cls-33" d="M326.33,122s1.16,13,1.67,14.47S309.42,160,273.23,168.82c0,0,36.79-11.76,52.21-36.87Z"/><g class="cls-34"><path class="cls-35" d="M191.8,196.41c3.7,3,6.83,5.89,8.18,10.61a36.62,36.62,0,0,1,1.74,11.59c-.27,4.93-3.66,6.73-7.42,8.89a96.46,96.46,0,0,0-10.61,6.91c-4.9,3.72-9.65,4.85-15.68,4.26-6.87-.68-13.23-3.62-19.22-6.94-5.14-2.85-10.85-6.75-13.61-12.2a24.77,24.77,0,0,1-1.75-6.27c-.52-2.52-1.14-5-1.55-7.55-.65-4-.52-8.11,1.5-11.68,2.49-4.4,6.58-6.65,11.32-8,6-1.73,12.27-1.85,18.47-2.4,3.75-.33,8.21-1,11.89,0a29.39,29.39,0,0,1,7.72,3.23,14.7,14.7,0,0,1,2.93,2.76,18.66,18.66,0,0,1,2.6,2.76C189.4,194.27,191.15,195.25,191.8,196.41Z"/><path class="cls-35" d="M213.52,217.22a14.77,14.77,0,0,0-5.27-2.12c-.72,1.35-2.13,1.89-2.59,3.47a11.94,11.94,0,0,0-.28,3.42c0,2,1,2.83,2.71,3.71.85.43,1.16.64,2,.31a5.09,5.09,0,0,0,2.06-1.64,31.73,31.73,0,0,0,1.7-3.08c.45-.89,1-2.38.09-3.16Z"/><path class="cls-35" d="M199.94,174.69c.57.57,3.19,2.8,3.8,4.05a13.51,13.51,0,0,1,.65,3.23c.37,2.08-.43,3.24-2.58,3.05-2.4-.21-4.78-.65-7.17-.92-2.75-.32-5.75-.94-7.63-3.14-2.8-3.27-4.17-10.43.49-12.77,1.54-.78,4.92-.44,6.55-.05,4.19,1,7.59,4.54,10,7.91Z"/><path class="cls-35" d="M319.45,179.5a43.42,43.42,0,0,0,5.39,11.44c2.88,4.12,5.51,8.56,9,12.25a147.73,147.73,0,0,0,12,11.52c-2-6-3.14-12.88-2.53-15.19,1-3.86,10.36,2.09,11.27,2.67-.69-.61-6.22-5.42-8.62-7.21-2.56-1.91-2.17-3.17-.69-4s7.92-.27,10.9,2.78c2.78,2.82,6.55,15.37,6.55,19.89,0,2.89-2.62,7.59-5.77,9.93,1.61,1.32,3.18,2.62,4.93,3.79,4,2.7,7.91,5.36,11.67,8.41,2.46,2,4.88,3.84,7.37,5.73q-3.13-7.46-6.66-15.75l0,0h0l0,0c-2.89-6.79-6-13.95-9.29-21.4l0-.12C358,188.72,350.38,172,342.17,154.68c-.34-.74-.7-1.47-1.06-2.2-1.67-3.51-3.37-7.06-5.09-10.6-7.52,1.58-12.78,8.68-15.08,15.61C318.68,164.27,317.2,172.47,319.45,179.5Zm19.41,12.73c0-1.51,3.65,1.67,4.2,3C343.4,196,338.85,195,338.86,192.23Zm-10-18.59c1-.09,5.62,2.77,6.21,2.73s.16-3.76,2.33-2.45,4.13,3.85,5.82,6.28c1.54,2.22,2.49,5.74,1,5.76s-5.48-3.57-5.39-2.92a27.73,27.73,0,0,0,2.09,3.7c-.42-.32-6.79-5.25-7.21-5.61.46.3,3.11,1.19,2.38,0S327.83,173.74,328.86,173.64Z"/><path class="cls-35" d="M339.73,219.94a18.58,18.58,0,0,0-2.5-5.94l-4.2-3.5c-2.55-2.14-5-4.58-7.84-6.31s-6.63-3-9.58-.59a9.77,9.77,0,0,0-3.06,7.16A21.84,21.84,0,0,0,315.34,222a41.31,41.31,0,0,0,8.58,9.27,5.89,5.89,0,0,0,3.56,1.85,22.14,22.14,0,0,0,4.23-.1c3.13-.4,6.51-2.38,7.6-5.47a17.1,17.1,0,0,0,.82-3.24C340.36,222.51,339.42,221.16,339.73,219.94Z"/><path class="cls-35" d="M316.66,191c-.39-.59,3.79,4.46,2.64,5.35-.4.3-1.74.11-2.18.09-1.15,0-3.66-.4-4.46-1.45s.54-2.31,1.28-2.75a5.61,5.61,0,0,1,1.82-.81c.55-.09,1,.17,1.47-.24.11.09.22.18.34.26Z"/><path class="cls-35" d="M167.82,152.53c.18.28,4.47,5.32,2.3,6.71-.88.57-2.25-.46-3-.83-1.07-.55-1.38-1-1.15-2.26.2-1.07.79-2.08.93-3.17Z"/><path class="cls-35" d="M130.28,167c.81,1.11,3.52,4,3.11,6-.26,1.27-1.28,1.7-2.22,2.25-.63.37-1.47,1.16-2.25,1.18s-1.56-.85-2-1.5a7.21,7.21,0,0,1-1.55-5.67c.37-2.09,1.39-3.63,3.58-3.62Z"/><path class="cls-35" d="M197.68,114.53a62.38,62.38,0,0,1,13.4,3.63c1.68.68,3.59,1.12,5.2,1.93.68.34,1.48.77,1.63,1.58-.8.83-2.53,1.15-3.56,1.46a20.68,20.68,0,0,1-6.39.92,44.4,44.4,0,0,1-8.22-.82c-1.72-.34-3.51-.3-5.24-.65a46.28,46.28,0,0,1-5.44-1.71,18.34,18.34,0,0,1-6.34-3.63,9.45,9.45,0,0,1-1.9-3.53c-.29-.72-.5-.44.11-1a3,3,0,0,1,1.9-.46,14.29,14.29,0,0,1,3,.37,26.76,26.76,0,0,0,4.2.09c1.43,0,2.78.35,4.21.44C196.33,113.28,198,114,197.68,114.53Z"/><path class="cls-35" d="M227.09,122.22c2.06.59,4.25.77,6.21,1.67.17.08.95.32.93.64s-.83.36-1,.38a48.11,48.11,0,0,1-5.63.14,3,3,0,0,1-2-.36c-.68-.59-1-1.23-.51-2,.17-.29.35-.29.67-.38a1.63,1.63,0,0,1,.79-.06C226.92,122.31,227.26,122.49,227.09,122.22Z"/><path class="cls-35" d="M222.34,118.83c-.52-.1-1.48-.51-1.85.1-.21.36.22.58.49.78a2,2,0,0,0,1,.48,7.06,7.06,0,0,0,1.3,0c.28,0,1.23-.44.94-.87a4.23,4.23,0,0,0-.47-.25,2,2,0,0,0-.51-.2,2.72,2.72,0,0,1-.3,0c-.13,0-.12-.14-.29-.09Z"/><path class="cls-35" d="M161.49,118.15a141.66,141.66,0,0,1,15.77,9.17c.91.63,10.1,6.66,6.41,8.26-2.18.95-4.81.18-7-.44a63.49,63.49,0,0,1-8.72-3.25,76,76,0,0,1-16.39-9.53A73.21,73.21,0,0,1,145,116.8c-.81-.83-1.67-1.61-2.43-2.48-.16-.19-.95-1.06-.94-1.47,0-1.63,8.16.22,9.24.59,2.24.78,4.42,1.91,6.57,2.89.93.43,1.81,1,2.69,1.5C161.24,118.49,162.41,119.07,161.49,118.15Z"/><path class="cls-35" d="M154.7,108c-.07,0,6,2.36,4.47,3.14-.27.13-.79-.12-1-.19a16.14,16.14,0,0,0-1.94-.36,7.53,7.53,0,0,1-1.84-.3,1.65,1.65,0,0,1-1-1.39c0-.21-.3-.66-.2-.86s2,0,2.23,0Z"/><path class="cls-35" d="M147,120.63a27.48,27.48,0,0,1,2.74,1.33,16.08,16.08,0,0,1,2.16,2c.24.23,2.11,1.71,1.63,2.32-.25.33-1,.45-1.43.55a3.48,3.48,0,0,1-2.82-.41,9.09,9.09,0,0,1-3.25-3.24,5.38,5.38,0,0,1-.72-1.61c-.13-1.18,1.81-.59,2.38-.45Z"/><path class="cls-35" d="M127.11,124a27.76,27.76,0,0,1,2.86,1.63l1,1.23a31.68,31.68,0,0,1,4.21,6.35,24.12,24.12,0,0,1,2.57,9.3c0,.55.07,1.09-.48,1.36a5.2,5.2,0,0,1-2.06.29,11.19,11.19,0,0,1-6.19-1.83,16.56,16.56,0,0,1-7.1-13.58,8.6,8.6,0,0,1,.6-3.55c.15-.35.37-1,.75-1.17A5,5,0,0,1,125,124C126.22,124.06,127,125,127.11,124Z"/><path class="cls-35" d="M124.17,118.37a9.16,9.16,0,0,0-2.12-1.91c.12,1,0,2.23.7,3.06a1.13,1.13,0,0,0,1,.39c.47-.06,1.05-.4.46-.85Z"/><path class="cls-35" d="M316.66,114.3a18,18,0,0,1-1.93,2.42,17.46,17.46,0,0,1-2.82,1.91,66.4,66.4,0,0,1-9.2,4.31c-3.76,1.53-7.81,2.79-11.8,1.32-2.11-.79,1.21-3,2-3.5,1.53-1,3-2.13,4.61-3.07a37.69,37.69,0,0,1,5.7-2.72c2.38-.94,4.7-2,7-3.16a8.69,8.69,0,0,1,3.95-1.13,5.15,5.15,0,0,1,2.94,1c.52.36.75.48.57,1.11-.47,1.62-1.89,3.09-2.84,4.43Z"/><path class="cls-35" d="M315.53,121.31a22,22,0,0,1-2,2.48,13.13,13.13,0,0,1-1.82,1.31,12.67,12.67,0,0,1-3.85,2.06c-.48.12-.71.1-.7-.43,0-1.25,1.31-2.21,2.15-2.93a28.79,28.79,0,0,1,5.11-3.34c.26-.14.78-.47,1.09-.25C316.13,120.69,314.53,122.5,315.53,121.31Z"/></g><polygon class="cls-36" points="409.65 280.01 71.62 292.61 71.77 294.87 409.81 282.49 409.65 280.01"/><path class="cls-37" d="M520.87,157.29a3.19,3.19,0,0,0,1.55-.35,2.78,2.78,0,0,0,1.37-2.26l-.78,0a2,2,0,0,1-1,1.59c-.89.48-2.79.53-6.79-1.92l-.4.67Q518.59,157.3,520.87,157.29Z"/><path class="cls-36" d="M521,159.39s1,12.74-4.14,16-5.21-13-3.73-18.47l1.13-1.11s-2.43,17,1.71,17.79,3.77-12.41,3.77-12.41Z"/><path class="cls-36" d="M515.05,167.85s-1.3,6.05-3.13,7.52c0,0-2.27-1.33-2.12,1.63s.11,8-1.13,9-3.36-4.4-3.36-4.4-.2,44.14-5.27,48c-5.82,4.42-8.63-42.75-7.34-48.36s3.63-4.33,3.63-4.33l-2.2,2.56s1.33,44.16,5.62,44.75,4.88-41.67,4.88-41.67l2.29-2.93s.05,5,1.4,4.21-2.57-17.23-2.62-18.08c0,0,.89-1.66,1.49-1.77l1.48,11.73a4.44,4.44,0,0,1,2.38-3.31C513.35,171.08,515.05,167.85,515.05,167.85Z"/><path class="cls-36" d="M103.21,87.34S100.42,83,98.94,83,97,85.18,97,85.18s-1.34-3.81-4-4.24-5,3.86-5,3.86-.15-.22.59,2.25,6.21.85,6.21.85,1.33,3.4,3.4,4.88,2.66-4.73,2.66-4.73l-.74-.2s.2,3.84-1.33,4.24-2.46-4.75-2.46-4.75l6.06.56,0,.84s4.12,17.48,7.62,18.9S110.5,90,110.5,90l-1.07-.15s3.41,14.86,1.07,15.94-5.86-16.52-5.86-16.52,1.44-3.23.75-3.49S103.21,87.34,103.21,87.34Z"/><path class="cls-36" d="M320.88,107.4s.39-3,2.82-3.42,1.48,3.12,1.48,3.12,1.61-5.11,9.19-5.66,3.57,7.48,3.57,7.48l-1.39,0s2.62-4.66-.25-6-10.24,5.34-10.24,5.34,3-2,4.07-.82a21.77,21.77,0,0,0-.18,2.4s-.17-3.66,2.65-3.69,2.07,2.94,2.07,2.94a11.77,11.77,0,0,1,6.28.61c2.88,1.29,4.31,11.58,0,13.35s-5.64-10.62-5.64-10.62l.94-.09s1.11,10,4.15,9.54.55-8.94.55-8.94l-6.23-.6s-1.08,1.77-2.44,1.55a4.59,4.59,0,0,1-2.45-1.85s.42.28-.13.66-2-1-2-1a5.24,5.24,0,0,1-4.62,1.29C320.38,112.28,320.88,107.4,320.88,107.4Z"/><path class="cls-38" d="M35.54,92.84c.78-.27,14.86-5.27,21.86-3.9h0A174,174,0,0,1,78.81,82.4c21.77-4.87,21.14-18.22,25.31-19.86s63.93,5.92,63.93,5.92l-.67-3.31a58.07,58.07,0,0,1-11.29-19.91c-5.32-16.53,8.37-30.45,8.37-30.45l0-1.71s-47-11-59.43-6.89a6.7,6.7,0,0,0-.95.37C93.33,11.7,84.15,19,75.57,22.18a112.64,112.64,0,0,1-14.72,3.74l-.42.1-.74.15a4,4,0,0,0-.47.09c-8.34,1.65-16.63,3-18.41,3.3,2.06-.21,12-1.26,12.44-.73s-3.7,2.38-4.45,3.56-1.21,4.28-1.93,5.17a22.14,22.14,0,0,1-3.09,3.21c-.74.49-3.26,1.81-3.26,1.81v0c0,1.67,0,3.4,0,5.15.74-.09,9-1.28,12.78-2.81,3.95-1.61,14.6-4.22,15.94-4.17s-5.62,1.52-9.53,3.44A14.31,14.31,0,0,0,53.83,50h2.23L40.44,54.52c-.07,4.32-.17,8.12-.36,10.24a23.62,23.62,0,0,1-1.26,5.31s3.93.17,4.66.61-4.66,2.37-4.66,2.37l-1.69,4.87s15.68-1.47,16.12,0S35.51,83.7,35.51,83.7h4s3.4.88,9.47-.9S63.3,78.67,63.3,78.67L70,77.07c-1.85.58-12.1,3.85-14.66,5.89-2.81,2.22-8.72,4.43-13,5.62A14.12,14.12,0,0,0,35.54,92.84Zm97.55-80.65a31.24,31.24,0,0,1,12.72-1.54,49.48,49.48,0,0,1,12.72,2.43c-.21,2.78-12,7.48-13.75,7.48s5.35-5.21,5.88-5.61a19.6,19.6,0,0,1-7.15,1.53C138.7,16.78,133.09,12.19,133.09,12.19ZM50.72,76a7.06,7.06,0,0,1-3.54-.54s5.32-2.36,7.59-1.52C55.65,74.2,52.8,75.76,50.72,76Z"/><path class="cls-39" d="M171.73,144.38a20.88,20.88,0,0,1-1.53,2.71c.24-.25.46-.48.67-.72C171.33,145.39,171.6,144.7,171.73,144.38Z"/><path class="cls-40" d="M9.23,123.3S9,165,11.81,185.39c0,0-5-24.58-5.93-26s-1.28-2.08-1.28-2.08a22,22,0,0,0,0-8.77c-1-4.84-1.19-5.28-1-8.26s-.07-10.47-.07-10.47.43,13.4,0,19.62-1.11,6.83-1.11,6.83-.89-14.62-.59-22.22.69-18.68.69-18.68a2,2,0,0,1,1.18-1.23c.89-.3,2.37,1.23,2.37,1.23s3.65-2.34,4.14,0S9.23,123.3,9.23,123.3Z"/><path class="cls-41" d="M136.52,44.11c.48,1.06,8.63,18.19,31.53,24.35l-.67-3.31a58.07,58.07,0,0,1-11.29-19.91c-5.32-16.53,8.37-30.45,8.37-30.45l0-1.71s-19.5,7.12-28,21.29c.55-.64,9.41-10.86,21.63-13-.67.49-11.42,8.38-12,18.12-.59,10.07,19.23,25.65,19.23,25.65S144.82,56.3,136.52,44.11Z"/><path class="cls-42" d="M65.13,83.7S80.61,82,89.18,76.41s11.43-15.77,11.43-15.77c4.15-17,4.46-54.45,4.46-54.45a6.7,6.7,0,0,0-.95.37C93.33,11.7,84.15,19,75.57,22.18a124.12,124.12,0,0,1-15.88,4c7.72-1.48,22-4.26,22.58-4.36-.27.42-5.45,8.83-3.09,23.13a129.41,129.41,0,0,0,7.24,26.14C79.11,79.94,65.13,83.7,65.13,83.7Z"/><path class="cls-43" d="M40.34,282.19l1.31,37.3-1.95-6.6L36,337.13s-7.26-20.4-8.25-34.62l2.48-15.07Z"/><path class="cls-36" d="M18,281.62s3.26,39.7,12,41,7.25-35.93,7.25-35.93.88,4.09,3,4.26S42.39,285,42.39,285s3.37,2.73,4.79,1.09-1.68-5.47-1.68-5.47-8-2.8-11.54-4-3.74,2-3.74,2-5.43-3.95-10.16-4S18,281.62,18,281.62Zm20.11,4.29c.66.51,3.17-.87,3.17-.87s.07,5.19-.87,5.3S38.11,285.91,38.11,285.91Zm-18.63-2.25s3.45,5.91,5.52,5.65,2.47-2.59,2.47-2.59,1.47,2.85,3.93,2.56S35.55,286,35.55,286s2.66,34-5.13,35.28S19.48,283.66,19.48,283.66Z"/><path class="cls-44" d="M496.49,147.92c15.39,0,25.06-.66,25.23-.67l-.05-.78c-1.29.09-129.09,8.55-202.43-39.09l-.42.65c38.44,25,91.57,34.31,129.37,37.74C466.81,147.46,483.65,147.92,496.49,147.92Z"/><path class="cls-44" d="M524.71,144.57l.14-.77c-110-21.34-202.39-59.31-260.49-87.39C201.41,26,164,.26,163.62,0l-.44.64C163.55.9,201,26.65,264,57.11,322.15,85.22,414.58,123.21,524.71,144.57Z"/><path class="cls-44" d="M513.47,150.52l5.42,0v-.78C353.72,151.06,113,90.23,110.6,89.62l-.2.75C112.79,91,348.46,150.52,513.47,150.52Z"/><path class="cls-44" d="M174.26,363.6l.43-.65C124.52,330.12,80,265,51.43,216.09A953.06,953.06,0,0,1,1,116.88l-.72.3a953.8,953.8,0,0,0,50.47,99.31C79.34,265.43,124,330.69,174.26,363.6Z"/><path class="cls-44" d="M168.88,364.42l.51-.59C87.5,293.61,11.34,117,10.57,115.22l-.71.31C10.62,117.31,86.86,294.08,168.88,364.42Z"/><path class="cls-44" d="M482.73,187.37l.14-.77c-74.34-13.23-139.67-41.67-181.39-63.2-45.2-23.33-73.19-43.79-73.47-44l-.46.63c.28.2,28.3,20.69,73.56,44C342.88,145.64,408.29,174.12,482.73,187.37Z"/><path class="cls-45" d="M521.69,146.86s5.61,29.47,1.71,36.17S507.34,190,507.34,190s8,5,7.71,17.82-36.24-1.14-37.35-8.64,19.58-15.87,19.58-15.87Z"/><path class="cls-46" d="M337.8,353.1S98.05,363.86,20.06,384c0,0,24.18,29.68,98.84,28.56S276.24,400.9,276.24,400.9Z"/><path class="cls-47" d="M0,361.2a398.12,398.12,0,0,0,11.81,48.71v0c23.33,74.56,58.4,98.42,58.4,98.42H384.55s.37-14,11.31-38.49c5.64-12.62,17.74-25.23,48.33-78.89,25.84-45.33,16.57-88.1,10.91-113-2.25-9.82-1.47-23.29-1.47-23.29l79.91-113-6-2L437,249c-.9.54-1.81,1.07-2.73,1.56a.83.83,0,0,1-.26.14c-.6.33-1.19.62-1.8.92-.43.22-.87.42-1.31.62a.52.52,0,0,1-.12.07l-1,.42c-29.1,12.64-68.84,2.7-145,13.5-53,7.51-81.34,19.7-83.89,20.82a.58.58,0,0,1-.17.06v0c-.51,11.13-1.52,21-2.78,29.62-.14.92-.28,1.83-.42,2.71v0a189.53,189.53,0,0,1-8.79,35.38c-.22.59-.42,1.15-.63,1.68a67.54,67.54,0,0,1-3.33,7.57l-59.07,6.4-15.28,1.66-6.35.68A172.58,172.58,0,0,1,88.4,349.46c-.87-1.52-1.68-3-2.46-4.44-5.06-9.38-8-16.36-8-16.36S65.49,331,40.47,338.91C2.33,351,0,361.2,0,361.2Z"/><path class="cls-48" d="M453.63,254.69s-1.51,86.45-31,143.07-35.86,72.1-38.12,110.6c0,0-5.26-23.89,35.15-63.88C474,390.74,478.85,338.81,469,281.89c0,0-10.36-5.31-12.23-8.54C453.06,267,453.63,254.69,453.63,254.69Z"/><path class="cls-49" d="M384.55,508.36h-3.1s-.59-18.63,11.24-52.34,25.15-53,36.7-99.47c13.66-54.91,9.94-97,5.24-106.16l93-110.63,6,2-84.08,113s1.78,72.69-13,112.91S387.64,458.08,384.55,508.36Z"/><path class="cls-50" d="M502.24,186s-44.84,60-45.87,72,2.27,72.56-16.66,123.55-50.27,70.94-55.16,126.83c0,0-6.3-13,19.08-69.5,25.76-57.33,45.84-73,42.29-184.17Z"/><path class="cls-51" d="M198,316.78c-.14.92-.28,1.83-.42,2.71,10.25-1.66,20.71-3,31.29-3.94,119.48-10.64,138.68-9.49,166.68-14.44s43.34-13.17,43.34-13.17v-.78s-21.48,10.08-51.51,13.5C342.35,305.8,275,304.36,198,316.78Z"/><path class="cls-52" d="M4.15,381.53h0S36,363.27,88.4,349.46c-.87-1.52-1.68-3-2.46-4.44C59.15,354.54,28.92,364.39,4.15,381.53Z"/><path class="cls-53" d="M434.57,331.87c-3.93,1.28-7.85,2.43-11.81,3.41C433.25,333.48,434.57,331.87,434.57,331.87Z"/><path class="cls-54" d="M188.78,354.9c-.22.59-.42,1.15-.63,1.68,13.38-2.38,27.13-4.43,41.1-6C325.19,339.79,376,347,422.7,335.3c-10.35,1.76-29.6,3.69-65.2,4.49C310,340.83,250.27,344.44,188.78,354.9Z"/><path class="cls-55" d="M12.1,409.79C16.16,408,62,387.57,125.75,370.55l-15.28,1.66C76.21,381.76,42.8,394,12.1,409.79Z"/><path class="cls-56" d="M422.26,381.53s-29.22,2.54-82.8,4.79c-60.7,2.56-114.15,3.85-185.13,16.17-108.22,18.78-130.82,39-130.82,39l.57,1.31s-3.78-15.38,129.07-37.72S385.4,390.73,422.26,381.53Z"/><path class="cls-57" d="M409.05,412.6S316,431.19,213.48,442.77,30.22,455.69,30.22,455.69l.88,1.72s78.73-2,190.77-14.64C333.17,430.25,409.05,416,409.05,416Z"/><path class="cls-58" d="M394.39,451.3s-109.15,3-206.15,11.71S44,479.14,44,479.14l1.57,2.28s97.31-15.25,195.88-20.77,151.86-6.43,151.86-6.43Z"/><path class="cls-59" d="M383.47,489.84s-99.81-6.32-181-3.95-141,14.77-141,14.77,68.78-11.8,157.72-13S383.47,489.84,383.47,489.84Z"/><path class="cls-60" d="M455.48,292.72s7.8,6.1,16.86,14.75l.2,2.57S461.69,298.48,455.48,292.72Z"/><path class="cls-61" d="M452.43,327.91A60.32,60.32,0,0,1,472,344.71v2.45s-8.66-13.31-19.95-16.4Z"/><path class="cls-62" d="M454,400.41s-7.5-12.64-14.3-18.88l-1.14,3S447.71,388.48,454,400.41Z"/><path class="cls-63" d="M421.55,418.86a78.67,78.67,0,0,1,7.16,16.23s-5.68-10.49-8.33-14.25Z"/><polygon class="cls-64" points="407.68 457.41 402.2 451.3 400.58 454.35 407.68 457.41"/><path class="cls-65" d="M456.37,258l-10.45-3.29,85.67-113.62,2,.64S461.47,238.1,456.37,258Z"/><path class="cls-66" d="M77.92,328.67l10.91-1.29a108.75,108.75,0,0,0,15.29,45.52H101.4S84.31,351.25,77.92,328.67Z"/><path class="cls-67" d="M400.58,417.51S309,436.6,197.57,448,31.1,457.41,31.1,457.41s40.72,2,170.11-12.19S400.58,417.51,400.58,417.51Z"/><path class="cls-68" d="M415.88,382.85s-5.69,3.46-94.46,8.12C217.25,396.44,167,402.46,122.68,411.36c-46.83,9.41-80.94,20-99.17,30.1,0,0,37-26.75,174.06-43C326.11,383.26,350.65,392.49,415.88,382.85Z"/><path class="cls-69" d="M422.7,335.3s-13.3,4.94-50.42,7.9-66.4,5-110.89,6.94-74.16,8.76-74.16,8.76l2.26-2.55A1000.83,1000.83,0,0,1,321.57,344C402.35,342,422.7,335.3,422.7,335.3Z"/><path class="cls-70" d="M129.2,370.18S46.91,396,12.1,409.79A831.59,831.59,0,0,1,124.36,370.7Z"/><path class="cls-71" d="M383.85,454.44s-137,6.11-213,13.11S50.34,480.7,50.34,480.7,169.78,459.07,383.85,454.44Z"/><path class="cls-72" d="M417.91,295.88s-16.35,6.26-49.47,9.81-141.24,10.67-170.87,13.8c0,0,50.54-6.87,120.65-11.26S390.38,302.62,417.91,295.88Z"/><path class="cls-73" d="M86.83,350.14S27.85,368,4.15,381.53C4.15,381.53,36.49,362,86.83,350.14Z"/><path class="cls-74" d="M361.65,342.42s-42.1.53-83,2.6a612.6,612.6,0,0,0-78.47,9.56s34.31-5.42,76-8.28S361.65,342.42,361.65,342.42Z"/><path class="cls-75" d="M357.19,387.08l-46.61,1.12-13.71-.56L252.51,390l-16.75,2.85L178,401.16S270.24,389.61,357.19,387.08Z"/><path class="cls-74" d="M403.14,299l-12,1.87-18-.94-4.92.94L348,303.69l-3.46,1.6-86.44,7.6S385.79,306.48,403.14,299Z"/><path class="cls-76" d="M392.79,418.86l-18.73,1.08-33.24,4.89H329.4s-62.83,12-95.09,16.63C234.31,441.46,372,424.59,392.79,418.86Z"/><path class="cls-77" d="M159.23,465.71l-18.88,4.77s-23.78,4.15-42.26,4.46-20.17-.38-20.17-.38Z"/><path class="cls-78" d="M158.08,465.71h8.48l-27,6.77s-26,5.23-43.18,4.93-25.72-1.94-25.72-1.94l5.81-.82s8.47,2.12,36.47-.2S158.08,465.71,158.08,465.71Z"/><path class="cls-79" d="M434.57,331.87s-4.22,34.41-12.31,49.66c0,0-54.63,5.9-119.88,6.33l11.17-1.93-6.91-26.06-37.27-5.29s42.88-1.48,64.17-1.48l-23.86-5.44,14.1-4.4s22.11,3.05,60.54-2.47S434.57,331.87,434.57,331.87Z"/><path class="cls-80" d="M261.08,394.61l-3,18s-35.74,7.63-35.57,7.34,56.65-7.34,56.65-7.34l1.78,7.35v13.81s-54.58,8.55-102,12.62-82.53,6.45-82.53,6.45V441.46l26.28-1.71-42.46,1.71-7.51-11.3s39-10.5,86.52-19l-55.11,4.13,2.31-1.94s59.32-13.47,120.25-17.49Z"/><path class="cls-81" d="M383.15,260s23.65,37.56,14.18,88.64c-15.88,85.57-97.47,111.32-214,121.7S23.78,397.43,16,348.5c0,0-12.42,4.54-16,12.7,0,0,17.42,106.93,70.21,147.15H381.45s6.38-57.84,29.05-95.76,35.32-125,24.13-162.21C434.63,250.39,420.41,259.12,383.15,260Z"/><path class="cls-9" d="M290.62,311l-9.71,3.54H288l10.06,20.72-12.62,1.16,12.62,1.1-37.46,8.4-62.37,7.4-9.45,1.56s7.08-22.59,8.79-35.41C197.57,319.49,257.76,311,290.62,311Z"/><path class="cls-82" d="M368.12,423.72l-6.47,30.72s-110.6,4.37-168.87,9.63l-4-15.15-7.57-2.74S282.33,437.84,368.12,423.72Z"/><path class="cls-83" d="M86.83,350.14l5.79-.59-7.93-3.61L47.18,362S74.93,352.2,86.83,350.14Z"/><path class="cls-84" d="M363.71,506.29s-3.3-17.5-33.12-25.59c-38.24-10.38-134.95.83-177.83,4.65s-65.93,23-65.93,23Z"/><path class="cls-85" d="M201,287.08c42.4-17.87,142.25-23.38,142.25-23.38l56.58-2.76a107.87,107.87,0,0,0,30.06-8.18c-29.1,12.64-68.84,2.7-145,13.5C231.86,273.77,203.5,286,201,287.08Z"/><path class="cls-86" d="M201,287.08s.34,20.73,0,21.86,1.41,7.15,1.41,7.15l15.7.93-18.63,2.37s-7.09,26.85-5,34.56l21.35-2.11-24.24,4.07-4.36,6.71,15.31-.94-19.19,2.63,1.74-.86S199.28,331.87,201,287.08Z"/><path class="cls-87" d="M368.12,262.48l-10.93,4L361.65,303l-60,2.95V284.21l-18.31-3.55,19.78-2.58-26-8.16-2.39-2.12S324.62,258.22,368.12,262.48Z"/><path class="cls-88" d="M371.31,342.42l-4.05,1.31-48.59,3.37-9,7.8,2.65-7.69-34.24-1S353.46,342.68,371.31,342.42Z"/><polygon class="cls-89" points="309.68 354.9 315.58 347.1 316.18 344.47 318.67 347.1 309.68 354.9"/><path class="cls-88" d="M329.94,388.59s-45.17,2.19-61.16,3.53c0,0,10.07,1,30.17,0S329.94,388.59,329.94,388.59Z"/><path class="cls-90" d="M338.47,307.69s-7.28,1.28-15.18,1.89a128.79,128.79,0,0,1-14.79.27S327.48,308.59,338.47,307.69Z"/><path class="cls-91" d="M335.07,428.49s-21.46,4.88-28.73,5.74a162.65,162.65,0,0,1-22.23.86S318.89,432.06,335.07,428.49Z"/><path class="cls-86" d="M434.63,250.39l-9.49,4.3s15.6,63-2.88,118.21-40,83.81-40.81,135.46c0,0,3.18-30.24,16.18-55.53S438.63,358.55,441,311,434.63,250.39,434.63,250.39Z"/><path class="cls-92" d="M441.83,375.5h-6s-12,24.21-18,33.58c0,0,28.27-40.9,28.29-117.78,0,0,1.08,34.6-4.8,67.6l4.52,2.77S442.74,372.83,441.83,375.5Z"/><path class="cls-93" d="M469,281.89l-5-1.24s8.75,33.27-2,79.22-37.47,77.66-37.47,77.66,40.27-40.79,45.61-80.95A262.8,262.8,0,0,0,469,281.89Z"/><path class="cls-94" d="M4.15,356.58l4.68,21.66,3.27-1.05-3.22,1.93,9.61,27.31,4.14-1-3.89,4,11.48,27.09L35.74,435,30.22,440s16.09,41.6,31.26,55c0,0-45.08-37.22-61.48-133.75Z"/><path class="cls-9" d="M126.83,408.85l22.28-5.44-25,4.79-8.21-24,5.41-2.63-12.81,1.32-4.37-4.68-3.76-.63-44.86,15h7.16l-16.38,7.84,8.17,23.31-5.63,4.77S88.39,417,126.83,408.85Z"/><path class="cls-95" d="M77.92,328.67l-35.74,9.71S3.59,353,0,361.2C0,361.2,2.62,344,77.92,328.67Z"/><path class="cls-96" d="M409.05,280.79c0,4.17,1.89,7.65,4.44,8.51h0a3.6,3.6,0,0,0,1.22.21c3.12,0,5.67-3.9,5.67-8.73a11,11,0,0,0-2.1-6.76,4.58,4.58,0,0,0-3.57-2C411.58,272.07,409.05,276,409.05,280.79Z"/><path class="cls-97" d="M411.43,282.57a10.94,10.94,0,0,0,2.06,6.73h0a3.6,3.6,0,0,0,1.22.21c3.12,0,5.67-3.9,5.67-8.73a11,11,0,0,0-2.1-6.76,4.06,4.06,0,0,0-1.2-.18C414,273.85,411.43,277.75,411.43,282.57Z"/><path class="cls-98" d="M478.16,243.55v0c0,1.52.1,2.67.19,3.36a25.21,25.21,0,0,0,5,11.16l1.78,7.48,2.07,37.75s-1.19-29.78.6-33.32,4.57,2.06,4.57,2.06-.17-31.21,0-47.09,2.09,9.83,9.85,11.31,11.73-39.75,14.48-42.65,5.7-7.76,5-17.92,0-28.86,0-28.86a44.49,44.49,0,0,1-6.65,2.48c-.53.1-.81.69-.93,1.48a18.93,18.93,0,0,0,.19,5l-3.7-1.13L507.19,164a24.62,24.62,0,0,0-10.34,3.5,12.9,12.9,0,0,0-1.64,1.31c-2.06,2-4,5.44-5.48,8.61v0c-1.7,3.65-2.79,6.89-2.79,6.89L482.8,187l-.55,6.73-2.71,1S477.9,231.15,478.16,243.55Z"/><path class="cls-99" d="M514.3,155.79l-3.7-1.13c3.54,6.81,6.13,29.58,6.13,29.58,0-9.4-2.62-33.42-2.62-33.42A18.93,18.93,0,0,0,514.3,155.79Z"/><path class="cls-100" d="M494.33,217.82s3.25-1.48,5.64-19.09a166.81,166.81,0,0,0,1.25-32.08s3.46,10.64,4.63,30.06a140.77,140.77,0,0,1-2.12,34.6c.25-.57,2.09-5.38,3.46-23.57,1.49-19.51,0-43.73,0-43.73a24.62,24.62,0,0,0-10.34,3.5l.14,3.42s1.32.75,3,15.9S494.33,217.82,494.33,217.82Z"/><path class="cls-101" d="M486.94,184.34c.67,9.06,4.72,31.36,5.38,34.91-1.58-10.29-2.56-40.95-2.59-41.8C488,181.1,486.94,184.34,486.94,184.34Z"/><path class="cls-102" d="M478.16,243.55c.19-6.48,1.28-41.61,3.3-40.08,2.23,1.68,7.54,59.87,7.54,59.87s0-4.57-2.17-27.94-4-48.41-4-48.41l-.55,6.73-2.71,1S477.9,231.15,478.16,243.55Z"/><path class="cls-103" d="M284.11,435.09s-10.21-17.27-15.33-43l-42.1,3.75s.46,26.4,7.63,45.59Z"/><path class="cls-104" d="M137,406.36s.28,2.45,1,6.47v0c.05.28.1.56.16.86.24,1.26.5,2.65.83,4.15.17.77.34,1.54.53,2.37,1,4.29,2.31,9.3,4.07,14.61.52,1.55,1.06,3.13,1.66,4.72a.08.08,0,0,0,0,0c.58,1.56,1.19,3.15,1.84,4.75l.38.87c.52,1.22,1,2.42,1.6,3.64l32.1-2.67s-.61-2.22-1.52-5.73c-.61-2.43-1.37-5.51-2.15-8.91v0c-1.06-4.66-2.19-10-3.06-15.09-.28-1.61-.53-3.18-.75-4.73a84.29,84.29,0,0,1-.89-9.79S147.21,403.88,137,406.36Z"/><path class="cls-105" d="M72.72,421.86c.4,2.15.84,4.29,1.3,6.38a1.42,1.42,0,0,1,.08.31c.3,1.3.6,2.58.91,3.82.12.48.23.94.36,1.41v0c.87,3.41,1.78,6.61,2.61,9.41.26.85.53,1.7.76,2.48h0a.3.3,0,0,1,0,.11c.5,1.56.94,2.95,1.33,4.1.06.18.11.35.17.51.75,2.23,1.22,3.53,1.22,3.53l28.73-1.12c-.81-1.6-1.65-3.52-2.49-5.64-.66-1.65-1.32-3.45-2-5.29-1.87-5.3-3.67-11.09-5.1-15.89-.08-.29-.16-.56-.24-.83-1.64-5.59-2.71-9.63-2.71-9.63C91.27,415.82,72.72,421.86,72.72,421.86Z"/><path class="cls-106" d="M269.37,394.61l-35.81,4.33s1.21,22.08,5.85,41.8l44.7-5.65S274.79,424,269.37,394.61Z"/><path class="cls-107" d="M173,405.17l-29.5,4.62s.68,13.7,9.26,38.84l28.45-2.45S175.79,423.81,173,405.17Z"/><path class="cls-108" d="M98.6,418.86l-19.42,4.86s-.05,9.5,6.45,30.06l24.6-.95S101.81,435.53,98.6,418.86Z"/><path class="cls-109" d="M251.38,402.36l4.67-.28c-2.13.05-3.84.2-4.5.26Z"/><path class="cls-110" d="M236.38,403.3,238.94,436l13.1-.76,30.87-1.81s-9.58-14.85-12.19-32.25l-14.56.91h-.11l-4.5.26-.17,0-.12,0Z"/><path class="cls-111" d="M245.4,400c7.19,2.41,11.2,8.52,12.35,18.14s-5.53,22-19.38,21c-14.43-1-17.65-17.39-14.66-28.25S236.75,397.09,245.4,400Z"/><path class="cls-112" d="M242.41,401.78c6.94,1.87,10.61,8.07,11.7,17.18s-5.76,20.53-17.89,19.15-15.47-15.57-12.89-25.92C225.59,403.12,233.46,399.37,242.41,401.78Z"/><path class="cls-113" d="M226.22,421.34a15.25,15.25,0,0,0,.25,1.53v0c.7,3.57,2.32,6.66,4.52,8,7.09,4.32,16.35,1,17.6-7.57a17.83,17.83,0,0,0,.15-3.7q0-.78-.15-1.53a.66.66,0,0,1,0-.11c-1-6.73-5.69-11.74-10.47-12.19C228.34,404.92,225.28,413.77,226.22,421.34Z"/><path class="cls-114" d="M248.1,425.39l-19.47,3.1s4.11,4.9,9.73,4.31S247.62,427.44,248.1,425.39Z"/><path class="cls-115" d="M251.26,435.17l.78.05,30.87-1.81s-9.58-14.85-12.19-32.25l-14.35.91c3.64-.08,8.31.13,10.83,1.51,4.53,2.47,10.23,17.42,4.53,23.32s-14.12,3.79-14.12,3.79a29.06,29.06,0,0,0-.39-15.86C259.5,429.05,251.26,435.17,251.26,435.17Z"/><path class="cls-116" d="M226.22,421.34a15.25,15.25,0,0,0,.25,1.53,20.19,20.19,0,0,1,.81-7.46c1.22-3.9,7.2-8.88,13.5-6.71,5.73,2,7.49,8.16,7.77,9.3-1-6.73-5.69-11.74-10.47-12.19C228.34,404.92,225.28,413.77,226.22,421.34Z"/><path class="cls-117" d="M253,427.46V416.79s-.69-9.29-6.35-13.07c0,0-8-2.71-12.33-2.39a19.38,19.38,0,0,1,10.57,1.3c6.17,2.48,8.83,10.89,8.83,10.89a33.23,33.23,0,0,1,1,7.31A21.27,21.27,0,0,1,253,427.46Z"/><path class="cls-118" d="M251.26,403.36s-3.2-.3-4.62.36c0,0-9.64-5.42-17.06-.59a27.24,27.24,0,0,1,3.38-3.05,18.51,18.51,0,0,1,18.3,3.28Z"/><path class="cls-119" d="M144.7,413.52l.17,2.17.17,2.19,1.3,16.54.4,5.1.22,2.86,7-.41,3.74-.21h0l.78-.05,21.18-1.25c-.61-2.43-1.37-5.51-2.15-8.91v0c-1.06-4.66-2.19-10-3.06-15.09-.28-1.61-.53-3.18-.75-4.73l-11.57.72h-.1l-4,.24h-.16l-.1,0-1,.06h0l-4.42.27h-.08l-.34,0-.81,0h0Z"/><path class="cls-120" d="M152.66,410.6c6.35,2.13,9.89,7.52,10.9,16s-4.88,19.44-17.11,18.57c-12.74-.91-15.58-15.36-12.95-24.95S145,408,152.66,410.6Z"/><path class="cls-121" d="M150,412.18c6.13,1.65,9.37,7.12,10.33,15.17s-5.08,18.13-15.8,16.91-13.65-13.75-11.38-22.88C135.17,413.36,142.12,410.06,150,412.18Z"/><path class="cls-122" d="M135.72,429.45c.06.46.13.92.22,1.35v0c.62,3.16,2.06,5.88,4,7.08,6.26,3.82,14.43.87,15.53-6.68a15.12,15.12,0,0,0,.14-3.27c0-.45-.07-.91-.14-1.35a.93.93,0,0,0,0-.1c-.86-5.94-5-10.36-9.24-10.76C137.6,415,134.9,422.77,135.72,429.45Z"/><path class="cls-123" d="M155,433l-17.19,2.74s3.63,4.31,8.6,3.8S154.61,434.84,155,433Z"/><path class="cls-124" d="M174.48,416.44c-.28-1.61-.53-3.18-.75-4.73l-11.38.72c3.22-.06,7.34.12,9.57,1.34A8,8,0,0,1,174.48,416.44Z"/><path class="cls-125" d="M157.84,441.66l.67,0,21.18-1.25c-.61-2.43-1.37-5.51-2.15-8.91a7.43,7.43,0,0,1-1.62,2.81c-5,5.21-12.47,3.35-12.47,3.35a25.77,25.77,0,0,0-.35-14s0,.07,0,.1c1.28,8.21-1.41,13.33-3.41,15.89-.26.32-.52.64-.81.95s-.54.56-.73.73a.57.57,0,0,0-.14.13Z"/><path class="cls-126" d="M135.72,429.45c.06.46.13.92.22,1.35a18.15,18.15,0,0,1,.72-6.59c1.07-3.44,6.35-7.83,11.92-5.92,5.06,1.73,6.62,7.21,6.86,8.21-.86-5.94-5-10.36-9.24-10.76C137.6,415,134.9,422.77,135.72,429.45Z"/><path class="cls-117" d="M159.36,434.85v-9.42s-.61-8.19-5.61-11.54c0,0-7.08-2.38-10.88-2.11a17.12,17.12,0,0,1,9.33,1.16c5.45,2.18,7.8,9.61,7.8,9.61a28.73,28.73,0,0,1,.86,6.44A18.74,18.74,0,0,1,159.36,434.85Z"/><path class="cls-118" d="M157.83,413.58a11.23,11.23,0,0,0-4.08.31s-8.51-4.78-15.06-.52a24,24,0,0,1,3-2.69,16.37,16.37,0,0,1,16.15,2.9Z"/><path class="cls-127" d="M81.2,426.38l.15,1.65v0l.12,1.67v0l1,12.75h0l.31,3.92v0l.17,2.2,5.4-.31h0l2.87-.17h0l.6,0,15.87-.93c-.66-1.65-1.32-3.45-2-5.29-1.87-5.3-3.67-11.09-5.1-15.89-.08-.29-.16-.56-.24-.83l-5.71.36H94.6l-3.06.17-.13,0-.08,0-.73.05h0l-3.4.2s0,0,0,0l-.05,0h-.29l-.58,0h0Z"/><path class="cls-128" d="M87.35,424.12c4.9,1.64,7.63,5.81,8.41,12.37s-3.76,15-13.2,14.32c-9.83-.71-12-11.85-10-19.25S81.46,422.15,87.35,424.12Z"/><path class="cls-129" d="M85.32,425.34c4.72,1.28,7.22,5.5,8,11.71s-3.92,14-12.18,13-10.53-10.6-8.78-17.65C73.86,426.25,79.22,423.7,85.32,425.34Z"/><path class="cls-130" d="M74.29,438.67a9,9,0,0,0,.17,1h0c.48,2.43,1.58,4.54,3.08,5.46,4.83,2.95,11.13.68,12-5.15a12,12,0,0,0,.11-2.52c0-.35-.06-.7-.11-1,0,0,0-.05,0-.08-.67-4.58-3.88-8-7.13-8.3C75.73,427.48,73.65,433.51,74.29,438.67Z"/><path class="cls-131" d="M89.19,441.42l-13.26,2.12s2.8,3.33,6.63,2.93A8.22,8.22,0,0,0,89.19,441.42Z"/><path class="cls-132" d="M94.83,425.54a23.81,23.81,0,0,1,5.81.47c-.08-.29-.16-.56-.24-.83Z"/><path class="cls-133" d="M91.35,448.08l.51,0,15.87-.93c-.66-1.65-1.32-3.45-2-5.29a5.6,5.6,0,0,1-.45.54c-3.87,4-9.61,2.6-9.61,2.6a20,20,0,0,0-.27-10.81s0,.06,0,.08,0,.14,0,.22v.05c.89,6.18-1.14,10-2.67,12-.1.12-.21.24-.3.37a3.7,3.7,0,0,1-.33.36l-.31.32-.25.26a.22.22,0,0,0-.11.09Z"/><path class="cls-134" d="M74.29,438.67a9,9,0,0,0,.17,1,13.66,13.66,0,0,1,.55-5.08c.83-2.66,4.9-6.05,9.2-4.57,3.9,1.34,5.1,5.56,5.29,6.33-.67-4.58-3.88-8-7.13-8.3C75.73,427.48,73.65,433.51,74.29,438.67Z"/><path class="cls-117" d="M92.52,442.83v-7.26s-.47-6.33-4.32-8.91c0,0-5.47-1.84-8.4-1.62a13.06,13.06,0,0,1,7.19.89c4.21,1.68,6,7.41,6,7.41a23,23,0,0,1,.66,5A14.44,14.44,0,0,1,92.52,442.83Z"/><path class="cls-118" d="M91.34,426.42a8.62,8.62,0,0,0-3.14.24s-6.57-3.69-11.63-.4a19.21,19.21,0,0,1,2.31-2.07,12.6,12.6,0,0,1,12.46,2.23Z"/><polygon class="cls-83" points="384.71 278.77 373.07 299.92 347.35 342.42 369.82 301.94 384.71 278.77"/><path class="cls-135" d="M253.71,365.83s8.37,7.88,15.66,13.55,17.31,9.21,17.31,9.21-15.14-4.73-21.84-9.21S253.71,365.83,253.71,365.83Z"/><path class="cls-136" d="M47.18,374.1s-1.3,10.64-3.16,14.49-12.45,11.82-12.45,11.82S45.28,389.73,47.18,374.1Z"/><polygon class="cls-137" points="347.35 412.76 324.7 411.55 335.07 415.68 347.35 412.76"/><polygon class="cls-138" points="347.35 412.76 335.07 414.31 324.7 411.55 335.07 415.68 347.35 412.76"/><path class="cls-138" d="M286.68,388.59a101.43,101.43,0,0,1-21-8.7,27,27,0,0,1-11.94-14.06S261.34,381.34,286.68,388.59Z"/><polygon class="cls-139" points="384.71 278.77 374.18 304.2 347.35 342.42 369.43 305.94 384.71 278.77"/><path class="cls-140" d="M282.91,435S248,477,230.83,476.4,249,439.21,249,439.21Z"/><path class="cls-141" d="M177.65,446.5s-10.75,27.56-18.42,26.67-6.47-24.54-6.47-24.54Z"/><path class="cls-142" d="M107.73,452.83s-2.1,24.67-11.36,24.58-10.74-23.63-10.74-23.63Z"/></g></g></g></svg>