<svg xmlns="http://www.w3.org/2000/svg" xmlns:xlink="http://www.w3.org/1999/xlink" viewBox="0 0 848.35 630.55"><defs><style>.cls-1{isolation:isolate;}.cls-2{fill:#8c1927;}.cls-3{fill:url(#_7_2);}.cls-4{fill:#7c1338;}.cls-5,.cls-6,.cls-7{opacity:0.46;}.cls-5{fill:url(#_24_2);}.cls-6{fill:url(#_24_2-2);}.cls-7{fill:url(#_24_2-3);}.cls-44,.cls-8,.cls-9{opacity:0.3;}.cls-30,.cls-8,.cls-9{mix-blend-mode:screen;}.cls-8{fill:url(#_24_2-4);}.cls-9{fill:url(#_24_2-5);}.cls-10,.cls-29,.cls-31,.cls-42,.cls-50,.cls-51,.cls-52{opacity:0.5;}.cls-10,.cls-29,.cls-42,.cls-43,.cls-44,.cls-45,.cls-49{mix-blend-mode:soft-light;}.cls-10{fill:url(#_140);}.cls-11{fill:url(#_27);}.cls-12{fill:url(#_27-2);}.cls-13{fill:url(#_313);}.cls-14{fill:url(#_42);}.cls-15{fill:url(#_42-2);}.cls-16{fill:url(#_209);}.cls-17{fill:url(#_42-3);}.cls-18{fill:url(#_42-4);}.cls-19{fill:url(#_200);}.cls-20{fill:url(#_200-2);}.cls-21{fill:#b3bed4;}.cls-22{fill:url(#_42-5);}.cls-23{fill:url(#_169);}.cls-24{fill:url(#_27-3);}.cls-25{fill:#d1d9e8;}.cls-26,.cls-36,.cls-37,.cls-38,.cls-39,.cls-46,.cls-48{opacity:0.49;}.cls-26,.cls-31,.cls-36,.cls-37,.cls-38,.cls-39,.cls-46,.cls-48{mix-blend-mode:multiply;}.cls-26{fill:url(#_367);}.cls-27{fill:url(#_42-6);}.cls-28{fill:url(#_169-2);}.cls-29{fill:#594275;}.cls-30{fill:#776191;opacity:0.31;}.cls-31{fill:url(#_20);}.cls-32{fill:url(#_209-2);}.cls-33{fill:url(#_42-7);}.cls-34{fill:url(#_209-3);}.cls-35{fill:#4c5496;}.cls-36{fill:url(#_367-2);}.cls-37{fill:url(#_367-3);}.cls-38{fill:url(#_367-4);}.cls-39{fill:url(#_367-5);}.cls-40{fill:#5c719c;}.cls-41{fill:url(#_209-4);}.cls-42{fill:#25425c;}.cls-43{fill:#9ce5ff;opacity:0.29;}.cls-44,.cls-45{fill:#d2fff1;}.cls-45{opacity:0.1;}.cls-46{fill:url(#_1240);}.cls-47{fill:#545887;}.cls-48{fill:url(#_367-6);}.cls-49{fill:#cadafc;opacity:0.9;}.cls-50,.cls-51,.cls-52{mix-blend-mode:color-dodge;}.cls-50{fill:url(#_302);}.cls-51{fill:url(#_302-2);}.cls-52{fill:url(#_302-3);}</style><linearGradient id="_7_2" x1="422.71" y1="61.33" x2="422.71" y2="593.27" gradientUnits="userSpaceOnUse"><stop offset="0.02" stop-color="#cd6d22"/><stop offset="0.95" stop-color="#c74d3e"/></linearGradient><radialGradient id="_24_2" cx="510.73" cy="156.87" r="68.48" gradientUnits="userSpaceOnUse"><stop offset="0.02" stop-color="#ffa41a"/><stop offset="1" stop-color="#ff8836"/></radialGradient><radialGradient id="_24_2-2" cx="491.7" cy="252.31" r="63.91" xlink:href="#_24_2"/><radialGradient id="_24_2-3" cx="475.97" cy="504.46" r="54.96" xlink:href="#_24_2"/><radialGradient id="_24_2-4" cx="455.1" cy="110.73" r="78.23" xlink:href="#_24_2"/><radialGradient id="_24_2-5" cx="438.36" cy="196.06" r="46.17" xlink:href="#_24_2"/><linearGradient id="_140" x1="463.96" y1="520.65" x2="544.43" y2="459.38" gradientUnits="userSpaceOnUse"><stop offset="0" stop-color="#36193b"/><stop offset="1" stop-color="#8e37e2"/></linearGradient><linearGradient id="_27" x1="98.68" y1="274.23" x2="393.56" y2="274.23" gradientUnits="userSpaceOnUse"><stop offset="0" stop-color="#84759b"/><stop offset="0.39" stop-color="#96a9d0"/><stop offset="1" stop-color="#d8dfed"/></linearGradient><linearGradient id="_27-2" x1="533.02" y1="276.35" x2="776.3" y2="276.35" xlink:href="#_27"/><linearGradient id="_313" x1="168.76" y1="557.82" x2="152.3" y2="261.57" gradientUnits="userSpaceOnUse"><stop offset="0" stop-color="#84759b"/><stop offset="1" stop-color="#96a9d0"/></linearGradient><linearGradient id="_42" x1="59.39" y1="274.02" x2="305.05" y2="274.02" gradientUnits="userSpaceOnUse"><stop offset="0" stop-color="#786dab"/><stop offset="0.53" stop-color="#6867a3"/><stop offset="1" stop-color="#54517a"/></linearGradient><linearGradient id="_42-2" x1="485.47" y1="283.27" x2="661.7" y2="283.27" xlink:href="#_42"/><linearGradient id="_209" x1="84.97" y1="358.88" x2="770.99" y2="358.88" gradientUnits="userSpaceOnUse"><stop offset="0" stop-color="#453970"/><stop offset="1" stop-color="#2c3159"/></linearGradient><linearGradient id="_42-3" x1="65.3" y1="327.75" x2="789.96" y2="327.75" xlink:href="#_42"/><linearGradient id="_42-4" x1="74.91" y1="392.12" x2="774.91" y2="392.12" xlink:href="#_42"/><radialGradient id="_200" cx="523.39" cy="327.74" r="190.33" gradientUnits="userSpaceOnUse"><stop offset="0" stop-color="#d8dfed"/><stop offset="0.15" stop-color="#84759b"/><stop offset="1" stop-color="#96a9d0"/></radialGradient><radialGradient id="_200-2" cx="518.62" cy="392.11" r="183.23" xlink:href="#_200"/><linearGradient id="_42-5" x1="114" y1="571.43" x2="740.13" y2="571.43" xlink:href="#_42"/><linearGradient id="_169" x1="114" y1="533.56" x2="740.13" y2="533.56" gradientUnits="userSpaceOnUse"><stop offset="0" stop-color="#96a9d0"/><stop offset="1" stop-color="#d8dfed"/></linearGradient><linearGradient id="_27-3" x1="311.02" y1="579.17" x2="740.13" y2="579.17" xlink:href="#_27"/><linearGradient id="_367" x1="573.48" y1="281.69" x2="573.48" y2="-75.15" gradientUnits="userSpaceOnUse"><stop offset="0" stop-color="#941f63"/><stop offset="1" stop-color="#662d87"/></linearGradient><linearGradient id="_42-6" x1="417.77" y1="370.66" x2="635.91" y2="370.66" xlink:href="#_42"/><linearGradient id="_169-2" x1="489.81" y1="374.37" x2="632.31" y2="374.37" xlink:href="#_169"/><linearGradient id="_20" x1="518.53" y1="449.96" x2="518.53" y2="491.22" gradientUnits="userSpaceOnUse"><stop offset="0" stop-color="#705ab6"/><stop offset="1" stop-color="#fff"/></linearGradient><linearGradient id="_209-2" x1="558.29" y1="420.2" x2="558.29" y2="346.02" xlink:href="#_209"/><linearGradient id="_42-7" x1="552" y1="375.59" x2="587.75" y2="375.59" xlink:href="#_42"/><linearGradient id="_209-3" x1="621.26" y1="214.47" x2="621.26" y2="146.58" xlink:href="#_209"/><linearGradient id="_367-2" x1="518.32" y1="518.8" x2="518.32" y2="150.05" xlink:href="#_367"/><linearGradient id="_367-3" x1="230.13" y1="630.55" x2="230.13" y2="0" xlink:href="#_367"/><linearGradient id="_367-4" x1="191.91" y1="489.04" x2="191.91" y2="419.81" xlink:href="#_367"/><linearGradient id="_367-5" x1="167.06" y1="263.15" x2="167.06" y2="103.6" xlink:href="#_367"/><linearGradient id="_209-4" x1="256.98" y1="214.47" x2="256.98" y2="146.58" xlink:href="#_209"/><linearGradient id="_1240" x1="490.91" y1="536.3" x2="490.91" y2="523.89" gradientUnits="userSpaceOnUse"><stop offset="0" stop-color="#8980eb"/><stop offset="1" stop-color="#705ab8"/></linearGradient><linearGradient id="_367-6" x1="490.11" y1="460.07" x2="490.11" y2="393.87" xlink:href="#_367"/><radialGradient id="_302" cx="729.6" cy="141.17" r="118.75" gradientTransform="translate(313.52 -474.55) rotate(45)" gradientUnits="userSpaceOnUse"><stop offset="0" stop-color="#056dff"/><stop offset="0.09" stop-color="#0567f1"/><stop offset="0.26" stop-color="#0458ce"/><stop offset="0.49" stop-color="#033f93"/><stop offset="0.77" stop-color="#011d44"/><stop offset="1"/></radialGradient><radialGradient id="_302-2" cx="294.44" cy="353.93" r="118.75" gradientTransform="translate(336.5 -104.54) rotate(45)" xlink:href="#_302"/><radialGradient id="_302-3" cx="118.75" cy="145.78" r="118.75" gradientTransform="translate(137.87 -41.27) rotate(45)" xlink:href="#_302"/></defs><title>silver_chest</title><g class="cls-1"><g id="Layer_2" data-name="Layer 2"><g id="chests"><path class="cls-2" d="M166.12,539.8S64.85,197.13,85,115.74,151.71-10.9,236.75,127.63c99.12,161.47,70.41,425.2,70.41,425.2Z"/><path class="cls-3" d="M649.15,539.11l-342,13.72s11.89-173.41-25.6-311.19S176.4,49.9,151.71,40.76c0,0,161.85,28.35,260.61,35.67s225.85-4.58,266.09-12.81C678.41,63.62,727.78,317.83,649.15,539.11Z"/><path class="cls-4" d="M322.48,144.78S568,157.12,625.6,155.06l4.81,4.8L311,147.52Z"/><path class="cls-4" d="M320.42,244.9c121.39,6.86,325.75,0,325.75,0l-7.54,6.86s-235.23-4.11-343.58,0Z"/><path class="cls-4" d="M366.6,503.45s151.93-1.92,272.72-14.4c2-.21-3.41,7.2-3.41,7.2S353.34,508.93,355.4,508.93,366.6,503.45,366.6,503.45Z"/><path class="cls-5" d="M414,151.5s86.06,7.68,115.55,10.08,77.83-2.6,77.83-2.6Z"/><path class="cls-6" d="M401.34,250l180.71,1S519,253.48,474.72,254.5,401.34,250,401.34,250Z"/><path class="cls-7" d="M398.37,507l155.2-7s-75,9.67-111.31,9S398.37,507,398.37,507Z"/><path class="cls-8" d="M363.85,113.92C379.09,128,419.63,139.06,448.44,140S570.92,107,561.06,93.8s-114-5.94-163.37-11S334.14,86.48,363.85,113.92Z"/><path class="cls-9" d="M390.37,162.23c-12.9,14.69,8.69,72.39,16.46,73.3S508.33,172.89,487.3,167,401.34,149.74,390.37,162.23Z"/><path class="cls-4" d="M584.45,155c0-6.15-5.55-19.16-14.57-18.49S550.16,155,550.16,155Z"/><path class="cls-4" d="M398.37,502.81c-10.33-1.53,11.48-13.08,19.4-9.65a36.14,36.14,0,0,1,12.37,8.74A98.84,98.84,0,0,1,398.37,502.81Z"/><path class="cls-10" d="M387.54,537.74C385.44,395.09,492,443,552,447.13s43.85,75.39,35.75,86.43S387.76,552.12,387.54,537.74Z"/><path class="cls-11" d="M307.16,28.88S224-1.67,98.68.53c0,0,108.81,35.52,153.62,160S305,548,305,548l82.5-10.3s13.53-140.86,0-283.92C373.85,108.43,307.16,28.88,307.16,28.88Z"/><path class="cls-12" d="M533,38.75S649.15,22.48,726,25.22c0,0,47.54,37.49,50.29,164.59s-97.39,333.3-97.39,333.3l-68,4.68s53.34-133.32,43.8-281.29C642.75,61.79,533,38.75,533,38.75Z"/><path class="cls-13" d="M179.15,122.15c-53.5-6.18-35.67,87.09-27.44,134.41s63.78,296.27,63.78,296.27H183.27S130.45,355.32,110.57,249,100.28,102.94,124.28,92.66,179.15,122.15,179.15,122.15Z"/><path class="cls-14" d="M263.4,543.77l7.79-5.46-.34-3.33c-1.16-10.77-5.38-47.35-14.77-105.63q-3.93-24.45-9.15-53.93c-.64-3.7-1.33-7.47-2-11.3q-4-22.32-8.84-47.21c-.91-4.65-1.81-9.22-2.73-13.7-.22-1-.43-2-.63-3l-.73-3.44C202.7,159.26,162,103.63,131.83,103.63c-28.81,0-27,73.21-5.52,186.77.4,2.1.81,4.24,1.24,6.39.11.59.22,1.18.34,1.77,3.66,18.57,8.16,39,13,59.76l2.34,9.94c4.35,18.27,8.92,36.65,13.39,54.18,13.74,53.92,26.57,99.73,29.21,109.1l.5,1.75,23.49,5-53.33-5.48c-.79-2.12-1.57-4.26-2.35-6.4l-.24-.63c-12.52-34.17-24.36-69.9-35.17-106-5.4-18.07-10.56-36.23-15.4-54.3q-1.25-4.71-2.48-9.43c-5.24-20-10.08-39.84-14.47-59.36-.08-.31-.15-.63-.22-.93l-.44-2C51.53,140.47,45.51,8.39,98.67.53c59.74-8.82,155.46,94.18,182.89,241.11,3.49,18.68,6.46,38.46,9,58.59l.39,3.13c2.46,20,4.49,40.28,6.16,60.23q.5,5.7.92,11.33c1.46,18.47,2.59,36.51,3.5,53.53a1,1,0,0,1,0,.18c3,56.43,3.45,101.76,3.5,115.28,0,2.7,0,4.13,0,4.13Z"/><path class="cls-15" d="M533,38.75c-26.6,0-47.55,39.94-47.55,39.94s40.2-.23,55.29-.91c0,0,54.28,2.53,80,118.89,26.52,119.78-27,328.72-27,328.72l17,2.4S661.7,415.42,661.7,253.05C661.7,129.69,592,38.75,533,38.75Z"/><polygon class="cls-16" points="84.97 351.85 88.14 365.6 262.94 380.95 767.56 356 770.99 336.8 253.9 349.46 84.97 351.85"/><path class="cls-17" d="M790,290.4,776.3,342.88,297.1,363.59l-5.39.23-29.35,1.28-17.45-1-104-5.8-40-2.24-26-1.45c-9.61-27.2-9.61-58.84-9.61-58.84l21.1.93,41.49,1.84,105.45,4.65,23.48,1,34.12-.89Z"/><path class="cls-18" d="M774.91,353.93,760,401.81,301.52,428.45l-31.85,1.85-13.59-.95-99.44-6.91-37.89-2.63-20.08-1.4a401.18,401.18,0,0,1-23.76-54.86l28.44,2,39.9,2.75,103.68,7.16,15.4,1.06L298,374.92Z"/><polygon class="cls-19" points="256.83 304.25 262.36 365.09 774.98 347.95 789.96 290.39 256.83 304.25"/><path class="cls-20" d="M269.67,430.3l-7.34-53.82,512.58-22.55-14.86,47.88S274.16,430.61,269.67,430.3Z"/><polygon class="cls-21" points="74.91 363.55 86.59 358.88 87.13 361.21 275.16 368 768.65 349.9 769 347.95 774.91 353.93 262.33 376.48 74.91 363.55"/><polygon class="cls-22" points="740.13 527.79 708.58 603.12 311.02 630.55 133.43 604.95 114 525.39 150.34 516.26 153.92 525.78 154.16 526.41 185.85 531.54 209.93 527.79 270.85 534.98 271.19 538.31 304.99 543.91 305.03 543.91 387.55 537.74 388 532.6 593.82 525.39 610.86 527.79 678.86 523.1 683.95 512.31 740.13 527.79"/><path class="cls-23" d="M740.13,527.79s-57.16,20.47-180.6,25S311,552.67,311,552.67c-154.51-19.86-197-27.28-197-27.28l36.34-9.13,3.82,10.15,31,5a5.45,5.45,0,0,0,1.71,0l23.07-3.64L270.84,535l.35,3.33,33.8,5.6,82.55-6.17.46-5.14,205.82-7.21,17,2.4,68-4.68L684,512.3Z"/><path class="cls-24" d="M311,552.67v77.88l397.56-27.43,31.55-75.33s-83.66,13.55-201.62,21.56C452.26,555.22,311,552.67,311,552.67Z"/><polygon class="cls-21" points="789.96 290.4 290.94 303.36 256.82 304.25 233.34 303.21 127.89 298.56 86.4 296.72 65.3 295.79 85.74 293.81 86.18 295.79 127.55 296.79 159.37 295.31 231.98 296.79 232.71 300.23 290.55 300.23 390.88 297.02 390.69 293.81 628.1 286.28 660.81 290.4 764.35 286.28 765.04 283.28 789.96 290.4"/><path class="cls-25" d="M366.6,552.83s23.77-5,104.24-8.68,244.1-12.67,244.1-12.67S687,548,573.58,554.82C482.22,560.28,366.6,552.83,366.6,552.83Z"/><path class="cls-26" d="M485.47,78.69S503.09,42.52,533,38.75,623,81.19,644.74,151.5s16.07,138.9,16.07,138.9H628l-43.56-9.77s-5.07-56.05-22.67-116.15-64.21-86.56-64.21-86.56Z"/><path class="cls-27" d="M422.71,292.8V267.53s102.87-11,168.32,2.19c0,0,40.74,15.41,44.17,27.07s-6.31,143.41-12.34,149c-10.93,10.22-43.21,26.75-43.21,26.75l-154,5.48L417.77,422l24-.8s3.8-32,6.54-56.06l.31-7.72s.69-36.34-4.11-56.92Z"/><path class="cls-28" d="M495.53,307.31c-1.44,15.35-5.72,124.82-5.72,131.67s121.82,12.33,130.74,7.53,17.27-136.74,7.08-144.3C622.15,298.14,496.08,301.42,495.53,307.31Z"/><path class="cls-29" d="M507,397.66c-9.8-.23-13.14-79.63-4.57-86.69s123.46-12.3,125.05-4.32,6.62,99.42-4.35,101.24-33.19-22.4-35.34-28.8S569.44,348.82,561.06,348,537.59,398.41,507,397.66Z"/><path class="cls-30" d="M422.71,267.53s9.84,8.82,62.35,26.23c7.43,2.47,145,6.4,145.34,3,.71-6.4-31.95-26-39.37-27.07C523.39,260,457.1,262.65,422.71,267.53Z"/><path class="cls-31" d="M471.11,454.88a282.05,282.05,0,0,0-45.51,23.19l154-5.48s32.26-16.13,31.8-19.9S494.21,445.77,471.11,454.88Z"/><path class="cls-32" d="M530.27,418.14c7.26,2.52,32.49,10,56.12,1a2.15,2.15,0,0,0,1.27-2.62l-15.88-52.83a7,7,0,0,1,1.46-6.09A18.29,18.29,0,1,0,540.77,346c0,3.34,2.26,7.46,4.31,10.5a12.86,12.86,0,0,1,1.76,10.31L529,415.37A2.14,2.14,0,0,0,530.27,418.14Z"/><path class="cls-33" d="M586.39,419.14c-11,4.18-22.36,4.8-32.09,4a67.56,67.56,0,0,0,17.93-4,2.14,2.14,0,0,0,1.26-2.62l-15.87-52.84a6.93,6.93,0,0,1,1.46-6.07A18.3,18.3,0,0,0,552,329.16a18.3,18.3,0,0,1,21.25,28.45,6.91,6.91,0,0,0-1.47,6.07l15.88,52.84A2.15,2.15,0,0,1,586.39,419.14Z"/><path class="cls-34" d="M604.34,86.94c2.62,15.57,11.43,46.66,20.35,48.46,4.75,1,6.1-.74,8.74-4.3,7.29-9.82,6.29-32.08-1.25-39.13S601.63,70.83,604.34,86.94Z"/><path class="cls-35" d="M616,110.73c-8.58,2.5,3,25,9.83,25.76S637.46,104.49,616,110.73Z"/><path class="cls-36" d="M610.86,527.79s30.51-81.34,35.31-119.36H629.38s-2.41,28.5-6.52,37.41c0,0-91.94,6-125.29,2.49-10.5-1.12-7.72-18.16-5.87-61.45s-2-91.57-6.64-93.12-62.35-26.23-62.35-26.23l-32.25,22.86.22,3.42,27.09-.85,7.83,7.44s6.72,35.54,4.67,59.08l-17.38.58V363l17.25,6.14s-.64,33.27-5.23,52.19l-32.82,2.16-1.63,69.09s77.44-8.28,167.83-8.28c3.53,0,2,27,2.77,42.29l32.76-1.15Z"/><path class="cls-37" d="M311,552.67v77.88L133.43,605,114,525.39l36.34-9.13,3.58,9.52c-12.52-34.17-24.36-69.9-35.17-106l-20.08-1.4a401.18,401.18,0,0,1-23.76-54.86l11.68-4.67c-.83-3.14,0-.5-.84-3.64l-10.84-.61c-9.61-27.2-9.61-58.84-9.61-58.84l20.44-2C51.53,140.47,45.51,8.39,98.67.53c59.74-8.82,155.46,94.18,182.89,241.11,3.49,18.68,6.46,38.46,9,58.59l-33.73,4,5.54,60.85,138.51-4.64-25.81,4.21L262.33,376.48l7.34,53.82,31.86-1.67L305,543.91l-41.59-.14Z"/><path class="cls-38" d="M158.65,430.3c22.27.23,36.27,25.83,36.27,25.83s33.79,1.38,70.14,32.91l-9-59.69-68-4.43-31.42-2.48-37.89-2.63,1.94,6.4Z"/><path class="cls-39" d="M131.83,103.63C110,102.26,104.22,155,115.71,227.41c0,0,9.94-19.54,27.09-25.71,0,0,29.31,5.1,53.87,27.43,15,13.61,27.52,34,27.52,34s-20.38-76.79-42-114.51S141.75,104.25,131.83,103.63Z"/><path class="cls-40" d="M256.82,304.25c-4.06,5.8-6.81,24.09-4.52,32.55s9.82,25.67,9.82,25.67.65-24.53.21-32.76S256.82,304.25,256.82,304.25Z"/><path class="cls-40" d="M262.33,376.48c6.43,8.1,8.26,20.9,9.63,25s-2.29,28.81-2.29,28.81-9.6-26.39-9.6-30.34S262.33,376.48,262.33,376.48Z"/><path class="cls-40" d="M302,442.61c-3.48,18.78-9.42,44.94-6.9,49.92S305,543.91,305,543.91s6.63-36.61,3.95-50.65S302,442.61,302,442.61Z"/><path class="cls-41" d="M237.15,115.37c-12.65.35,10.89,94.1,14.32,96.84s18.43,6.18,23.23,1.37,7.13-44.11,5-51.35C272.27,136.52,250.75,115,237.15,115.37Z"/><path class="cls-35" d="M262.52,183.37c-13.86-19.41-20.79-20.57-20.28-10s8.26,39,11.44,40.09,13.2,3.42,15.53-2.14S267.72,190.65,262.52,183.37Z"/><path class="cls-42" d="M455.74,367.16c-2.84,6.41-13.86,85.93-10.66,89.2s37.25-15.9,39.54-20.22,3.12-52.46-2.36-63.27S458.46,361,455.74,367.16Z"/><path class="cls-43" d="M249.44,339.54c5.14,6.19,10,22.88,7.39,22.93s-61.57-1.4-62.25-3.59S243.56,332.47,249.44,339.54Z"/><path class="cls-42" d="M299.39,560.42c-30.4-8.87-168.71-34.7-173.74-26.86s-3.23,61.55,14.18,68.19,132.18,16.4,136.7,15.59C299.39,613.22,305.47,562.2,299.39,560.42Z"/><path class="cls-42" d="M85,12.42C50.38,42.06,61.49,144.78,82.32,140c6.68-1.53,27.79-36.92,44.25-39.33s36.57,2.94,51.66,2.94,26.53-17.78,4-50.09S107.38-6.78,85,12.42Z"/><path class="cls-25" d="M639.75,359.88C690.16,372.05,771,353.93,771,353.93s-35,.8-53.15.57S639.75,359.88,639.75,359.88Z"/><path class="cls-25" d="M290.94,303.36c31.77,9,126.83-3.29,126.83-3.29s-23.54-1.76-69.36,0S290.94,303.36,290.94,303.36Z"/><path class="cls-29" d="M569.88,43.28c12.92,10.47,49,35.85,55.73,38.19,53.48,18.73,137.84,18.73,131,5.7S738.07,35.73,712,33,560.7,35.85,569.88,43.28Z"/><path class="cls-44" d="M639.75,463.51c-5.58,8.39-16,53.79-9.77,55.17s74.59-52.11,73.91-67.89S647.52,451.85,639.75,463.51Z"/><path class="cls-45" d="M730.53,196.06c-12.15,13.51-8.22,25.53,0,25.53s30.17-28.65,28.8-30.79S739.71,185.86,730.53,196.06Z"/><path class="cls-29" d="M173.66,6.13c-21.44.36,56.09,84.47,82.3,92s77.14,11.73,76.8-6.86c-.49-27-18.13-58.85-43.5-66.37S188.28,5.89,173.66,6.13Z"/><path class="cls-45" d="M290.94,155c-6.07,19.73,5.59,131.48,14.11,135.36s70.23,4,70.23-9.78S296.45,137.18,290.94,155Z"/><path class="cls-45" d="M322.48,155c0,7.78,18.94,56.94,25.93,56.94s17.25-53.54,5.95-56.94S322.43,146.45,322.48,155Z"/><path class="cls-46" d="M388,532.6c45.35-13.61,205.82-7.21,205.82-7.21s-37.34,8.69-106,10.52S388,532.6,388,532.6Z"/><path class="cls-29" d="M311,630.55c38.2-21.95,211.48-72,306.12-73.73s91.44,46.3,91.44,46.3Z"/><path class="cls-47" d="M224.19,363.41c1.63-.29,36.3-9.65,38.12-9.48,14.91,1.38,49.73,7.36,57.88,8.93.78.15-55.69,2.24-57.83,2.24C248.41,365.09,222.92,363.64,224.19,363.41Z"/><path class="cls-25" d="M788.29,296.79c-.9.6-97.74-1.35-98.22-3.8-.16-.82,99.89-4.47,99.89-2.59C790,293.14,789.1,296.25,788.29,296.79Z"/><path class="cls-25" d="M262.33,376.48c2.73,4.47,8.83,19.6,9.94,21.18,2.87,4.13,104.56-25.57,97.29-25.9S260,372.63,262.33,376.48Z"/><path class="cls-48" d="M725.25,413.12a757.14,757.14,0,0,1-85.5,24.42s-10.19,8.89-32.4,26a94.39,94.39,0,0,1-2.9,14.56s-169.27,7.55-212.71,6.18l.11-50.3s-40.67,4.66-89.42,12.62c0,0-27.64,5.65-42.77,6.58l-2.11-10.54-6.08-13.56,190.34-7.9S427,434,421.46,445.84l4.14,32.23,154-5.48s38-18.52,43.21-26.75,6.52-37.41,6.52-37.41l99.37-4.77Z"/><path class="cls-29" d="M771,223c-5.44-9.56-110,31.83-107.8,40.23s-4.72,26.61,2.87,26.63,86.68-1.93,93.33-6.59S776.48,232.66,771,223Z"/><path class="cls-44" d="M652,298.1c-8.93,4.84-20,49.62-12.25,50.68s114.78-2.38,121.3-6.15,15.58-43,8.22-44.53S663.32,292,652,298.1Z"/><path class="cls-43" d="M74.91,303c-6.69,16.43-5.49,36.51,0,35.28s46.73-31.11,35-34S77.49,296.6,74.91,303Z"/><path class="cls-44" d="M325.91,563.34c-22,11.85-9.44,49.62,11.43,44.81C425.6,587.8,357.32,546.42,325.91,563.34Z"/><path class="cls-43" d="M136.63,438.07c.51,12.09,14.46,69.18,18.28,74.24,3.36,4.44,19.36,8.73,19.44,4.85C174.5,509.39,136.16,427,136.63,438.07Z"/><path class="cls-43" d="M235.38,235.54c-12.64,12.3-5.48,54.74,4.57,58.23s40,11.25,40.56-6.12S268.76,203.09,235.38,235.54Z"/><path class="cls-49" d="M766.56,107.59c-1.7-5.85-126.81,7.77-126.81,7.77l-4.86,12.11s13.82,28.68,17.69,50.08c0,0,1.83-12.56,8.9-15.32,7.59-3,98.23-7.51,106.08-7.19s7.35,11.69,7.35,11.69S774.28,134.12,766.56,107.59Z"/><path class="cls-49" d="M228.62,100.49C248,107.11,355.38,117,355.38,117c1.16,3,8.45,23.21,8.45,23.21s-69.75-11-101.5-9.39c0,0-15.19-16-25.18-15.4Z"/><circle class="cls-50" cx="729.6" cy="141.17" r="118.75" transform="translate(113.87 557.25) rotate(-45)"/><circle class="cls-51" cx="294.44" cy="353.93" r="118.75" transform="translate(-164.02 311.86) rotate(-45)"/><circle class="cls-52" cx="118.75" cy="145.78" r="118.75" transform="translate(-68.3 126.67) rotate(-45)"/></g></g></g></svg>