<svg xmlns="http://www.w3.org/2000/svg" xmlns:xlink="http://www.w3.org/1999/xlink" viewBox="0 0 175.42 168.76"><defs><style>.cls-1{isolation:isolate;}.cls-2{fill:url(#linear-gradient);}.cls-3{fill:#fcb663;}.cls-4{fill:#e86d24;}.cls-5{fill:url(#linear-gradient-2);}.cls-6{fill:url(#linear-gradient-3);}.cls-7{fill:url(#linear-gradient-4);}.cls-8{fill:#ce7a41;opacity:0.38;mix-blend-mode:multiply;}.cls-9{fill:#7b2f5c;}.cls-10{fill:#8e4373;}</style><linearGradient id="linear-gradient" x1="72.92" y1="23.32" x2="109.07" y2="177.29" gradientTransform="translate(-31.45 115.58) rotate(-58.99)" gradientUnits="userSpaceOnUse"><stop offset="0" stop-color="#f9a14a"/><stop offset="1" stop-color="#e9802d"/></linearGradient><linearGradient id="linear-gradient-2" x1="59.58" y1="5.77" x2="78.2" y2="5.77" xlink:href="#linear-gradient"/><linearGradient id="linear-gradient-3" x1="107.57" y1="1.9" x2="128.44" y2="1.9" xlink:href="#linear-gradient"/><linearGradient id="linear-gradient-4" x1="112.17" y1="5.18" x2="139.25" y2="5.18" xlink:href="#linear-gradient"/></defs><title>straw</title><g class="cls-1"><g id="Layer_2" data-name="Layer 2"><g id="Layer_1-2" data-name="Layer 1"><path class="cls-2" d="M60.21,21.43c6.55,6.12,13.62,12.92,19.73,18.87l-2.52-4.51,1.35-.56,6.16,9.92C91.45,51.54,96,56,96,56l.18.06c.18,0,.53.15,1.24.35l21.27,2.31L120.09,61l-9-.57L117,62.09c12.43,3.58,30.65,10.65,43.44,15.82L164,79.38l6.38-2.07.75,3-2.89.84c4.41,1.83,7.16,3,7.16,3a76.46,76.46,0,0,1-2.23,10l-14.92-3.53,14.07,6.39a118.06,118.06,0,0,1-5.59,14.42L157.66,110l-2.07,3.09,9.25,2.16c-.49,1-1,2-1.55,3l-9.2-1.91-.82,3.39,8.13,1.85c-.33.55-.65,1.11-1,1.66l-.88,1.43L151,121.48l-1.14,1.18,7.46,5.39c-3.45,5.17-7.22,10.14-10.87,14.61l-4.93-2.44,3.93,3.66c-2.42,2.93-4.77,5.64-6.92,8l-13.38-10.56L135.74,155c-.52.56-1,1.09-1.49,1.59l-.29.3c-2.3,2.45-4.09,4.24-5.05,5.2l2.05,3.78-.41,2.94-6-8.58c-1.93-1.6-4.74-4.12-8.62-8l.52,3.62-2.67-.36-1-6.41c-4.1-4.21-9.16-9.65-15.37-16.7-3.54-4-6.65-7.67-9.37-11l3,4.92-1.41,2.34L76.32,106.1c-5.58-7.93-7-11.46-7-11.46S64,93.27,53.76,91.54l-24.21,1-.78-2.29,11.4-.79c-7.74-1.19-16.07-2.74-23-4.11L13.81,87l-2.43-1.46,1.59-1C5.8,83.06.83,82,.83,82A47.91,47.91,0,0,1,0,73.3,68.35,68.35,0,0,1,1.1,59.92l5.18.48,3.13.3-2.79-1L2.41,58.17A88.29,88.29,0,0,1,8,40.35l8.52,5.12-1.38-3.32-.44-1.07L9.44,37.22c1-2,2.06-4.07,3.27-6.09A87.16,87.16,0,0,1,18.9,22l4.25,3.66,3.49,3-2.73-4.55-4.33-7.22A38,38,0,0,1,33.42,7.65,23.8,23.8,0,0,1,43.54,6.14L41.8,0l2.84,1.71,6,10.71,9.58,9Z"/><path class="cls-3" d="M41.8,0l2.84,1.71,6,10.71s-.63,7.83-1.9,11.35-1.51-6.85-1.52-7.39c-.11.7-3.59,23.31-3.82,23.68s-5.26-4.59-5.54-4.86l2.64,7.4-1.55,4.87L35.35,42.6l-1,4.13,3,6.48,1,3.4-3-1.8-.52,5s7,1.45,7.35,1.67-.43,1.28-.43,1.28H34.75a18.31,18.31,0,0,1-1.41,2.6c1.11-.39,5.33-1.27,5.33-1.27L38,66.4s-8.13,4.7-10.27,5.47,8.35-1.14,9.24-1.47S24.88,79.92,23.8,81s10.86-.54,10.86-.54l-17.54,4.9L13.81,87l-2.43-1.46,1.59-1C5.8,83.06.83,82,.83,82A47.91,47.91,0,0,1,0,73.3L6.28,60.4l3.13.3L14.2,44.08l2.32,1.39,6.63-19.83,3.49,3L24,24l9.45-16.3A23.8,23.8,0,0,1,43.54,6.14Z"/><path class="cls-4" d="M43.54,6.14l-1.25,7.27,1,12.6-4-7.17-3.22,6.27a95.57,95.57,0,0,1-6.64,11l.84,11.46L23,39.79l1,4,6.53,6.79L29,54l-10.7-6.43L17,49.84l13,7.81-.28,2.91L19.55,56.19l-2.11,3.52,10.72,3.36-11.92-.66L12.75,67.5C9.26,72.58.83,82,.83,82a61.87,61.87,0,0,1,.27-22l8.31.78-7-2.53A88.29,88.29,0,0,1,8,40.35l8.52,5.12L14.7,41.08,9.44,37.22c1-2,2.06-4.07,3.27-6.09A87.16,87.16,0,0,1,18.9,22l7.74,6.65L19.57,16.86C31.77,4.92,41.56,6,43.54,6.14Z"/><polygon class="cls-5" points="9.24 66.3 2.43 66.42 1.94 64.02 9.74 65.46 9.24 66.3"/><polygon class="cls-6" points="28.92 26.35 24.65 16.95 27.3 15.57 30.09 25.92 28.92 26.35"/><polygon class="cls-7" points="32.16 22.48 32.16 13.47 34.65 13.83 33.59 23.8 32.16 22.48"/><polygon class="cls-8" points="89.21 94.99 97.23 98.44 97.37 95.96 89.15 93.58 89.21 94.99"/><polygon class="cls-8" points="113.61 80.58 121.52 83.79 122.36 81.39 114.06 79.82 113.61 80.58"/><polygon class="cls-8" points="105.83 133.37 107.11 131.24 102.78 126.75 102.48 128.46 105.83 133.37"/><path class="cls-8" d="M117,62.09l-5.84-1.69,9,.57-1.41-2.21L97.41,56.45c-.71-.2-1.06-.31-1.24-.35L96,56s-4.54-4.5-11.06-10.89l-6.16-9.92-1.35.56,2.52,4.51c-6.11-5.95-13.18-12.75-19.73-18.87.62.85,18.54,25.28,22.53,35l-6.11-5.13L76,52.46l7.59,6.88a15.7,15.7,0,0,1-.42,3.89l-5.84-5.35-.91,1.5,6.25,5.9C80.47,73,75.07,83.39,71.41,86.08c-4.8,3.53-17.65,5.46-17.65,5.46,10.22,1.73,15.53,3.1,15.53,3.1s1.45,3.53,7,11.46L89.6,128.63,91,126.29l-3-4.92a32.44,32.44,0,0,1-4.3-16.14l6,8.34.36-3.32-6.34-6.84a32.06,32.06,0,0,1,5.84-16.47c12.25-17.86,70.76-9,70.76-9C147.6,72.74,129.38,65.67,117,62.09Z"/><path class="cls-9" d="M94.85,54.92l1.65,1.27S96.87,62,86.23,78.32s-16.16,17.9-16.16,17.9a1.73,1.73,0,0,1-1-.6,3.63,3.63,0,0,1-.64-1.19,98.17,98.17,0,0,0,15.31-17.1c6.61-9.59,10.88-21.72,11.11-22.39Z"/><path class="cls-10" d="M94.85,54.94c-.12.57-2.08,10.2-9.7,22.31C77.31,89.73,68.43,94.43,68.43,94.43a98.17,98.17,0,0,0,15.31-17.1C90.35,67.74,94.62,55.61,94.85,54.94Z"/><polygon class="cls-3" points="44.04 86.08 34.68 85.81 34.4 84.45 43.33 85.65 44.04 86.08"/><polygon class="cls-3" points="38.91 82.99 34.23 82.86 35.42 80.89 42.38 81.55 38.91 82.99"/><polygon class="cls-3" points="53.2 45.45 48.55 37.19 50.92 35.87 54.64 45.13 53.2 45.45"/><polygon class="cls-3" points="61.95 41.31 58.52 33.07 60.67 33.01 63.63 41.86 61.95 41.31"/><polygon class="cls-3" points="67.99 67.86 61.22 66.87 60.08 64.64 68.97 66.23 67.99 67.86"/><polygon class="cls-8" points="71.07 83.91 64.81 84.08 65.17 82.33 71.59 83.03 71.07 83.91"/><polygon class="cls-3" points="148.62 94.61 159.29 97.94 158.68 94.55 148.4 93.28 148.62 94.61"/><polygon class="cls-3" points="153.23 82.67 165.05 81.57 167.1 82.8 154.06 83.86 153.23 82.67"/><polygon class="cls-8" points="118.93 149.12 127.69 158.23 128.93 156.16 119.69 146.72 118.93 149.12"/><path class="cls-8" d="M134,156.84c-2.3,2.45-4.09,4.24-5.05,5.2l2.05,3.78-.41,2.94-6-8.58c-1.93-1.6-4.74-4.12-8.62-8l.52,3.62-2.67-.36-1-6.41-1.6-4.11,4,5.78.16-2.54s12.21,11.75,13.36,12.3C129.71,161,133,157.83,134,156.84Z"/><path class="cls-8" d="M173.19,94.08l-14.92-3.53,14.07,6.39a118.06,118.06,0,0,1-5.59,14.42L157.66,110l-2.07,3.09,9.25,2.16c-.49,1-1,2-1.55,3l-9.2-1.91-.82,3.39,8.13,1.85c-.33.55-.65,1.11-1,1.66l-.88,1.43L151,121.48l-1.14,1.18,7.46,5.39c-3.45,5.17-7.22,10.14-10.87,14.61l-4.93-2.44,3.93,3.66c-2.42,2.93-4.77,5.64-6.92,8l-13.38-10.56L135.74,155c-.52.56-1,1.09-1.49,1.59L121.51,138s17.38,11.48,18.09,10.88a27.85,27.85,0,0,0,2.56-4.25S130,133.52,129,132.58c1.24.75,17.62,7.51,17.62,7.51l2.4-5.4-9.34-4.08-1.33-2.34L150,132.73l1.39-2.33-11.23-9.74.84-3.32,8.32,3.14-.27-3.46-6.57-2.15,10.07-1.3,1.74-2.89-3.61-.8,1.21-2,13.51.94,3.16-10.94-14.92-7.61,2.9-1.15,14.73.64,1.08-3.8-4.09-4.84c4.41,1.83,7.16,3,7.16,3A76.46,76.46,0,0,1,173.19,94.08Z"/><polygon class="cls-3" points="97.62 108.77 103.01 114.58 103.7 112.42 96.84 106.76 97.62 108.77"/></g></g></g></svg>